<?xml version="1.0" encoding="UTF-8"?>
<svg width="16px" height="16px" viewBox="0 0 16 16" version="1.1" xmlns="http://www.w3.org/2000/svg" xmlns:xlink="http://www.w3.org/1999/xlink">
    <title>89147A50-4FA1-4E57-93E8-266139F70456</title>
    <g id="aimedis" stroke="none" stroke-width="1" fill="none" fill-rule="evenodd">
        <g id="UI---Patient---Trackers-&amp;-Self-Data-(Connect)" transform="translate(-331.000000, -346.000000)">
            <g id="Group-12-Copy-9" transform="translate(260.000000, 258.000000)">
                <g id="add" transform="translate(71.000000, 88.000000)">
                    <g id="Frame_-_24px">
                        <rect id="Rectangle" x="0" y="0.000666666667" width="16" height="16"></rect>
                    </g>
                    <g id="Filled_Icons" transform="translate(1.333333, 1.333333)" fill="#BFC1C1" fill-rule="nonzero">
                        <path d="M6.66666667,0.00133333333 C2.99066667,0.00133333333 0,2.992 0,6.668 C0,10.344 2.99066667,13.3346667 6.66666667,13.3346667 C10.3426667,13.3346667 13.3333333,10.344 13.3333333,6.668 C13.3333333,2.992 10.3426667,0.00133333333 6.66666667,0.00133333333 Z M10.6666667,8.00133333 L8,8.00133333 L8,10.668 L5.33333333,10.668 L5.33333333,8.00133333 L2.66666667,8.00133333 L2.66666667,5.33466667 L5.33333333,5.33466667 L5.33333333,2.668 L8,2.668 L8,5.33466667 L10.6666667,5.33466667 L10.6666667,8.00133333 Z" id="Shape"></path>
                    </g>
                </g>
            </g>
        </g>
    </g>
</svg>