<svg width="24" height="25" viewBox="0 0 24 25" fill="none" xmlns="http://www.w3.org/2000/svg">
<path d="M0 12.8379C0 7.18104 0 4.35261 1.75736 2.59525C3.51472 0.837891 6.34315 0.837891 12 0.837891C17.6569 0.837891 20.4853 0.837891 22.2426 2.59525C24 4.35261 24 7.18104 24 12.8379C24 18.4947 24 21.3232 22.2426 23.0805C20.4853 24.8379 17.6569 24.8379 12 24.8379C6.34315 24.8379 3.51472 24.8379 1.75736 23.0805C0 21.3232 0 18.4947 0 12.8379Z" fill="white"/>
<path fill-rule="evenodd" clip-rule="evenodd" d="M9.52827 17.3093C9.26792 17.0489 9.26792 16.6268 9.52827 16.3664L13.0569 12.8378L9.52827 9.30925C9.26792 9.0489 9.26792 8.62679 9.52827 8.36644C9.78862 8.10609 10.2107 8.10609 10.4711 8.36644L14.4711 12.3664C14.7314 12.6268 14.7314 13.0489 14.4711 13.3093L10.4711 17.3093C10.2107 17.5696 9.78862 17.5696 9.52827 17.3093Z" fill="#404646"/>
<path d="M1.75736 23.0805L1.05025 23.7876L1.75736 23.0805ZM22.2426 23.0805L22.9497 23.7876L22.2426 23.0805ZM22.2426 2.59525L22.9497 1.88814L22.2426 2.59525ZM1.75736 2.59525L1.05025 1.88814L1.75736 2.59525ZM12 23.8379C9.1433 23.8379 7.10138 23.8358 5.54962 23.6271C4.02662 23.4224 3.12638 23.0353 2.46447 22.3734L1.05025 23.7876C2.1457 24.8831 3.53835 25.3747 5.28312 25.6093C6.99913 25.84 9.19984 25.8379 12 25.8379V23.8379ZM-1 12.8379C-1 15.638 -1.00212 17.8388 -0.771413 19.5548C-0.536834 21.2995 -0.0451961 22.6922 1.05025 23.7876L2.46447 22.3734C1.80256 21.7115 1.41551 20.8113 1.21075 19.2883C1.00212 17.7365 1 15.6946 1 12.8379H-1ZM23 12.8379C23 15.6946 22.9979 17.7365 22.7892 19.2883C22.5845 20.8113 22.1974 21.7115 21.5355 22.3734L22.9497 23.7876C24.0452 22.6922 24.5368 21.2995 24.7714 19.5548C25.0021 17.8388 25 15.638 25 12.8379H23ZM12 25.8379C14.8002 25.8379 17.0009 25.84 18.7169 25.6093C20.4617 25.3747 21.8543 24.8831 22.9497 23.7876L21.5355 22.3734C20.8736 23.0353 19.9734 23.4224 18.4504 23.6271C16.8986 23.8358 14.8567 23.8379 12 23.8379V25.8379ZM12 1.83789C14.8567 1.83789 16.8986 1.84001 18.4504 2.04864C19.9734 2.2534 20.8736 2.64045 21.5355 3.30236L22.9497 1.88814C21.8543 0.792695 20.4617 0.301056 18.7169 0.0664778C17.0009 -0.164233 14.8002 -0.162109 12 -0.162109V1.83789ZM25 12.8379C25 10.0377 25.0021 7.83702 24.7714 6.12101C24.5368 4.37624 24.0452 2.98359 22.9497 1.88814L21.5355 3.30236C22.1974 3.96427 22.5845 4.86451 22.7892 6.38751C22.9979 7.93927 23 9.98119 23 12.8379H25ZM12 -0.162109C9.19984 -0.162109 6.99913 -0.164233 5.28312 0.0664778C3.53835 0.301056 2.1457 0.792695 1.05025 1.88814L2.46447 3.30236C3.12638 2.64045 4.02662 2.2534 5.54962 2.04864C7.10138 1.84001 9.1433 1.83789 12 1.83789V-0.162109ZM1 12.8379C1 9.98119 1.00212 7.93927 1.21075 6.38751C1.41551 4.86451 1.80256 3.96427 2.46447 3.30236L1.05025 1.88814C-0.0451961 2.98359 -0.536834 4.37624 -0.771413 6.12101C-1.00212 7.83702 -1 10.0377 -1 12.8379H1Z" fill="#E5E6E6"/>
</svg>
