<?xml version="1.0" encoding="UTF-8"?>
<svg width="24px" height="24px" viewBox="0 0 24 24" version="1.1" xmlns="http://www.w3.org/2000/svg" xmlns:xlink="http://www.w3.org/1999/xlink">
    <title>2853ECBB-5910-427C-A478-7383845D7C9C</title>
    <g id="aimedis" stroke="none" stroke-width="1" fill="none" fill-rule="evenodd">
        <g id="UI---Components" transform="translate(-88.000000, -4630.000000)">
            <g id="blood-pressure-sugar" transform="translate(88.000000, 4630.000000)">
                <circle id="Oval" fill="#B4ECF8" cx="12" cy="12" r="12"></circle>
                <g id="health-stethoscope" transform="translate(4.000000, 4.000000)">
                    <g id="Frame_-_24px">
                        <rect id="Rectangle" x="0" y="0.000666666667" width="16" height="16.0006667"></rect>
                    </g>
                    <g id="Filled_Icons" transform="translate(1.333333, 1.333333)" fill="#00B0DB" fill-rule="nonzero">
                        <path d="M13.3333333,3.33333333 C13.3333333,2.23066667 12.436,1.33333333 11.3333333,1.33333333 C10.2306667,1.33333333 9.33333333,2.23066667 9.33333333,3.33333333 C9.33333333,4.20133333 9.892,4.934 10.6666667,5.21 L10.6666667,11.3326667 C10.6666667,11.7006667 10.3673333,11.9993333 10,11.9993333 C9.63266667,11.9993333 9.33333333,11.7006667 9.33333333,11.3326667 C9.33333333,10.23 8.436,9.33266667 7.33333333,9.33266667 C6.23066667,9.33266667 5.33333333,10.23 5.33333333,11.3326667 C5.33333333,11.5166667 5.18333333,11.666 5,11.666 C4.81666667,11.666 4.66666667,11.5166667 4.66666667,11.3326667 L4.66666667,9.27333333 C6.55533333,8.95466667 8,7.312 8,5.33266667 L8,1.33333333 C8,0.965333333 7.702,0.666666667 7.33333333,0.666666667 L6,0.666666667 L6,0 L4.66666667,0 L4.66666667,2.66666667 L6,2.66666667 L6,2 L6.66666667,2 L6.66666667,5.332 C6.66666667,6.80333333 5.47,7.99866667 4,7.99866667 C2.53,7.99866667 1.33333333,6.80333333 1.33333333,5.332 L1.33333333,2 L2,2 L2,2.66666667 L3.33333333,2.66666667 L3.33333333,0 L2,0 L2,0.666666667 L0.666666667,0.666666667 C0.298,0.666666667 0,0.965333333 0,1.33333333 L0,5.332 C0,7.31066667 1.44466667,8.954 3.33333333,9.27266667 L3.33333333,11.332 C3.33333333,12.2513333 4.08066667,12.9986667 5,12.9986667 C5.91933333,12.9986667 6.66666667,12.2513333 6.66666667,11.332 C6.66666667,10.9653333 6.966,10.6653333 7.33333333,10.6653333 C7.70066667,10.6653333 8,10.9653333 8,11.332 C8,12.4353333 8.89733333,13.332 10,13.332 C11.1026667,13.332 12,12.4353333 12,11.332 L12,5.21 C12.7746667,4.934 13.3333333,4.20133333 13.3333333,3.33333333 Z M11.3333333,3.99866667 C10.966,3.99866667 10.6666667,3.7 10.6666667,3.33333333 C10.6666667,2.96666667 10.966,2.66666667 11.3333333,2.66666667 C11.7006667,2.66666667 12,2.966 12,3.33333333 C12,3.70066667 11.7006667,3.99866667 11.3333333,3.99866667 Z" id="Shape"></path>
                    </g>
                </g>
            </g>
        </g>
    </g>
</svg>