<?xml version="1.0" encoding="UTF-8"?>
<svg width="20px" height="20px" viewBox="0 0 20 20" version="1.1" xmlns="http://www.w3.org/2000/svg" xmlns:xlink="http://www.w3.org/1999/xlink">
    <title>743FD2DB-1C92-49D1-96EA-AF9FF8C91A6F</title>
    <g id="aimedis" stroke="none" stroke-width="1" fill="none" fill-rule="evenodd">
        <g id="UI---Doctor---Appointments-(Calendar---Week)" transform="translate(-1278.000000, -142.000000)">
            <g id="Group-9" transform="translate(232.000000, 120.000000)">
                <g id="Button/Edit" transform="translate(1040.000000, 16.000000)">
                    <g id="calendar-view" transform="translate(6.000000, 6.000000)">
                        <g id="Frame_-_24px">
                            <rect id="Rectangle" x="0" y="0" width="20" height="20"></rect>
                        </g>
                        <g id="Filled_Icons" transform="translate(0.833333, 0.833333)" fill="#00ABAF" fill-rule="nonzero">
                            <path d="M16.6666667,1.66666667 L15,1.66666667 L15,0 L13.3333333,0 L13.3333333,4.16666667 L11.6666667,4.16666667 L11.6666667,1.66666667 L6.66666667,1.66666667 L6.66666667,0 L5,0 L5,4.16666667 L3.33333333,4.16666667 L3.33333333,1.66666667 L1.66666667,1.66666667 C0.7475,1.66666667 0,2.415 0,3.33333333 L0,15.8333333 C0,16.7516667 0.7475,17.5 1.66666667,17.5 L16.6666667,17.5 C17.5858333,17.5 18.3333333,16.7516667 18.3333333,15.8333333 L18.3333333,3.33333333 C18.3333333,2.41416667 17.5858333,1.66666667 16.6666667,1.66666667 Z M5.83333333,15 L2.5,15 L2.5,11.6666667 L5.83333333,11.6666667 L5.83333333,15 Z M5.83333333,10 L2.5,10 L2.5,6.66666667 L5.83333333,6.66666667 L5.83333333,10 Z M10.8333333,15 L7.5,15 L7.5,11.6666667 L10.8333333,11.6666667 L10.8333333,15 Z M10.8333333,10 L7.5,10 L7.5,6.66666667 L10.8333333,6.66666667 L10.8333333,10 Z M15.8333333,10 L12.5,10 L12.5,6.66666667 L15.8333333,6.66666667 L15.8333333,10 Z" id="Shape"></path>
                        </g>
                    </g>
                </g>
            </g>
        </g>
    </g>
</svg>