<svg width="14" height="14" viewBox="0 0 14 14" fill="none" xmlns="http://www.w3.org/2000/svg">
<path fill-rule="evenodd" clip-rule="evenodd" d="M13.6836 3.56465C13.8779 3.66464 14 3.86483 14 4.08334V9.91667C14 10.1352 13.8779 10.3354 13.6836 10.4354C13.4893 10.5353 13.2554 10.5184 13.0776 10.3913L8.99428 7.47468C8.84098 7.36518 8.75 7.18839 8.75 7C8.75 6.81161 8.84098 6.63482 8.99428 6.52532L13.0776 3.60866C13.2554 3.48165 13.4893 3.46467 13.6836 3.56465ZM10.3369 7L12.8333 8.78314V5.21686L10.3369 7Z" fill="#1DD1A1"/>
<path fill-rule="evenodd" clip-rule="evenodd" d="M1.75 3.49999C1.42783 3.49999 1.16667 3.76116 1.16667 4.08333V9.91666C1.16667 10.2388 1.42783 10.5 1.75 10.5H8.16667C8.48883 10.5 8.75 10.2388 8.75 9.91666V4.08333C8.75 3.76116 8.48883 3.49999 8.16667 3.49999H1.75ZM0 4.08333C0 3.11683 0.783502 2.33333 1.75 2.33333H8.16667C9.13317 2.33333 9.91667 3.11683 9.91667 4.08333V9.91666C9.91667 10.8832 9.13317 11.6667 8.16667 11.6667H1.75C0.783502 11.6667 0 10.8832 0 9.91666V4.08333Z" fill="#1DD1A1"/>
</svg>
