<?xml version="1.0" encoding="UTF-8"?>
<svg width="16px" height="16px" viewBox="0 0 16 16" version="1.1" xmlns="http://www.w3.org/2000/svg" xmlns:xlink="http://www.w3.org/1999/xlink">
    <title>2EFF6549-D3AA-4626-B070-D7DEDC640ED5</title>
    <g id="aimedis" stroke="none" stroke-width="1" fill="none" fill-rule="evenodd">
        <g id="UI---Components" transform="translate(-1151.000000, -2472.000000)">
            <g id="Group-11-Copy-4" transform="translate(1127.000000, 2352.000000)">
                <g id="cancel-request" transform="translate(24.000000, 120.000000)">
                    <g id="Frame_-_24px">
                        <rect id="Rectangle" x="0" y="0" width="16" height="16"></rect>
                    </g>
                    <g id="Filled_Icons" transform="translate(1.333333, 1.333333)" fill="#BFC1C1" fill-rule="nonzero">
                        <g id="Group">
                            <path d="M11.826,2.45133333 L7.61,6.66733333 L11.8253333,10.8826667 C12.7666667,9.73333333 13.3333333,8.26533333 13.3333333,6.66666667 C13.3333333,5.068 12.7666667,3.60133333 11.826,2.45133333 Z" id="Path"></path>
                            <path d="M6.66733333,5.72466667 L10.8833333,1.50866667 C9.734,0.566666667 8.26533333,0 6.66666667,0 C5.068,0 3.6,0.566666667 2.45066667,1.508 L6.66733333,5.72466667 Z" id="Path"></path>
                            <path d="M5.72466667,6.66733333 L1.508,2.45133333 C0.566666667,3.6 0,5.068 0,6.66666667 C0,8.26533333 0.566666667,9.73333333 1.508,10.8833333 L5.72466667,6.66733333 Z" id="Path"></path>
                            <path d="M6.66733333,7.61 L2.45066667,11.826 C3.60066667,12.7666667 5.068,13.3333333 6.66666667,13.3333333 C8.26533333,13.3333333 9.73333333,12.7666667 10.8826667,11.826 L6.66733333,7.61 Z" id="Path"></path>
                        </g>
                    </g>
                </g>
            </g>
        </g>
    </g>
</svg>