<?xml version="1.0" encoding="UTF-8"?>
<svg width="16px" height="16px" viewBox="0 0 16 16" version="1.1" xmlns="http://www.w3.org/2000/svg" xmlns:xlink="http://www.w3.org/1999/xlink">
    <title>BD405093-1D2F-44CE-9763-315F21B1F83A</title>
    <g id="aimedis" stroke="none" stroke-width="1" fill="none" fill-rule="evenodd">
        <g id="Dark-Mode---Screen-Example" transform="translate(-826.000000, -281.000000)">
            <g id="Group-11" transform="translate(232.000000, 249.000000)">
                <g id="Group-3" transform="translate(532.000000, 32.000000)">
                    <g id="clock" transform="translate(62.000000, 0.000000)">
                        <g id="Frame_-_24px">
                            <rect id="Rectangle" x="0" y="0" width="16" height="16"></rect>
                        </g>
                        <g id="Line_Icons" transform="translate(2.000000, 2.000000)" fill="#BFC1C1" fill-rule="nonzero">
                            <g id="Group">
                                <path d="M6,0 C2.692,0 0,2.692 0,6 C0,9.308 2.692,12 6,12 C9.308,12 12,9.308 12,6 C12,2.692 9.308,0 6,0 Z M6,10.6666667 C3.42666667,10.6666667 1.33333333,8.57333333 1.33333333,6 C1.33333333,3.42666667 3.42666667,1.33333333 6,1.33333333 C8.57266667,1.33333333 10.6666667,3.42666667 10.6666667,6 C10.6666667,8.57333333 8.57266667,10.6666667 6,10.6666667 Z" id="Shape"></path>
                                <polygon id="Path" points="6.66666667 2.66666667 5.33333333 2.66666667 5.33333333 6.35666667 7.63 7.888 8.37 6.77866667 6.66666667 5.64333333"></polygon>
                            </g>
                        </g>
                    </g>
                </g>
            </g>
        </g>
    </g>
</svg>