<?xml version="1.0" encoding="UTF-8"?>
<svg width="16px" height="16px" viewBox="0 0 16 16" version="1.1" xmlns="http://www.w3.org/2000/svg" xmlns:xlink="http://www.w3.org/1999/xlink">
    <title>4B4F5C4B-2BC7-41B8-817C-21A683EDCBB5</title>
    <g id="UI" stroke="none" stroke-width="1" fill="none" fill-rule="evenodd">
        <g id="Register" transform="translate(-1187.000000, -582.000000)">
            <g id="Group-24" transform="translate(1168.000000, 523.000000)">
                <g id="Group-2" transform="translate(19.000000, 59.000000)">
                    <g id="Icon/Close-Circle">
                        <g>
                            <rect id="Rectangle" x="0" y="0" width="16" height="16"></rect>
                            <path d="M8.028,14.6666667 C4.352,14.6666667 1.36133333,11.676 1.36133333,8 C1.36133333,4.324 4.352,1.33333333 8.028,1.33333333 C11.704,1.33333333 14.6946667,4.324 14.6946667,8 C14.6946667,11.676 11.704,14.6666667 8.028,14.6666667 Z M8.028,2.66666667 C5.08733333,2.66666667 2.69466667,5.05933333 2.69466667,8 C2.69466667,10.9406667 5.08733333,13.3333333 8.028,13.3333333 C10.9686667,13.3333333 13.3613333,10.9406667 13.3613333,8 C13.3613333,5.05933333 10.9686667,2.66666667 8.028,2.66666667 Z" id="Shape" fill="#E50915" fill-rule="nonzero"></path>
                            <polygon id="Path" fill="#E50915" fill-rule="nonzero" points="11.166 5.80466667 10.2226667 4.862 8.028 7.05733333 5.83266667 4.862 4.88933333 5.80466667 7.08466667 8 4.88933333 10.1953333 5.83266667 11.138 8.028 8.94333333 10.2226667 11.138 11.166 10.1953333 8.97066667 8"></polygon>
                        </g>
                    </g>
                </g>
            </g>
        </g>
    </g>
</svg>