<?xml version="1.0" encoding="UTF-8"?>
<svg width="24px" height="24px" viewBox="0 0 24 24" version="1.1" xmlns="http://www.w3.org/2000/svg" xmlns:xlink="http://www.w3.org/1999/xlink">
    <title>B85579CE-AB2E-4867-B9F6-F3A52ED25E43</title>
    <g id="aimedis" stroke="none" stroke-width="1" fill="none" fill-rule="evenodd">
        <g id="Dark-Mode---Screen-Example" transform="translate(-360.000000, -277.000000)">
            <g id="Group-11" transform="translate(232.000000, 249.000000)">
                <g id="condition-diagnosis-family-anamnesis-diary" transform="translate(128.000000, 28.000000)">
                    <circle id="Oval" fill="#FBD4D4" cx="12" cy="12" r="12"></circle>
                    <g id="user-clipboard" transform="translate(4.000000, 4.000000)">
                        <g id="Frame_-_24px">
                            <rect id="Rectangle" x="0" y="0" width="16" height="16"></rect>
                        </g>
                        <g id="Filled_Icons" transform="translate(2.000000, 0.666667)" fill="#EE5253" fill-rule="nonzero">
                            <g id="Group">
                                <path d="M10.6673333,2 L10.0006667,2 L10.0006667,4 L2.00066667,4 L2.00066667,2 L1.334,2 C0.598,2 0.000666666667,2.59733333 0.000666666667,3.33333333 L0.000666666667,12.6666667 C0.000666666667,13.4026667 0.598,14 1.334,14 L10.6673333,14 C11.4033333,14 12.0006667,13.4026667 12.0006667,12.6666667 L12.0006667,3.33333333 C12.0006667,2.59733333 11.4033333,2 10.6673333,2 Z M6.00066667,6 C6.92133333,6 7.66733333,6.746 7.66733333,7.66666667 C7.66733333,8.58733333 6.92133333,9.33333333 6.00066667,9.33333333 C5.08,9.33333333 4.334,8.58733333 4.334,7.66666667 C4.334,6.746 5.08,6 6.00066667,6 Z M3.50066667,12.6666667 C3.50066667,11.1326667 4.46666667,10.1666667 6.00066667,10.1666667 C7.53466667,10.1666667 8.50066667,11.1326667 8.50066667,12.6666667 L3.50066667,12.6666667 Z" id="Shape"></path>
                                <path d="M7.334,1.33333333 C7.334,0.596666667 6.73666667,0 6.00066667,0 C5.26466667,0 4.66733333,0.596666667 4.66733333,1.33333333 L3.334,1.33333333 L3.334,3.33333333 L8.66733333,3.33333333 L8.66733333,1.33333333 L7.334,1.33333333 Z" id="Path"></path>
                            </g>
                        </g>
                    </g>
                </g>
            </g>
        </g>
    </g>
</svg>