<?xml version="1.0" encoding="UTF-8"?>
<svg width="20px" height="20px" viewBox="0 0 20 20" version="1.1" xmlns="http://www.w3.org/2000/svg" xmlns:xlink="http://www.w3.org/1999/xlink">
    <title>D049615B-7E69-4F6F-AD5F-F0B8B6CA825B</title>
    <g id="aimedis" stroke="none" stroke-width="1" fill="none" fill-rule="evenodd">
        <g id="Dark-Mode---Screen-Example" transform="translate(-465.000000, -279.000000)">
            <g id="Group-11" transform="translate(232.000000, 249.000000)">
                <g id="confirmed-diagnosis" transform="translate(233.000000, 30.000000)">
                    <g id="Frame_-_24px">
                        <rect id="Rectangle" x="-0.00166666667" y="0" width="20.0008333" height="20.0008333"></rect>
                    </g>
                    <g id="Filled_Icons" transform="translate(3.333333, 1.666667)" fill="#1DD1A1" fill-rule="nonzero">
                        <path d="M12.8191667,0.0633333333 C12.5066667,-0.0658333333 12.1491667,0.00583333333 11.9108333,0.244166667 C11.09,1.065 10.2808333,1.48083333 9.50666667,1.48083333 C8.23,1.48083333 7.33833333,0.340833333 7.33333333,0.333333333 C7.17666667,0.125 6.93083333,0.00333333333 6.67,0.00166666667 C6.44083333,-0.015 6.1625,0.123333333 6.0025,0.329166667 C5.99416667,0.340833333 5.10333333,1.48083333 3.8275,1.48083333 C3.0525,1.48083333 2.24416667,1.065 1.4225,0.244166667 C1.18333333,0.00583333333 0.825,-0.0658333333 0.514166667,0.0633333333 C0.203333333,0.191666667 0,0.496666667 0,0.833333333 L0,10 C0,13.1733333 5.63583333,16.2325 6.27833333,16.5708333 C6.4,16.635 6.53333333,16.6666667 6.66666667,16.6666667 C6.8,16.6666667 6.93333333,16.635 7.055,16.5708333 C7.6975,16.2325 13.3333333,13.1733333 13.3333333,10 L13.3333333,0.833333333 C13.3333333,0.496666667 13.13,0.191666667 12.8191667,0.0633333333 Z M10,9.16666667 L7.5,9.16666667 L7.5,11.6666667 L5.83333333,11.6666667 L5.83333333,9.16666667 L3.33333333,9.16666667 L3.33333333,7.5 L5.83333333,7.5 L5.83333333,5 L7.5,5 L7.5,7.5 L10,7.5 L10,9.16666667 Z" id="Shape"></path>
                    </g>
                </g>
            </g>
        </g>
    </g>
</svg>