<?xml version="1.0" encoding="UTF-8"?>
<svg width="24px" height="24px" viewBox="0 0 24 24" version="1.1" xmlns="http://www.w3.org/2000/svg" xmlns:xlink="http://www.w3.org/1999/xlink">
    <title>B2C380C6-6EE9-4025-ABBC-39A4D3F268F1</title>
    <g id="aimedis" stroke="none" stroke-width="1" fill="none" fill-rule="evenodd">
        <g id="UI---Patient---My-Profile" transform="translate(-636.000000, -225.000000)">
            <g id="Group-7" transform="translate(232.000000, 48.000000)">
                <g id="Group-5" transform="translate(24.000000, 164.000000)">
                    <g id="copy-copy" transform="translate(380.000000, 13.000000)">
                        <g id="Frame_-_24px">
                            <rect id="Rectangle" x="0" y="0" width="24" height="24"></rect>
                        </g>
                        <g id="Filled_Icons" transform="translate(3.000000, 1.000000)" fill="#BFC1C1" fill-rule="nonzero">
                            <g id="Group">
                                <path d="M13.414,0 L6,0 C4.897,0 4,0.898 4,2 L4,16 C4,17.103 4.897,18 6,18 L16,18 C17.103,18 18,17.103 18,16 L18,4.586 L13.414,0 Z M12,6 L12,1 L17,6 L12,6 Z" id="Shape"></path>
                                <path d="M2,4 L0,4 L0,20 C0,21.103 0.897,22 2,22 L14,22 L14,20 L2,20 L2,4 Z" id="Path"></path>
                            </g>
                        </g>
                    </g>
                </g>
            </g>
        </g>
    </g>
</svg>