<?xml version="1.0" encoding="UTF-8"?>
<svg width="24px" height="24px" viewBox="0 0 24 24" version="1.1" xmlns="http://www.w3.org/2000/svg" xmlns:xlink="http://www.w3.org/1999/xlink">
    <title>7DE339E5-2CE0-4B79-A083-C929545CF3AC</title>
    <g id="aimedis" stroke="none" stroke-width="1" fill="none" fill-rule="evenodd">
        <g id="UI---Components" transform="translate(-345.000000, -6249.000000)">
            <g id="Group-18" transform="translate(64.000000, 3477.000000)">
                <g id="covid-19" transform="translate(281.000000, 2772.000000)">
                    <circle id="Oval" fill="#FBD4D4" cx="12" cy="12" r="12"></circle>
                    <g id="bacteria" transform="translate(4.000000, 4.000000)">
                        <g id="Frame_-_24px">
                            <rect id="Rectangle" x="0" y="0" width="16" height="16"></rect>
                        </g>
                        <g id="Filled_Icons" transform="translate(0.000000, 0.666667)" fill="#EE5253" fill-rule="nonzero">
                            <path d="M13.6973333,6.67 L11.1533333,2.712 L12.1873333,1.41933333 L11.146,0.587333333 L10.0126667,2.00333333 L5.32066667,2.00333333 L4.18733333,0.587333333 L3.146,1.41933333 L4.18,2.712 L1.636,6.67 L0,6.67 L0,8.00333333 L1.636,8.00333333 L4.18,11.9613333 L3.146,13.254 L4.18733333,14.086 L5.32066667,12.67 L10.0133333,12.67 L11.1466667,14.086 L12.188,13.254 L11.154,11.9613333 L13.698,8.00333333 L15.3333333,8.00333333 L15.3333333,6.67 L13.6973333,6.67 Z M6.66666667,8.00333333 C5.562,8.00333333 4.66666667,7.108 4.66666667,6.00333333 C4.66666667,4.89866667 5.562,4.00333333 6.66666667,4.00333333 C7.77133333,4.00333333 8.66666667,4.89866667 8.66666667,6.00333333 C8.66666667,7.108 7.77133333,8.00333333 6.66666667,8.00333333 Z M9.33333333,10.0033333 C8.96533333,10.0033333 8.66666667,9.70466667 8.66666667,9.33666667 C8.66666667,8.96866667 8.96533333,8.67 9.33333333,8.67 C9.70133333,8.67 10,8.96866667 10,9.33666667 C10,9.70466667 9.70133333,10.0033333 9.33333333,10.0033333 Z" id="Shape"></path>
                        </g>
                    </g>
                </g>
            </g>
        </g>
    </g>
</svg>