<svg width="42" height="42" viewBox="0 0 42 42" fill="none" xmlns="http://www.w3.org/2000/svg">
<path d="M0 16C0 8.45753 0 4.68629 2.34315 2.34315C4.68629 0 8.45753 0 16 0H26C33.5425 0 37.3137 0 39.6569 2.34315C42 4.68629 42 8.45753 42 16V26C42 33.5425 42 37.3137 39.6569 39.6569C37.3137 42 33.5425 42 26 42H16C8.45753 42 4.68629 42 2.34315 39.6569C0 37.3137 0 33.5425 0 26V16Z" fill="white"/>
<path fill-rule="evenodd" clip-rule="evenodd" d="M27.7071 27.7071C27.3166 28.0976 26.6834 28.0976 26.2929 27.7071L14.2929 15.7071C13.9024 15.3166 13.9024 14.6834 14.2929 14.2929C14.6834 13.9024 15.3166 13.9024 15.7071 14.2929L27.7071 26.2929C28.0976 26.6834 28.0976 27.3166 27.7071 27.7071Z" fill="#404646"/>
<path fill-rule="evenodd" clip-rule="evenodd" d="M27.7071 14.2929C28.0976 14.6834 28.0976 15.3166 27.7071 15.7071L15.7071 27.7071C15.3166 28.0976 14.6834 28.0976 14.2929 27.7071C13.9024 27.3166 13.9024 26.6834 14.2929 26.2929L26.2929 14.2929C26.6834 13.9024 27.3166 13.9024 27.7071 14.2929Z" fill="#404646"/>
<path d="M2.34315 39.6569L3.05025 38.9497L2.34315 39.6569ZM39.6569 39.6569L38.9497 38.9497L39.6569 39.6569ZM39.6569 2.34315L38.9497 3.05025L39.6569 2.34315ZM2.34315 2.34315L1.63604 1.63604L2.34315 2.34315ZM16 1H26V-1H16V1ZM41 16V26H43V16H41ZM26 41H16V43H26V41ZM1 26V16H-1V26H1ZM16 41C12.2005 41 9.45146 40.9979 7.35507 40.716C5.28745 40.438 4.00506 39.9046 3.05025 38.9497L1.63604 40.364C3.02438 41.7523 4.79918 42.3904 7.08858 42.6982C9.34921 43.0021 12.257 43 16 43V41ZM-1 26C-1 29.743 -1.00212 32.6508 -0.69819 34.9114C-0.390388 37.2008 0.247697 38.9756 1.63604 40.364L3.05025 38.9497C2.09545 37.9949 1.56196 36.7126 1.28398 34.6449C1.00212 32.5485 1 29.7995 1 26H-1ZM41 26C41 29.7995 40.9979 32.5485 40.716 34.6449C40.438 36.7126 39.9046 37.9949 38.9497 38.9497L40.364 40.364C41.7523 38.9756 42.3904 37.2008 42.6982 34.9114C43.0021 32.6508 43 29.743 43 26H41ZM26 43C29.743 43 32.6508 43.0021 34.9114 42.6982C37.2008 42.3904 38.9756 41.7523 40.364 40.364L38.9497 38.9497C37.9949 39.9046 36.7126 40.438 34.6449 40.716C32.5485 40.9979 29.7995 41 26 41V43ZM26 1C29.7995 1 32.5485 1.00212 34.6449 1.28398C36.7126 1.56196 37.9949 2.09545 38.9497 3.05025L40.364 1.63604C38.9756 0.247697 37.2008 -0.390388 34.9114 -0.69819C32.6508 -1.00212 29.743 -1 26 -1V1ZM43 16C43 12.257 43.0021 9.34921 42.6982 7.08858C42.3904 4.79918 41.7523 3.02438 40.364 1.63604L38.9497 3.05025C39.9046 4.00506 40.438 5.28745 40.716 7.35507C40.9979 9.45146 41 12.2005 41 16H43ZM16 -1C12.257 -1 9.34921 -1.00212 7.08858 -0.69819C4.79918 -0.390388 3.02438 0.247697 1.63604 1.63604L3.05025 3.05025C4.00506 2.09545 5.28745 1.56196 7.35507 1.28398C9.45146 1.00212 12.2005 1 16 1V-1ZM1 16C1 12.2005 1.00212 9.45146 1.28398 7.35507C1.56196 5.28745 2.09545 4.00506 3.05025 3.05025L1.63604 1.63604C0.247697 3.02438 -0.390388 4.79918 -0.69819 7.08858C-1.00212 9.34921 -1 12.257 -1 16H1Z" fill="#E5E6E6"/>
</svg>
