<?xml version="1.0" encoding="UTF-8"?>
<svg width="16px" height="16px" viewBox="0 0 16 16" version="1.1" xmlns="http://www.w3.org/2000/svg" xmlns:xlink="http://www.w3.org/1999/xlink">
    <title>03FC3D3E-947D-42CC-9E51-BB17F754C12B</title>
    <g id="aimedis" stroke="none" stroke-width="1" fill="none" fill-rule="evenodd">
        <g id="UI---Components" transform="translate(-1151.000000, -1928.000000)">
            <g id="Group-11-Copy-2" transform="translate(1127.000000, 1904.000000)">
                <g id="details" transform="translate(24.000000, 24.000000)">
                    <g id="Frame_-_24px">
                        <rect id="Rectangle" x="0" y="0" width="16" height="16"></rect>
                    </g>
                    <g id="Filled_Icons" transform="translate(2.666667, 1.333333)" fill="#BFC1C1" fill-rule="nonzero">
                        <path d="M7.60933333,0 L1.33333333,0 C0.598,0 0,0.598666667 0,1.33333333 L0,12 C0,12.7353333 0.598,13.3333333 1.33333333,13.3333333 L9.33333333,13.3333333 C10.0686667,13.3333333 10.6666667,12.7353333 10.6666667,12 L10.6666667,3.05733333 L7.60933333,0 Z M2,6.66666667 L7.33333333,6.66666667 L7.33333333,8 L2,8 L2,6.66666667 Z M8.66666667,10.6666667 L2,10.6666667 L2,9.33333333 L8.66666667,9.33333333 L8.66666667,10.6666667 Z M6.66666667,4 L6.66666667,0.666666667 L10,4 L6.66666667,4 Z" id="Shape"></path>
                    </g>
                </g>
            </g>
        </g>
    </g>
</svg>