<?xml version="1.0" encoding="UTF-8"?>
<svg width="16px" height="16px" viewBox="0 0 16 16" version="1.1" xmlns="http://www.w3.org/2000/svg" xmlns:xlink="http://www.w3.org/1999/xlink">
    <title>7805ABB0-F83A-49ED-A218-61522CCDD420</title>
    <g id="aimedis" stroke="none" stroke-width="1" fill="none" fill-rule="evenodd">
        <g id="UI---Doctor---My-Profile-(-Services-&amp;-Appointments)" transform="translate(-572.000000, -1120.000000)">
            <g id="Group-16-Copy" transform="translate(288.000000, 1022.000000)">
                <g id="copy" transform="translate(284.000000, 98.000000)">
                    <g id="Frame_-_24px">
                        <rect id="Rectangle" x="0" y="0" width="16" height="16"></rect>
                    </g>
                    <g id="Filled_Icons" transform="translate(2.000000, 0.666667)" fill="#BFC1C1" fill-rule="nonzero">
                        <g id="Group">
                            <path d="M8.94266667,0 L4,0 C3.26466667,0 2.66666667,0.598666667 2.66666667,1.33333333 L2.66666667,10.6666667 C2.66666667,11.402 3.26466667,12 4,12 L10.6666667,12 C11.402,12 12,11.402 12,10.6666667 L12,3.05733333 L8.94266667,0 Z M8,4 L8,0.666666667 L11.3333333,4 L8,4 Z" id="Shape"></path>
                            <path d="M1.33333333,2.66666667 L0,2.66666667 L0,13.3333333 C0,14.0686667 0.598,14.6666667 1.33333333,14.6666667 L9.33333333,14.6666667 L9.33333333,13.3333333 L1.33333333,13.3333333 L1.33333333,2.66666667 Z" id="Path"></path>
                        </g>
                    </g>
                </g>
            </g>
        </g>
    </g>
</svg>