<?xml version="1.0" encoding="UTF-8"?>
<svg width="24px" height="24px" viewBox="0 0 24 24" version="1.1" xmlns="http://www.w3.org/2000/svg" xmlns:xlink="http://www.w3.org/1999/xlink">
    <title>F57B0CD3-A509-420B-A783-8D48E8F4DDA2</title>
    <g id="aimedis" stroke="none" stroke-width="1" fill="none" fill-rule="evenodd">
        <g id="UI---Components" transform="translate(-602.000000, -6150.000000)">
            <g id="Group-18" transform="translate(64.000000, 3477.000000)">
                <g id="doctor-appointments-second-anamnesis" transform="translate(538.000000, 2673.000000)">
                    <circle id="Oval" fill="#ECCAFF" cx="12" cy="12" r="12"></circle>
                    <g id="doctor" transform="translate(4.000000, 4.000000)">
                        <g id="Frame_-_24px">
                            <rect id="Rectangle" x="0" y="0" width="16" height="16"></rect>
                        </g>
                        <g id="Group" transform="translate(2.666667, 0.000000)" fill="#8C00DB">
                            <path d="M10.6666667,13.3333333 C10.6666667,10.978 8.47333333,9.33333333 5.33333333,9.33333333 C2.19266667,9.33333333 0,10.978 0,13.3333333 L0,16 L10.6666667,16 L10.6666667,13.3333333 Z M8.66666667,13.3333333 L7.33333333,13.3333333 L7.33333333,14.6666667 L6,14.6666667 L6,13.3333333 L4.66666667,13.3333333 L4.66666667,12 L6,12 L6,10.6666667 L7.33333333,10.6666667 L7.33333333,12 L8.66666667,12 L8.66666667,13.3333333 Z" id="Shape"></path>
                            <path d="M5.33333333,8.66666667 C3.49533333,8.66666667 2,7.17133333 2,5.33333333 L3.33333333,5.33333333 C3.33333333,6.436 4.23066667,7.33333333 5.33333333,7.33333333 C6.436,7.33333333 7.33333333,6.436 7.33333333,5.33333333 L8.66666667,5.33333333 C8.66666667,7.17133333 7.17133333,8.66666667 5.33333333,8.66666667 Z" id="Path"></path>
                            <path d="M8.59,2.66666667 C8.48666667,2.184 8.28533333,1.73733333 8,1.354 L8,1.33333333 L7.98333333,1.33333333 C7.374,0.528666667 6.418,0 5.33333333,0 C4.24866667,0 3.29266667,0.528666667 2.68333333,1.33333333 L2.66666667,1.33333333 L2.66666667,1.354 C2.38133333,1.73733333 2.17933333,2.184 2.07666667,2.66666667 L1.33333333,2.66666667 L1.33333333,4 L3.456,4 C3.73133333,4.77466667 4.46333333,5.33333333 5.33333333,5.33333333 C6.20333333,5.33333333 6.93533333,4.77466667 7.21066667,4 L9.33333333,4 L9.33333333,2.66666667 L8.59,2.66666667 Z M5.33333333,4.33333333 C4.78133333,4.33333333 4.33333333,3.88533333 4.33333333,3.33333333 C4.33333333,2.78133333 4.78133333,2.33333333 5.33333333,2.33333333 C5.88533333,2.33333333 6.33333333,2.78133333 6.33333333,3.33333333 C6.33333333,3.88533333 5.88533333,4.33333333 5.33333333,4.33333333 Z" id="Shape"></path>
                        </g>
                    </g>
                </g>
            </g>
        </g>
    </g>
</svg>