<?xml version="1.0" encoding="UTF-8"?>
<svg width="16px" height="16px" viewBox="0 0 16 16" version="1.1" xmlns="http://www.w3.org/2000/svg" xmlns:xlink="http://www.w3.org/1999/xlink">
    <title>A035F8D0-96FC-45C6-A33C-7BDA81F8D03B</title>
    <g id="aimedis" stroke="none" stroke-width="1" fill="none" fill-rule="evenodd">
        <g id="UI---Doctor---Patients-(Personal-info)" transform="translate(-542.000000, -360.000000)">
            <g id="email" transform="translate(542.000000, 360.000000)">
                <g id="Frame_-_24px">
                    <rect id="Rectangle" x="0" y="-0.000666666667" width="16" height="16"></rect>
                </g>
                <g id="Filled_Icons" transform="translate(1.333333, 3.333333)" fill="#7F8383" fill-rule="nonzero">
                    <g id="Group">
                        <path d="M6.66666667,3.882 L12.6433333,0.173333333 C12.4513333,0.0666666667 12.2346667,5.92118946e-16 12,5.92118946e-16 L1.33333333,5.92118946e-16 C1.09866667,5.92118946e-16 0.881333333,0.0666666667 0.69,0.173333333 L6.66666667,3.882 Z" id="Path"></path>
                        <path d="M7.018,5.23266667 C6.91066667,5.29933333 6.78866667,5.33333333 6.66666667,5.33333333 C6.54466667,5.33333333 6.42266667,5.29933333 6.31533333,5.23333333 L0.002,1.31533333 C0.002,1.32133333 0,1.32733333 0,1.33266667 L0,7.33266667 C0,8.06733333 0.598,8.666 1.33333333,8.666 L12,8.666 C12.7353333,8.666 13.3333333,8.06733333 13.3333333,7.33266667 L13.3333333,1.33266667 C13.3333333,1.32666667 13.3313333,1.32066667 13.3313333,1.31466667 L7.018,5.23266667 Z" id="Path"></path>
                    </g>
                </g>
            </g>
        </g>
    </g>
</svg>