<?xml version="1.0" encoding="UTF-8"?>
<svg width="24px" height="24px" viewBox="0 0 24 24" version="1.1" xmlns="http://www.w3.org/2000/svg" xmlns:xlink="http://www.w3.org/1999/xlink">
    <title>79275B1B-5A2B-46C6-A727-1E8CEE71D4F6</title>
    <g id="aimedis" stroke="none" stroke-width="1" fill="none" fill-rule="evenodd">
        <g id="UI---Components" transform="translate(-283.000000, -5871.000000)">
            <g id="Group-18" transform="translate(64.000000, 3477.000000)">
                <g id="Nav-Trackers/Inactive" transform="translate(199.000000, 2386.000000)">
                    <g id="nav-emergency-access" transform="translate(20.000000, 8.000000)">
                        <g id="Frame_-_24px">
                            <rect id="Rectangle" x="-0.001" y="0" width="24.001" height="24.001"></rect>
                        </g>
                        <g id="Line_Icons" transform="translate(2.000000, 4.000000)" fill="#BFC1C1" fill-rule="nonzero">
                            <g id="Group">
                                <path d="M18,2 L12,2 C12,0.896 11.104,0 10,0 C8.896,0 8,0.896 8,2 C6.896,2 6,2.898 6,4 L6,5 L4,5 C3.734,5 3.48,5.106 3.293,5.293 L0.293,8.293 C0.105,8.48 0,8.735 0,9 L0,15 C0,15.552 0.447,16 1,16 L3.185,16 C3.599,17.162 4.698,18 6,18 C7.302,18 8.401,17.162 8.816,16 L12.184,16 C12.598,17.162 13.698,18 14.999,18 C16.3,18 17.4,17.162 17.815,16 L19,16 C19.553,16 20,15.552 20,15 L20,4 C20,2.898 19.104,2 18,2 Z M18,4 L18,14 L17.816,14 C17.401,12.838 16.301,12 15,12 C13.699,12 12.599,12.838 12.185,14 L8.817,14 C8.647,13.526 8.367,13.11 8.001,12.781 L8.001,4 L18,4 Z M2,9.415 L4.414,7 L6,7 L6,12 C4.698,12 3.599,12.838 3.185,14 L2,14 L2,9.415 Z M6,16 C5.449,16 5,15.552 5,15 C5,14.448 5.449,14 6,14 C6.551,14 7,14.448 7,15 C7,15.552 6.551,16 6,16 Z M15,16 C14.449,16 14,15.552 14,15 C14,14.448 14.449,14 15,14 C15.551,14 16,14.448 16,15 C16,15.552 15.551,16 15,16 Z" id="Shape"></path>
                                <polygon id="Path" points="12 11 14 11 14 9 16 9 16 7 14 7 14 5 12 5 12 7 10 7 10 9 12 9"></polygon>
                                <rect id="Rectangle" x="3" y="9" width="2" height="2"></rect>
                            </g>
                        </g>
                    </g>
                </g>
            </g>
        </g>
    </g>
</svg>