<?xml version="1.0" encoding="UTF-8"?>
<svg width="24px" height="24px" viewBox="0 0 24 24" version="1.1" xmlns="http://www.w3.org/2000/svg" xmlns:xlink="http://www.w3.org/1999/xlink">
    <title>B49F0389-1AEF-42C8-B1A7-F34DAD5C3774</title>
    <g id="aimedis" stroke="none" stroke-width="1" fill="none" fill-rule="evenodd">
        <g id="UI---Patient---Journal-(Graphs)" transform="translate(-1137.000000, -256.000000)">
            <g id="expand" transform="translate(1137.000000, 256.000000)">
                <g id="Frame_-_24px">
                    <rect id="Rectangle" x="0" y="0.001" width="24" height="24"></rect>
                </g>
                <g id="Line_Icons" transform="translate(2.000000, 2.000000)" fill="#BFC1C1" fill-rule="nonzero">
                    <g id="Group">
                        <polygon id="Path" points="12.707 8.707 18 3.414 18 6 20 6 20 0 14 0 14 2 16.586 2 11.293 7.293"></polygon>
                        <polygon id="Path" points="6 18 3.414 18 8.707 12.707 7.293 11.293 2 16.586 2 14 0 14 0 20 6 20"></polygon>
                        <polygon id="Path" points="2 3.414 7.293 8.707 8.707 7.293 3.414 2 6 2 6 0 0 0 0 6 2 6"></polygon>
                        <polygon id="Path" points="14 18 14 20 20 20 20 14 18 14 18 16.586 12.707 11.293 11.293 12.707 16.586 18"></polygon>
                    </g>
                </g>
            </g>
        </g>
    </g>
</svg>