<?xml version="1.0" encoding="UTF-8"?>
<svg width="751px" height="568px" viewBox="0 0 751 568" version="1.1" xmlns="http://www.w3.org/2000/svg" xmlns:xlink="http://www.w3.org/1999/xlink">
    <title>80052FD8-51E2-49FD-A309-3A581683BC4E</title>
    <defs>
        <linearGradient x1="50%" y1="64.4419322%" x2="85.2847985%" y2="13.70743%" id="linearGradient-1">
            <stop stop-color="#00B0DB" offset="0%"></stop>
            <stop stop-color="#00ACB9" offset="33.4228443%"></stop>
            <stop stop-color="#00AAA6" offset="100%"></stop>
        </linearGradient>
    </defs>
    <g id="UI" stroke="none" stroke-width="1" fill="none" fill-rule="evenodd" opacity="0.320145089">
        <g id="Register" transform="translate(-580.000000, -329.000000)">
            <g id="Group-8-Copy" transform="translate(503.000000, 235.000000)">
                <path d="M91.4976985,284.787617 C128.395685,240.363447 295.477803,196.931552 376.725743,187.153206 C457.973684,177.37486 784.488973,138.855308 830.539029,338.892517 C876.589085,538.929726 750.14943,699.399726 648.398463,676.049952 C488.729464,639.409171 415.535675,561.887114 312.332892,551.204374 C58.8779168,524.96871 54.5997116,329.211787 91.4976985,284.787617 Z" id="Path-2" fill="#D2F0F3" transform="translate(457.500000, 428.000000) rotate(-36.000000) translate(-457.500000, -428.000000) "></path>
                <path d="M182.610294,320.438901 C210.322897,287.073681 335.811601,254.45372 396.833683,247.109595 C457.855765,239.76547 703.088354,210.834973 737.674711,361.07493 C772.261069,511.314886 677.297295,631.837491 600.876209,614.300409 C480.955203,586.780982 425.982272,528.557262 348.470785,520.533883 C158.110879,500.829324 154.89769,353.80412 182.610294,320.438901 Z" id="Path-2" fill="url(#linearGradient-1)" transform="translate(457.500000, 428.000000) rotate(-36.000000) translate(-457.500000, -428.000000) "></path>
            </g>
        </g>
    </g>
</svg>