<?xml version="1.0" encoding="UTF-8"?>
<svg width="22px" height="22px" viewBox="0 0 22 22" version="1.1" xmlns="http://www.w3.org/2000/svg" xmlns:xlink="http://www.w3.org/1999/xlink">
    <title>E0510EA7-B397-4A66-BA2E-A257878821E4</title>
    <g id="UI" stroke="none" stroke-width="1" fill="none" fill-rule="evenodd">
        <g id="Components" transform="translate(-147.000000, -3891.000000)">
            <g id="hide" transform="translate(147.000000, 3891.000000)">
                <polygon id="Path" points="0 0 22 0 22 22 0 22"></polygon>
                <g id="Group" transform="translate(2.000000, 3.000000)" fill="#999999" fill-rule="nonzero">
                    <path d="M13.7715741,4.49791667 L17.084213,1.18606481 L15.9713426,0.0731944444 L0.646944444,15.3960185 L1.75981481,16.5096759 L5.82643519,12.4422685 C6.70476852,12.7728241 7.65157407,12.9853241 8.65740741,12.9853241 C13.6566667,12.9853241 17.3148148,7.86958333 17.3148148,7.86958333 C17.3148148,7.86958333 15.9563889,5.98069444 13.7715741,4.49791667 Z M8.65740741,11.0185185 C8.24106481,11.0185185 7.84597222,10.9335185 7.48236111,10.7871296 L11.5733796,6.69611111 C11.7205556,7.05893519 11.8055556,7.45402778 11.8055556,7.87037037 C11.8055556,9.60972222 10.3959722,11.0185185 8.65740741,11.0185185 Z" id="Shape"></path>
                    <path d="M2.97893519,10.838287 L5.54546296,8.27175926 C5.52736111,8.13953704 5.50925926,8.00731481 5.50925926,7.87037037 C5.50925926,6.13101852 6.91884259,4.72222222 8.65740741,4.72222222 C8.79435185,4.72222222 8.92657407,4.74032407 9.0587963,4.75842593 L10.7548611,3.06236111 C10.0890278,2.87268519 9.39013889,2.75462963 8.65740741,2.75462963 C3.65814815,2.75462963 0,7.87037037 0,7.87037037 C0,7.87037037 1.12625,9.43814815 2.97893519,10.838287 Z" id="Path"></path>
                </g>
            </g>
        </g>
    </g>
</svg>