<?xml version="1.0" encoding="UTF-8"?>
<svg width="24px" height="24px" viewBox="0 0 24 24" version="1.1" xmlns="http://www.w3.org/2000/svg" xmlns:xlink="http://www.w3.org/1999/xlink">
    <title>BFE85B5F-975B-4325-BFD8-C77FCCC56CB2</title>
    <g id="aimedis" stroke="none" stroke-width="1" fill="none" fill-rule="evenodd">
        <g id="UI---Components" transform="translate(-602.000000, -6247.000000)">
            <g id="Group-18" transform="translate(64.000000, 3477.000000)">
                <g id="hospital-visit" transform="translate(538.000000, 2770.000000)">
                    <circle id="Oval" fill="#ECCAFF" cx="12" cy="12" r="12"></circle>
                    <g id="hospital" transform="translate(4.000000, 4.000000)">
                        <rect id="Rectangle" x="0" y="0.000666666667" width="16" height="16.0006667"></rect>
                        <path d="M13.3333333,1.33333333 L2.66666667,1.33333333 C1.93133333,1.33333333 1.33333333,1.932 1.33333333,2.66666667 L1.33333333,13.3333333 C1.33333333,14.0686667 1.93133333,14.6666667 2.66666667,14.6666667 L13.3333333,14.6666667 C14.0693333,14.6666667 14.6666667,14.0686667 14.6666667,13.3333333 L14.6666667,2.66666667 C14.6666667,1.932 14.0693333,1.33333333 13.3333333,1.33333333 Z M11.3333333,11.3333333 L8.66666667,11.3333333 L8.66666667,9.33333333 L7.33333333,9.33333333 L7.33333333,11.3333333 L4.66666667,11.3333333 L4.66666667,4.66666667 L7.33333333,4.66666667 L7.33333333,6.66666667 L8.66666667,6.66666667 L8.66666667,4.66666667 L11.3333333,4.66666667 L11.3333333,11.3333333 Z" id="Shape" fill="#8C00DB"></path>
                    </g>
                </g>
            </g>
        </g>
    </g>
</svg>