<?xml version="1.0" encoding="UTF-8"?>
<svg width="16px" height="16px" viewBox="0 0 16 16" version="1.1" xmlns="http://www.w3.org/2000/svg" xmlns:xlink="http://www.w3.org/1999/xlink">
    <title>0997C1C8-938A-4BF4-9036-3E36B1482D62</title>
    <g id="aimedis" stroke="none" stroke-width="1" fill="none" fill-rule="evenodd">
        <g id="UI---Paramedic---Home-Screen" transform="translate(-715.000000, -223.000000)">
            <g id="Group-26" transform="translate(586.000000, 80.000000)">
                <g id="Group-7-Copy-2" transform="translate(32.000000, 143.000000)">
                    <g id="important-notice" transform="translate(97.000000, 0.000000)">
                        <g id="Frame_-_24px">
                            <rect id="Rectangle" x="0" y="0.000666666667" width="16" height="16"></rect>
                        </g>
                        <g id="Filled_Icons" transform="translate(1.333333, 1.333333)" fill="#976901" fill-rule="nonzero">
                            <path d="M13.2633333,12.3686667 L7.26333333,0.368666667 C7.03733333,-0.0826666667 6.29666667,-0.0826666667 6.07066667,0.368666667 L0.0706666667,12.3686667 C-0.032,12.5753333 -0.022,12.82 0.1,13.018 C0.221333333,13.214 0.435333333,13.3333333 0.666666667,13.3333333 L12.6666667,13.3333333 C12.898,13.3333333 13.112,13.2133333 13.234,13.0173333 C13.3553333,12.82 13.366,12.576 13.2633333,12.3686667 Z M6,5.33333333 L7.33333333,5.33333333 L7.33333333,9.33333333 L6,9.33333333 L6,5.33333333 Z M6.66666667,11.5 C6.20666667,11.5 5.83333333,11.1273333 5.83333333,10.6666667 C5.83333333,10.2066667 6.20666667,9.83333333 6.66666667,9.83333333 C7.12666667,9.83333333 7.5,10.2066667 7.5,10.6666667 C7.5,11.1273333 7.12666667,11.5 6.66666667,11.5 Z" id="Shape"></path>
                        </g>
                    </g>
                </g>
            </g>
        </g>
    </g>
</svg>