<?xml version="1.0" encoding="UTF-8"?>
<svg width="16px" height="16px" viewBox="0 0 16 16" version="1.1" xmlns="http://www.w3.org/2000/svg" xmlns:xlink="http://www.w3.org/1999/xlink">
    <title>F1EE7D3F-E5B7-463C-8F93-092835D674FF</title>
    <g id="aimedis" stroke="none" stroke-width="1" fill="none" fill-rule="evenodd">
        <g id="UI---Doctor---Patients-(Personal-info)" transform="translate(-754.000000, -588.000000)">
            <g id="Group-11-Copy-7" transform="translate(730.000000, 564.000000)">
                <g id="journal" transform="translate(24.000000, 24.000000)">
                    <g id="Frame_-_24px">
                        <rect id="Rectangle" x="0" y="0.002" width="16" height="16"></rect>
                    </g>
                    <g id="Filled_Icons" transform="translate(2.000000, 1.333333)" fill="#BFC1C1" fill-rule="nonzero">
                        <g id="Group">
                            <path d="M10.6666667,0.000666666667 L1.33333333,0.000666666667 C0.598,0.000666666667 0,0.599333333 0,1.334 L0,2.66733333 C0,3.402 0.598,4.00066667 1.33333333,4.00066667 L10.6666667,4.00066667 C11.4026667,4.00066667 12,3.402 12,2.66733333 L12,1.334 C12,0.599333333 11.4026667,0.000666666667 10.6666667,0.000666666667 Z" id="Path"></path>
                            <path d="M10.6666667,4.66733333 L1.33333333,4.66733333 C0.598,4.66733333 0,5.266 0,6.00066667 L0,7.334 C0,8.06866667 0.598,8.66733333 1.33333333,8.66733333 L10.6666667,8.66733333 C11.4026667,8.66733333 12,8.06866667 12,7.334 L12,6.00066667 C12,5.266 11.4026667,4.66733333 10.6666667,4.66733333 Z" id="Path"></path>
                            <path d="M10.6666667,9.334 L1.33333333,9.334 C0.598,9.334 0,9.93266667 0,10.6673333 L0,12.0006667 C0,12.736 0.598,13.334 1.33333333,13.334 L10.6666667,13.334 C11.4026667,13.334 12,12.736 12,12.0006667 L12,10.6673333 C12,9.93266667 11.4026667,9.334 10.6666667,9.334 Z" id="Path"></path>
                        </g>
                    </g>
                </g>
            </g>
        </g>
    </g>
</svg>