<?xml version="1.0" encoding="UTF-8"?>
<svg width="24px" height="24px" viewBox="0 0 24 24" version="1.1" xmlns="http://www.w3.org/2000/svg" xmlns:xlink="http://www.w3.org/1999/xlink">
    <title>2BDD26DA-9EE1-4990-B597-49A38FABB95A</title>
    <g id="aimedis" stroke="none" stroke-width="1" fill="none" fill-rule="evenodd">
        <g id="UI---Components" transform="translate(-88.000000, -6290.000000)">
            <g id="Group-18" transform="translate(64.000000, 3477.000000)">
                <g id="laboratory-result" transform="translate(24.000000, 2813.000000)">
                    <circle id="Oval" fill="#B4ECF8" cx="12" cy="12" r="12"></circle>
                    <g id="beaker-science" transform="translate(4.000000, 4.000000)">
                        <g id="Frame_-_24px">
                            <rect id="Rectangle" x="0" y="0" width="16" height="16"></rect>
                        </g>
                        <g id="Filled_Icons" transform="translate(1.333333, 0.666667)" fill="#00B0DB" fill-rule="nonzero">
                            <g id="Group">
                                <path d="M3.33333333,2.67 L10,2.67 C10.368,2.67 10.6666667,2.37133333 10.6666667,2.00333333 L10.6666667,0.67 C10.6666667,0.302 10.368,0.00333333333 10,0.00333333333 L3.33333333,0.00333333333 C2.96533333,0.00333333333 2.66666667,0.302 2.66666667,0.67 L2.66666667,2.00333333 C2.66666667,2.37133333 2.96533333,2.67 3.33333333,2.67 Z" id="Path"></path>
                                <path d="M12.9406667,12.1486667 L9.33333333,7.764 L9.33333333,3.33666667 L8,3.33666667 L8,4.00333333 L6.66666667,4.00333333 L6.66666667,5.33666667 L8,5.33666667 L8,6.00333333 L6,6.00333333 L6,7.33666667 L8,7.33666667 L8,8.00333333 C8,8.15733333 8.054,8.30733333 8.152,8.42733333 L9.99933333,10.67 L3.33533333,10.67 L5.18133333,8.42733333 C5.27933333,8.30733333 5.33333333,8.15733333 5.33333333,8.00333333 L5.33333333,3.33666667 L4,3.33666667 L4,7.76466667 L0.361333333,12.1906667 C-0.068,12.804 -0.119333333,13.5966667 0.226,14.2606667 C0.571333333,14.9246667 1.25133333,15.3366667 2,15.3366667 L11.3333333,15.3366667 C12.082,15.3366667 12.762,14.9246667 13.1073333,14.2606667 C13.4526667,13.5966667 13.4013333,12.804 12.9406667,12.1486667 Z" id="Path"></path>
                            </g>
                        </g>
                    </g>
                </g>
            </g>
        </g>
    </g>
</svg>