<?xml version="1.0" encoding="UTF-8"?>
<svg width="16px" height="16px" viewBox="0 0 16 16" version="1.1" xmlns="http://www.w3.org/2000/svg" xmlns:xlink="http://www.w3.org/1999/xlink">
    <title>7D4CCAEA-0E7B-4CCE-9E38-943BE277EADB</title>
    <g id="aimedis" stroke="none" stroke-width="1" fill="none" fill-rule="evenodd">
        <g id="UI---Patient---Appointments---Arrange-(Location-allowed)" transform="translate(-524.000000, -404.000000)">
            <g id="Group-23" transform="translate(240.000000, 80.000000)">
                <g id="Group-22" transform="translate(0.000000, 204.000000)">
                    <g id="Group-19" transform="translate(284.000000, 0.000000)">
                        <g id="Group-18" transform="translate(0.000000, 36.000000)">
                            <g id="language" transform="translate(0.000000, 84.000000)">
                                <g id="Frame_-_24px">
                                    <rect id="Rectangle" x="0.000666666667" y="0.000666666667" width="16" height="16.0006667"></rect>
                                </g>
                                <g id="Filled_Icons" transform="translate(1.333333, 1.333333)" fill="#7F8383" fill-rule="nonzero">
                                    <path d="M9.33333333,0.558666667 L9.33333333,2.66666667 L7.33333333,2.66666667 L7.33333333,4.66666667 L9.33333333,4.66666667 L9.33333333,6.66666667 L7.33333333,7.33333333 L6,10.6666667 L2.66666667,8.66666667 L2.66666667,4.66666667 L4.66666667,3.33333333 L4.66666667,0.306 C1.962,1.156 0,3.682 0,6.66666667 C0,10.348 2.98466667,13.3333333 6.66666667,13.3333333 C10.3486667,13.3333333 13.3333333,10.348 13.3333333,6.66666667 C13.3333333,3.93333333 11.6866667,1.58733333 9.33333333,0.558666667 Z" id="Path"></path>
                                </g>
                            </g>
                        </g>
                    </g>
                </g>
            </g>
        </g>
    </g>
</svg>