<?xml version="1.0" encoding="UTF-8"?>
<svg width="24px" height="24px" viewBox="0 0 24 24" version="1.1" xmlns="http://www.w3.org/2000/svg" xmlns:xlink="http://www.w3.org/1999/xlink">
    <title>F31DADD2-A5C5-49C4-970E-BE0BF710BE66</title>
    <g id="aimedis" stroke="none" stroke-width="1" fill="none" fill-rule="evenodd">
        <g id="UI---Components" transform="translate(-345.000000, -6290.000000)">
            <g id="Group-18" transform="translate(64.000000, 3477.000000)">
                <g id="medication" transform="translate(281.000000, 2813.000000)">
                    <circle id="Oval" fill="#FBD4D4" cx="12" cy="12" r="12"></circle>
                    <g id="health-capsule" transform="translate(4.000000, 4.000000)">
                        <g id="Frame_-_24px">
                            <rect id="Rectangle" x="0" y="0.000666666667" width="16" height="16.0006667"></rect>
                        </g>
                        <g id="Filled_Icons" transform="translate(0.666667, 1.333333)" fill="#EE5253" fill-rule="nonzero">
                            <g id="Group">
                                <path d="M7.25266667,3.724 L8.19533333,4.66733333 C8.71466667,4.148 9.56133333,4.148 10.0806667,4.66733333 L11.0233333,3.724 C9.98466667,2.68533333 8.292,2.68533333 7.25266667,3.724 Z" id="Path"></path>
                                <path d="M12.276,1.724 C11.3946667,0.842666667 10.28,0.356666667 9.138,0.356666667 C7.99533333,0.356666667 6.88066667,0.842 6,1.724 L2,5.724 C1.11866667,6.60533333 0.632666667,7.71933333 0.632666667,8.862 C0.632666667,10.004 1.11866667,11.1186667 2,12 C2.88133333,12.882 3.996,13.3666667 5.138,13.3666667 C6.28133333,13.3666667 7.39533333,12.8813333 8.276,12 L12.276,8 C13.1573333,7.11866667 13.6433333,6.00466667 13.6433333,4.862 C13.6433333,3.71933333 13.1573333,2.60533333 12.276,1.724 Z M11.3333333,7.05733333 L10,8.39066667 L5.60933333,4 L6.94266667,2.66666667 C7.58133333,2.028 8.34,1.69 9.138,1.69 C9.93466667,1.69 10.694,2.028 11.3333333,2.66666667 C11.9726667,3.30533333 12.31,4.06466667 12.31,4.862 C12.31,5.65933333 11.9726667,6.41866667 11.3333333,7.05733333 Z" id="Shape"></path>
                            </g>
                        </g>
                    </g>
                </g>
            </g>
        </g>
    </g>
</svg>