<?xml version="1.0" encoding="UTF-8"?>
<svg width="24px" height="24px" viewBox="0 0 24 24" version="1.1" xmlns="http://www.w3.org/2000/svg" xmlns:xlink="http://www.w3.org/1999/xlink">
    <title>5D961BB2-8BE2-49FD-A419-4A296AE11F7C</title>
    <g id="aimedis" stroke="none" stroke-width="1" fill="none" fill-rule="evenodd">
        <g id="UI---Components" transform="translate(-100.000000, -10308.000000)">
            <g id="Group-18" transform="translate(64.000000, 3477.000000)">
                <g id="smiley-smile-2" transform="translate(36.000000, 6831.000000)">
                    <g id="Frame_-_24px">
                        <rect id="Rectangle" x="0" y="0" width="24" height="24"></rect>
                    </g>
                    <g id="Filled_Icons" transform="translate(2.000000, 2.000000)" fill="#72CA2E" fill-rule="nonzero">
                        <path d="M10,0 C4.477,0 0,4.477 0,10 C0,15.522 4.477,20 10,20 C15.523,20 20,15.522 20,10 C20,4.477 15.522,0 10,0 Z M4,6 L8,6 L8,8 L4,8 L4,6 Z M10,17 C7.609,17 5.412,15.868 4,14.043 L5.559,12.486 C6.555,13.92 8.196,14.831 10,14.831 C11.809,14.831 13.447,13.92 14.443,12.481 L16,14.04 C14.59,15.867 12.396,17 10,17 Z M16,8 L12,8 L12,6 L16,6 L16,8 Z" id="Shape"></path>
                    </g>
                </g>
            </g>
        </g>
    </g>
</svg>