<?xml version="1.0" encoding="UTF-8"?>
<svg width="24px" height="24px" viewBox="0 0 24 24" version="1.1" xmlns="http://www.w3.org/2000/svg" xmlns:xlink="http://www.w3.org/1999/xlink">
    <title>704678E2-8972-447E-B199-297F6BC67A4B</title>
    <g id="aimedis" stroke="none" stroke-width="1" fill="none" fill-rule="evenodd">
        <g id="UI---Components" transform="translate(-132.000000, -10308.000000)">
            <g id="Group-18" transform="translate(64.000000, 3477.000000)">
                <g id="smiley-poker-face" transform="translate(68.000000, 6831.000000)">
                    <g id="Frame_-_24px">
                        <rect id="Rectangle" x="0" y="0" width="24" height="24"></rect>
                    </g>
                    <g id="Filled_Icons" transform="translate(2.000000, 2.000000)" fill="#FECA57" fill-rule="nonzero">
                        <path d="M10,0 C4.477,0 0,4.477 0,10 C0,15.522 4.477,20 10,20 C15.523,20 20,15.522 20,10 C20,4.477 15.522,0 10,0 Z M12,5 L14,5 L14,9 L12,9 L12,5 Z M6,5 L8,5 L8,9 L6,9 L6,5 Z M15,15 L5,15 L5,13 L15,13 L15,15 Z" id="Shape"></path>
                    </g>
                </g>
            </g>
        </g>
    </g>
</svg>