<?xml version="1.0" encoding="UTF-8"?>
<svg width="24px" height="24px" viewBox="0 0 24 24" version="1.1" xmlns="http://www.w3.org/2000/svg" xmlns:xlink="http://www.w3.org/1999/xlink">
    <title>41679A46-AE67-4819-90AD-600946864705</title>
    <g id="aimedis" stroke="none" stroke-width="1" fill="none" fill-rule="evenodd">
        <g id="UI---Components" transform="translate(-470.000000, -5763.000000)">
            <g id="Group-18" transform="translate(64.000000, 3477.000000)">
                <g id="Nav-Appointments/Inactive" transform="translate(377.000000, 2278.000000)">
                    <g id="Group-Copy" transform="translate(21.000000, 0.000000)">
                        <g id="nav-appointments" transform="translate(8.000000, 8.000000)">
                            <rect id="Rectangle" x="0" y="0" width="24" height="24"></rect>
                            <path d="M21,3 L18,3 L18,1 L16,1 L16,7 L18,7 L18,5 L21,5 L21,20 L3,20 L3,5 L5,5 L5,3 L3,3 C1.896,3 1,3.895 1,5 L1,20 C1,21.104 1.896,22 3,22 L21,22 C22.104,22 23,21.104 23,20 L23,5 C23,3.895 22.104,3 21,3 Z" id="Path" fill="#BFC1C1" fill-rule="nonzero"></path>
                            <g id="Group" transform="translate(5.000000, 1.000000)" fill="#BFC1C1" fill-rule="nonzero">
                                <polygon id="Path" points="3 4 10 4 10 2 3 2 3 0 1 0 1 6 3 6"></polygon>
                                <rect id="Rectangle" x="0" y="8" width="4" height="4"></rect>
                                <rect id="Rectangle" x="5" y="8" width="4" height="4"></rect>
                                <rect id="Rectangle" x="10" y="8" width="4" height="4"></rect>
                                <rect id="Rectangle" x="0" y="13" width="4" height="4"></rect>
                                <rect id="Rectangle" x="5" y="13" width="4" height="4"></rect>
                            </g>
                        </g>
                    </g>
                </g>
            </g>
        </g>
    </g>
</svg>