<?xml version="1.0" encoding="UTF-8"?>
<svg width="24px" height="24px" viewBox="0 0 24 24" version="1.1" xmlns="http://www.w3.org/2000/svg" xmlns:xlink="http://www.w3.org/1999/xlink">
    <title>FA6F3330-ACF9-4B3B-9FDF-F68AF6B1663C</title>
    <g id="aimedis" stroke="none" stroke-width="1" fill="none" fill-rule="evenodd">
        <g id="UI---Components" transform="translate(-708.000000, -5763.000000)">
            <g id="Group-18" transform="translate(64.000000, 3477.000000)">
                <g id="Nav-My-Documents/Inactive" transform="translate(613.000000, 2278.000000)">
                    <g id="Group-Copy" transform="translate(23.000000, 0.000000)">
                        <g id="nav-my-documents-inquiries" transform="translate(8.000000, 8.000000)">
                            <rect id="Rectangle" x="0" y="0" width="24" height="24"></rect>
                            <path d="M12.063,13.839 C11.181,10.714 8,11.746 8,14.127 C8,16.634 11.937,19 11.937,19 C12.274,18.803 16,16.83 16,14.127 C16,11.746 12.946,10.714 12.063,13.839 L12.063,13.839 Z" id="Path" fill="#BFC1C1" fill-rule="nonzero"></path>
                            <path d="M19,5 L17,5 L17,3 L15.858,3 C15.411,1.281 13.858,0 12,0 C10.142,0 8.589,1.281 8.142,3 L7,3 L7,5 L5,5 C3.897,5 3,5.898 3,7 L3,21 C3,22.103 3.897,23 5,23 L19,23 C20.103,23 21,22.103 21,21 L21,7 C21,5.898 20.103,5 19,5 Z M12,2 C12.739,2 13.385,2.402 13.731,3 L10.268,3 C10.615,2.402 11.261,2 12,2 Z M9,5 L15,5 L15,7 L9,7 L9,5 Z M19,21 L5,21 L5,7 L7,7 L7,9 L17,9 L17,7 L19,7 L19,21 Z" id="Shape" fill="#BFC1C1" fill-rule="nonzero"></path>
                        </g>
                    </g>
                </g>
            </g>
        </g>
    </g>
</svg>