<?xml version="1.0" encoding="UTF-8"?>
<svg width="24px" height="24px" viewBox="0 0 24 24" version="1.1" xmlns="http://www.w3.org/2000/svg" xmlns:xlink="http://www.w3.org/1999/xlink">
    <title>616EECB8-8E33-44E9-B44F-CA596B5C6732</title>
    <g id="aimedis" stroke="none" stroke-width="1" fill="none" fill-rule="evenodd">
        <g id="UI---Components" transform="translate(-817.000000, -5763.000000)">
            <g id="Group-18" transform="translate(64.000000, 3477.000000)">
                <g id="Nav-My-Documents/Inactive" transform="translate(722.000000, 2278.000000)">
                    <g id="Group-Copy" transform="translate(23.000000, 0.000000)">
                        <g id="nav-my-documents-inquiries-active" transform="translate(8.000000, 8.000000)">
                            <g id="Frame_-_24px">
                                <rect id="Rectangle" x="0" y="0" width="24" height="24"></rect>
                            </g>
                            <g id="Filled_Icons" transform="translate(3.000000, 2.000000)" fill="#FFFFFF" fill-rule="nonzero">
                                <g id="Group">
                                    <path d="M13,2 L11,2 C11,0.896 10.104,0 9,0 C7.896,0 7,0.896 7,2 L5,2 L5,5 L13,5 L13,2 Z" id="Path"></path>
                                    <path d="M16,3 L15,3 L15,6 L3,6 L3,3 L2,3 C0.895,3 0,3.896 0,5 L0,19 C0,20.104 0.895,21 2,21 L16,21 C17.104,21 18,20.104 18,19 L18,5 C18,3.896 17.104,3 16,3 Z M8.936,18 C8.936,18 5,15.634 5,13.127 C5,10.746 8.181,9.714 9.064,12.839 C9.946,9.714 13,10.746 13,13.127 C13,15.83 9.274,17.803 8.936,18 Z" id="Shape"></path>
                                </g>
                            </g>
                        </g>
                    </g>
                </g>
            </g>
        </g>
    </g>
</svg>