<?xml version="1.0" encoding="UTF-8"?>
<svg width="24px" height="24px" viewBox="0 0 24 24" version="1.1" xmlns="http://www.w3.org/2000/svg" xmlns:xlink="http://www.w3.org/1999/xlink">
    <title>86509049-3335-4885-A987-32944975D858</title>
    <g id="aimedis" stroke="none" stroke-width="1" fill="none" fill-rule="evenodd">
        <g id="UI---Components" transform="translate(-939.000000, -5763.000000)">
            <g id="Group-18" transform="translate(64.000000, 3477.000000)">
                <g id="Nav-Trackers/Inactive" transform="translate(855.000000, 2278.000000)">
                    <g id="nav-trackers" transform="translate(20.000000, 8.000000)">
                        <rect id="Rectangle" x="0" y="-0.001" width="24" height="24"></rect>
                        <path d="M17.537,6.242 L15.754,0.003 L8.246,0.003 L6.463,6.242 C4.948,7.698 4,9.74 4,12.003 C4,14.266 4.948,16.308 6.463,17.764 L8.246,24.003 L15.755,24.003 L17.538,17.764 C19.052,16.308 20,14.266 20,12.003 C20,9.74 19.052,7.698 17.537,6.242 Z M9.754,2.003 L14.245,2.003 L14.983,4.586 C14.061,4.213 13.055,4.003 12,4.003 C10.945,4.003 9.939,4.213 9.016,4.586 L9.754,2.003 L9.754,2.003 Z M14.246,22.003 L9.754,22.003 L9.016,19.42 C9.939,19.793 10.945,20.003 12,20.003 C13.055,20.003 14.061,19.793 14.984,19.42 L14.246,22.003 Z M11.999,18.001 C8.686,18.001 5.999,15.314 5.999,12.001 C5.999,8.688 8.686,6.001 11.999,6.001 C15.312,6.001 17.999,8.688 17.999,12.001 C17.999,15.314 15.313,18.001 11.999,18.001 Z" id="Shape" fill="#BFC1C1" fill-rule="nonzero"></path>
                        <path d="M12,16.0009909 C12,16.0009909 16,13.671 16,11.204 C16,8.861 12.869,7.844 12,10.919 C11.131,7.844 8,8.861 8,11.204 C8,13.671 12,16.0009909 12,16.0009909 Z" id="Path" fill="#BFC1C1" fill-rule="nonzero"></path>
                    </g>
                </g>
            </g>
        </g>
    </g>
</svg>