<?xml version="1.0" encoding="UTF-8"?>
<svg width="24px" height="24px" viewBox="0 0 24 24" version="1.1" xmlns="http://www.w3.org/2000/svg" xmlns:xlink="http://www.w3.org/1999/xlink">
    <title>53407BD6-47B1-4D9C-9106-39D4F5EC2ABA</title>
    <g id="aimedis" stroke="none" stroke-width="1" fill="none" fill-rule="evenodd">
        <g id="UI---Components" transform="translate(-878.000000, -5871.000000)">
            <g id="Group-18" transform="translate(64.000000, 3477.000000)">
                <g id="Nav-My-Profile/Inactive" transform="translate(797.000000, 2386.000000)">
                    <g id="Group-Copy" transform="translate(9.000000, 0.000000)">
                        <g id="nav-my-profile" transform="translate(8.000000, 8.000000)">
                            <rect id="Rectangle" x="0" y="0" width="24" height="24"></rect>
                            <path d="M12.002,12.006 C9.796,12.006 8.002,10.212 8.002,8.006 C8.002,5.801 9.796,4.006 12.002,4.006 C14.208,4.006 16.002,5.801 16.002,8.006 C16.002,10.212 14.208,12.006 12.002,12.006 L12.002,12.006 Z M12.002,6.006 C10.899,6.006 10.002,6.902 10.002,8.006 C10.002,9.109 10.899,10.006 12.002,10.006 C13.105,10.006 14.002,9.109 14.002,8.006 C14.002,6.902 13.105,6.006 12.002,6.006 Z" id="Shape" fill="#00ABAF" fill-rule="nonzero"></path>
                            <path d="M20.002,20.006 L4.002,20.006 L4.002,19.006 C4.002,15.473 7.292,13.006 12.002,13.006 C16.712,13.006 20.002,15.473 20.002,19.006 L20.002,20.006 Z M6.161,18.006 L17.844,18.006 C17.246,16.198 15.011,15.006 12.003,15.006 C8.995,15.006 6.759,16.198 6.161,18.006 Z" id="Shape" fill="#00ABAF" fill-rule="nonzero"></path>
                        </g>
                    </g>
                </g>
            </g>
        </g>
    </g>
</svg>