<?xml version="1.0" encoding="UTF-8"?>
<svg width="24px" height="24px" viewBox="0 0 24 24" version="1.1" xmlns="http://www.w3.org/2000/svg" xmlns:xlink="http://www.w3.org/1999/xlink">
    <title>AA75AFD3-6827-4E9D-B007-B10B402BC169</title>
    <g id="aimedis" stroke="none" stroke-width="1" fill="none" fill-rule="evenodd">
        <g id="UI---Components" transform="translate(-352.000000, -5763.000000)">
            <g id="Group-18" transform="translate(64.000000, 3477.000000)">
                <g id="Nav-Inbox/Inactive" transform="translate(270.000000, 2278.000000)">
                    <g id="Group-Copy" transform="translate(10.000000, 0.000000)">
                        <g id="nav-chat-actiive" transform="translate(8.000000, 8.000000)">
                            <g id="Frame_-_24px">
                                <rect id="Rectangle" x="0" y="0.001" width="24" height="24"></rect>
                            </g>
                            <g id="Filled_Icons" transform="translate(1.000000, 3.000000)" fill="#FFFFFF" fill-rule="nonzero">
                                <path d="M10.998,0.001 C5.484,0.001 0.998,4.038 0.998,9.001 C0.998,10.736 1.539,12.393 2.57,13.837 C-0.002,18.001 -0.002,18.001 -0.002,18.001 C-0.002,18.001 6.581,18.001 10.998,18.001 C16.512,18.001 20.998,13.964 20.998,9.001 C20.998,4.038 16.512,0.001 10.998,0.001 Z M6.998,10.001 C6.445,10.001 5.998,9.554 5.998,9.001 C5.998,8.448 6.445,8.001 6.998,8.001 C7.551,8.001 7.998,8.448 7.998,9.001 C7.998,9.554 7.551,10.001 6.998,10.001 Z M10.998,10.001 C10.445,10.001 9.998,9.554 9.998,9.001 C9.998,8.448 10.445,8.001 10.998,8.001 C11.551,8.001 11.998,8.448 11.998,9.001 C11.998,9.554 11.551,10.001 10.998,10.001 Z M14.998,10.001 C14.445,10.001 13.998,9.554 13.998,9.001 C13.998,8.448 14.445,8.001 14.998,8.001 C15.551,8.001 15.998,8.448 15.998,9.001 C15.998,9.554 15.551,10.001 14.998,10.001 Z" id="Shape"></path>
                            </g>
                        </g>
                    </g>
                </g>
            </g>
        </g>
    </g>
</svg>