<?xml version="1.0" encoding="UTF-8"?>
<svg width="16px" height="16px" viewBox="0 0 16 16" version="1.1" xmlns="http://www.w3.org/2000/svg" xmlns:xlink="http://www.w3.org/1999/xlink">
    <title>F2FE24EA-D92D-4506-A47F-6DD3006648A8</title>
    <g id="aimedis" stroke="none" stroke-width="1" fill="none" fill-rule="evenodd">
        <g id="UI---Patient---Appointments" transform="translate(-320.000000, -86.000000)">
            <g id="Widgets-/-Sidebar-/-Calendar-Event-Copy-3" transform="translate(168.000000, 70.000000)">
                <g id="Item" transform="translate(16.000000, 16.000000)">
                    <g id="office-visit" transform="translate(136.000000, 0.000000)">
                        <g id="Frame_-_24px">
                            <rect id="Rectangle" x="0" y="0" width="16" height="16.0006667"></rect>
                        </g>
                        <g id="Line_Icons" transform="translate(1.333333, 1.333333)" fill="#7F8383" fill-rule="nonzero">
                            <g id="Group">
                                <polygon id="Path" points="7.33333333 5.33333333 6 5.33333333 6 3.33333333 3.33333333 3.33333333 3.33333333 10 6 10 6 8 7.33333333 8 7.33333333 10 10 10 10 3.33333333 7.33333333 3.33333333"></polygon>
                                <path d="M6.66666667,0 C2.99066667,0 0,2.99066667 0,6.66666667 C0,10.3433333 2.99066667,13.3333333 6.66666667,13.3333333 C10.3426667,13.3333333 13.3333333,10.3433333 13.3333333,6.66666667 C13.3333333,2.99066667 10.3426667,0 6.66666667,0 Z M6.66666667,12 C3.726,12 1.33333333,9.60733333 1.33333333,6.66666667 C1.33333333,3.726 3.726,1.33333333 6.66666667,1.33333333 C9.60733333,1.33333333 12,3.726 12,6.66666667 C12,9.60733333 9.60733333,12 6.66666667,12 Z" id="Shape"></path>
                            </g>
                        </g>
                    </g>
                </g>
            </g>
        </g>
    </g>
</svg>