<?xml version="1.0" encoding="UTF-8"?>
<svg width="24px" height="24px" viewBox="0 0 24 24" version="1.1" xmlns="http://www.w3.org/2000/svg" xmlns:xlink="http://www.w3.org/1999/xlink">
    <title>F4E1FF05-93A9-4F08-92EA-F4931B86B43E</title>
    <g id="aimedis" stroke="none" stroke-width="1" fill="none" fill-rule="evenodd">
        <g id="UI---Components" transform="translate(-606.000000, -5871.000000)">
            <g id="Group-18" transform="translate(64.000000, 3477.000000)">
                <g id="Nav-Trackers/Inactive" transform="translate(510.000000, 2386.000000)">
                    <g id="nav-aimedis-online-courses-active" transform="translate(32.000000, 8.000000)">
                        <g id="Frame_-_24px">
                            <rect id="Rectangle" x="0" y="0" width="24" height="24"></rect>
                        </g>
                        <g id="Filled_Icons" transform="translate(1.000000, 2.000000)" fill="#FFFFFF" fill-rule="nonzero">
                            <g id="Group">
                                <path d="M21.447,5.11 L11.447,0.11 C11.166,-0.031 10.834,-0.031 10.552,0.11 L0.552,5.11 C0.35,5.21 0.197,5.384 0.107,5.573 C0.046,5.695 0,5.902 0,6.005 L0,11.77 C0,12.322 0.448,12.77 1,12.77 C1.552,12.77 2,12.322 2,11.77 L2,7.172 L11.015,10.927 L21.372,6.933 C21.737,6.786 21.983,6.44 21.999,6.046 C22.016,5.652 21.799,5.287 21.447,5.11 Z" id="Path"></path>
                                <path d="M11,13.005 C10.869,13.005 10.738,12.979 10.615,12.928 L4,10.172 L4,13.185 C4,13.564 4.214,13.91 4.553,14.08 C6.268,14.937 8.036,15.998 11,15.998 C13.963,15.998 15.735,14.936 17.447,14.08 C17.786,13.911 18,13.564 18,13.186 L18,10.385 L11.359,12.939 C11.243,12.982 11.122,13.005 11,13.005 Z" id="Path"></path>
                                <path d="M1,14.005 C0.448,14.005 0,14.453 0,15.005 L0,17.005 C0,17.557 0.448,18.005 1,18.005 C1.552,18.005 2,17.557 2,17.005 L2,15.005 C2,14.453 1.552,14.005 1,14.005 Z" id="Path"></path>
                            </g>
                        </g>
                    </g>
                </g>
            </g>
        </g>
    </g>
</svg>