<?xml version="1.0" encoding="UTF-8"?>
<svg width="24px" height="24px" viewBox="0 0 24 24" version="1.1" xmlns="http://www.w3.org/2000/svg" xmlns:xlink="http://www.w3.org/1999/xlink">
    <title>60FCFEEF-061B-4D87-9DA6-2FEB50C9D8D1</title>
    <g id="aimedis" stroke="none" stroke-width="1" fill="none" fill-rule="evenodd">
        <g id="UI---Components" transform="translate(-495.000000, -5871.000000)">
            <g id="Group-18" transform="translate(64.000000, 3477.000000)">
                <g id="Nav-Trackers/Inactive" transform="translate(399.000000, 2386.000000)">
                    <g id="nav-aimedis-online-courses" transform="translate(32.000000, 8.000000)">
                        <g id="Frame_-_24px">
                            <rect id="Rectangle" x="0" y="0" width="24" height="24"></rect>
                        </g>
                        <g id="Line_Icons" transform="translate(1.000000, 2.000000)" fill="#BFC1C1" fill-rule="nonzero">
                            <g id="Group">
                                <path d="M21.447,5.106 L11.447,0.106 C11.166,-0.035 10.834,-0.035 10.552,0.106 L0.552,5.106 C0.352,5.205 0.198,5.379 0.107,5.568 C0.047,5.69 0,5.898 0,6 L0,11.765 C0,12.316 0.448,12.765 1,12.765 C1.552,12.765 2,12.316 2,11.765 L2,7.478 L4,8.278 L4,13.182 C4,13.56 4.214,13.906 4.553,14.076 C6.272,14.934 8.039,15.995 11,15.995 C13.961,15.995 15.729,14.934 17.447,14.076 C17.786,13.905 18,13.56 18,13.181 L18,8.277 L21.372,6.928 C21.737,6.782 21.983,6.435 21.999,6.041 C22.016,5.648 21.799,5.283 21.447,5.106 Z M16,12.563 L15.025,13.05 C12.504,14.311 9.495,14.311 6.975,13.05 L6,12.563 L6,9.078 L10.628,10.93 C10.748,10.978 10.874,11 11,11 C11.126,11 11.252,10.978 11.372,10.929 L16,9.077 L16,12.563 Z M11,8.923 L3.439,5.898 L11,2.119 L18.561,5.898 L11,8.923 Z" id="Shape"></path>
                                <path d="M1,14 C0.448,14 0,14.448 0,15 L0,17 C0,17.553 0.448,18 1,18 C1.552,18 2,17.553 2,17 L2,15 C2,14.448 1.552,14 1,14 Z" id="Path"></path>
                            </g>
                        </g>
                    </g>
                </g>
            </g>
        </g>
    </g>
</svg>