<?xml version="1.0" encoding="UTF-8"?>
<svg width="16px" height="16px" viewBox="0 0 16 16" version="1.1" xmlns="http://www.w3.org/2000/svg" xmlns:xlink="http://www.w3.org/1999/xlink">
    <title>58930BAC-F8BE-4AC7-9D66-C2A71343C0C5</title>
    <g id="aimedis" stroke="none" stroke-width="1" fill="none" fill-rule="evenodd">
        <g id="UI---Doctor---Patients-(Personal-info)" transform="translate(-754.000000, -620.000000)">
            <g id="Group-11-Copy-7" transform="translate(730.000000, 564.000000)">
                <g id="personal-info" transform="translate(24.000000, 56.000000)">
                    <g id="Frame_-_24px">
                        <rect id="Rectangle" x="0" y="0" width="16" height="16"></rect>
                    </g>
                    <g id="Filled_Icons" transform="translate(2.666667, 2.666667)" fill="#BFC1C1" fill-rule="nonzero">
                        <g id="Group">
                            <path d="M5.33466667,5.33733333 C6.80533333,5.33733333 8.00133333,4.14066667 8.00133333,2.67066667 C8.00133333,1.20066667 6.80533333,0.004 5.33466667,0.004 C3.864,0.004 2.668,1.20066667 2.668,2.67066667 C2.668,4.14066667 3.86466667,5.33733333 5.33466667,5.33733333 Z" id="Path"></path>
                            <path d="M5.33466667,6.004 C2.19466667,6.004 0.00133333333,7.64866667 0.00133333333,10.004 L0.00133333333,10.6706667 L10.668,10.6706667 L10.668,10.004 C10.668,7.64866667 8.47533333,6.004 5.33466667,6.004 Z" id="Path"></path>
                        </g>
                    </g>
                </g>
            </g>
        </g>
    </g>
</svg>