<svg width="107" height="144" xmlns="http://www.w3.org/2000/svg">
 <!-- Created with Method Draw - http://github.com/duopixel/Method-Draw/ -->

 <g>
  <title>background</title>
  <rect fill="none" id="canvas_background" height="146" width="109" y="-1" x="-1"/>
 </g>
 <g>
  <title>Layer 1</title>
  <g stroke="null" id="svg_41">
   <g transform="matrix(1.0801028338350052,0,0,0.9829542559936091,-423.6836639069628,-509.04091483877903) " fill-rule="evenodd" fill="none" id="svg_23">
    <g stroke="null" id="svg_24">
     <g stroke="null" id="svg_25">
      <g stroke="null" id="svg_26">
       <path stroke="null" fill="#7FD5D7" id="svg_39" d="m449.58221,568.35581c-0.26608,-1.49017 -0.56555,-9.04099 0.26565,-11.02803c0.83141,-1.98703 -0.16611,-5.66269 2.06204,-9.27227c2.22815,-3.60958 7.31719,-3.47763 7.31719,-3.47763c0,0 4.78895,-1.55687 5.45382,-2.51735c0.66488,-0.96027 0.33286,-5.133 0.33286,-5.133c-1.29699,-0.96027 -1.42993,-3.77582 -1.42993,-3.77582c0,0 -0.09996,0.49686 -0.59893,0.16562c-0.49897,-0.33104 -0.66508,-3.67587 -0.53215,-3.97387c0.13314,-0.29799 0.69827,-0.19866 0.69827,-0.19866c0,0 -0.79781,-4.37139 0.56575,-6.62317c1.36356,-2.25178 4.58944,-2.58323 5.85304,-2.58323c1.2636,0 4.48948,0.33145 5.85304,2.58323c1.36356,2.25178 0.56575,6.62317 0.56575,6.62317c0,0 0.56533,-0.09933 0.69827,0.19866c0.13314,0.298 -0.03318,3.64283 -0.53215,3.97387c-0.49897,0.33124 -0.59893,-0.16562 -0.59893,-0.16562c0,0 -0.13294,2.81555 -1.42993,3.77582c0,0 -0.33181,4.17273 0.33286,5.133c0.66487,0.96048 5.45382,2.51735 5.45382,2.51735c0,0 5.08904,-0.13195 7.31719,3.47763c2.22815,3.60958 1.23063,7.28524 2.06204,9.27227c0.83141,1.98704 0.53173,9.53786 0.26565,11.02803c-0.26607,1.49038 0.13273,3.74195 0.56534,4.70243c0.43261,0.96047 -0.89819,16.69113 -0.69848,18.84358c0.19972,2.15266 0.89819,7.94835 0.63212,8.445c-0.26608,0.49666 -2.02865,4.93434 -3.85779,5.1995c0,0 -1.33038,0.95985 -1.79596,0.66186c-0.46537,-0.29799 0.09996,-0.96047 0.09996,-0.96047c0,0 -0.36541,0.0667 -0.59851,-0.16542c-0.2329,-0.23149 1.76277,-2.15224 1.76277,-2.15224c0,0 -0.99814,0.43037 -1.33037,0.03304c-0.33244,-0.39753 2.56058,-1.92074 3.05955,-3.04663c0.49897,-1.12589 -0.16632,-1.85466 -0.16632,-1.85466l-0.83141,0.39732c0,0 -0.79823,2.61627 -1.36356,2.6491c-0.56533,0.03367 -0.93095,0.03367 -0.46537,-3.04642c0,0 -0.66488,-2.28483 -0.13314,-3.31159c0.53173,-1.02656 1.13066,-1.2913 1.13066,-2.38415c0,-1.09306 -1.62984,-6.78859 -2.16178,-9.93476c-0.53174,-3.14597 0.46579,-9.27249 -0.06637,-10.46467c-0.53194,-1.19197 -1.16343,-4.00815 -1.19702,-6.02823c-0.03339,-2.02007 -0.56534,-4.70242 -1.06431,-5.3647c-0.49897,-0.66248 0.21954,3.8417 -0.88817,6.72272c-1.10813,2.88101 -0.34308,7.88122 0.18907,10.03388c0.53236,2.15265 2.29451,14.24007 2.46084,18.64451c0.16611,4.40443 -1.09728,20.73066 -0.93096,23.08198c0.16612,2.35111 1.29679,5.6629 1.29679,12.41866c0,6.75554 -1.13067,7.31807 -2.09501,10.13321c-0.96434,2.81514 -1.9289,10.13363 -1.82914,11.49143c0,0 0.40944,4.70074 0.60894,5.39626c0.1993,0.69553 0.62771,1.76728 0.72002,2.66073c0.09231,0.89345 0.46762,1.10886 -0.23148,2.06751c0,0 -5.02184,0.19845 -6.25247,0c-0.56341,-0.09087 -0.24269,-1.68345 0,-2.57205c0.28731,-1.052 0.57165,-1.53847 0.66571,-3.37718c0.17352,-3.39185 -0.06636,-6.42705 0,-7.05608c0.06637,-0.62902 0.56492,-7.94834 -0.29967,-11.49122c-0.86459,-3.5437 -0.73166,-8.94186 0.09996,-11.32602c0.83141,-2.38435 -0.39963,-3.70911 -1.29741,-6.59013c-0.89756,-2.88101 -1.36356,-9.86847 -1.36356,-12.94877c0,-3.07946 -1.0307,-5.23212 -1.52967,-7.02049c-0.49897,-1.78817 -0.4324,-4.3714 -0.4324,-4.3714l-0.39901,-0.17019l-0.39901,0.17019c0,0 0.06657,2.58323 -0.4324,4.3714c-0.49897,1.78837 -1.52988,3.94103 -1.52988,7.02049c0,3.0803 -0.46579,10.06776 -1.36335,12.94877c-0.89777,2.88102 -2.12882,4.20578 -1.29741,6.59013c0.83141,2.38416 0.96455,7.78232 0.09996,11.32602c-0.86459,3.54288 -0.36604,10.8622 -0.29967,11.49122c0.06636,0.62903 0.05438,4.72403 0.19971,7.56326c0.14158,2.76583 0.45623,2.76418 0.69249,3.69458c0.23625,0.9304 -0.19468,1.74234 -0.22649,1.74747c-1.04291,0.16821 -3.9279,0.03955 -5.78668,0c-0.3342,-0.00711 -0.84553,-0.55579 -0.84553,-1.33773c0,-1.82212 0.42033,-1.48752 0.84553,-3.75846c0.42519,-2.27093 0.63169,-5.02831 0.63169,-5.02831c0.09976,-1.3578 -0.86459,-8.67629 -1.82914,-11.49143c-0.96434,-2.81514 -2.09501,-3.37767 -2.09501,-10.13321c0,-6.75576 1.13067,-10.06755 1.29679,-12.41866c0.16632,-2.35132 -1.09707,-18.67755 -0.93096,-23.08198c0.16633,-4.40444 1.92869,-16.49186 2.46063,-18.64451c0.53236,-2.15266 1.29741,-7.15287 0.18949,-10.03388c-1.10792,-2.88102 -0.38941,-7.3852 -0.88859,-6.72272c-0.49876,0.66228 -1.03071,3.34463 -1.0641,5.3647c-0.03359,2.02008 -0.66487,4.83626 -1.19702,6.02823c-0.53216,1.19218 0.46537,7.3187 -0.06637,10.46467c-0.53173,3.14617 -2.16178,8.8417 -2.16178,9.93476c0,1.09285 0.59893,1.35759 1.13066,2.38415c0.53174,1.02676 -0.13314,3.31159 -0.13314,3.31159c0.46537,3.08009 0.09996,3.08009 -0.46537,3.04642c-0.56533,-0.03283 -1.36356,-2.6491 -1.36356,-2.6491l-0.83141,-0.39732c0,0 -0.66529,0.72877 -0.16632,1.85466c0.49917,1.12589 3.39199,2.6491 3.05955,3.04663c-0.33243,0.39733 -1.33037,-0.03304 -1.33037,-0.03304c0,0 1.99567,1.92075 1.76277,2.15224c-0.23289,0.23212 -0.59851,0.16542 -0.59851,0.16542c0,0 0.56533,0.66248 0.09975,0.96047c-0.46537,0.29799 -1.79575,-0.66186 -1.79575,-0.66186c-1.82893,-0.26516 -3.59171,-4.70284 -3.85779,-5.1995c-0.26607,-0.49665 0.4324,-6.29234 0.63212,-8.445c0.19971,-2.15245 -1.13109,-17.88311 -0.69848,-18.84358c0.43261,-0.96048 0.83141,-3.21205 0.56534,-4.70243z"/>
       <line stroke="#00ABAF" stroke-linecap="round" stroke-width="0.5" id="svg_38" y2="586.1784" x2="472.92982" y1="587.1384" x1="471.00982"/>
       <line stroke="#00ABAF" stroke-linecap="round" stroke-width="0.5" id="svg_37" y2="572.7384" x2="488.28982" y1="573.6984" x1="487.32982"/>
       <line stroke="#00ABAF" stroke-linecap="round" stroke-width="0.5" id="svg_36" y2="572.7384" x2="453.72982" y1="573.6984" x1="452.76982"/>
       <line stroke="#00ABAF" stroke-linecap="round" stroke-width="0.5" id="svg_35" y2="586.1784" x2="466.20982" y1="587.1384" x1="468.12982"/>
       <line stroke="#00ABAF" stroke-linecap="round" stroke-width="0.5" id="svg_34" y2="572.7384" x2="485.40982" y1="573.6984" x1="486.36982"/>
       <line stroke="#00ABAF" stroke-linecap="round" stroke-width="0.5" id="svg_33" y2="572.7384" x2="450.84982" y1="573.6984" x1="451.80982"/>
       <path stroke="#00ABAF" stroke-linecap="round" stroke-width="0.768" id="svg_32" d="m466.90086,552.5784c-0.62604,4.18899 -1.09938,6.4608 -1.42002,6.81545c-0.48095,0.53197 -1.56837,1.53517 -3.11102,2.21875"/>
       <path stroke="#00ABAF" stroke-linecap="round" stroke-width="0.768" id="svg_31" d="m471.96982,552.5784c0.62604,4.18899 1.09938,6.4608 1.42002,6.81545c0.48095,0.53197 1.56837,1.53517 3.11102,2.21875"/>
       <path stroke="#00ABAF" stroke-linecap="round" stroke-width="0.5" id="svg_30" d="m456.20593,558.3716c0,0 0.40389,1.57276 1.85606,2.2021"/>
       <path stroke="#00ABAF" stroke-linecap="round" stroke-width="0.5" id="svg_29" d="m482.94588,558.3716c0,0 -0.40389,1.57276 -1.85606,2.2021"/>
       <line stroke="#00ABAF" stroke-linecap="round" stroke-width="0.5" id="svg_28" y2="581.65682" x2="469.56982" y1="566.9784" x1="469.56982"/>
       <path stroke="null" fill="#00ABAF" id="svg_27" d="m457.04493,588.80591c1.98064,0.35296 8.34439,0.73695 12.52489,0.73695c2.787,0 7.01663,-0.24565 12.6889,-0.73695c0.99719,5.56734 1.08756,9.98103 0.2711,13.24105c-0.51513,0.12631 -4.42627,0.22144 -11.73343,0.2854c-0.37409,-0.51982 -0.62911,-0.88901 -0.76505,-1.10756c-0.2039,-0.32784 -0.50964,-0.32784 -0.81121,0c-0.30157,0.32783 -0.51673,0.90024 -1.18229,1.30021c-0.5325,0.47805 -10.80264,-0.39997 -11.53566,-0.19265c-0.73302,0.20733 -0.73302,-11.9622 0.54275,-13.52645z"/>
      </g>
     </g>
    </g>
   </g>
  </g>
  <g stroke="null" id="svg_71">
   <g transform="matrix(1.104328368513561,0,0,1.0000000257310795,-460.2387285196552,-575.9999664273353) " fill-rule="evenodd" fill="none" id="svg_57">
    <g stroke="null" id="svg_58">
     <g stroke="null" id="svg_59">
      <path stroke="null" fill="#7FD5D7" id="svg_69" d="m417.0332,629.11978c0.43261,-0.96048 0.83141,-3.21205 0.56534,-4.70243c-0.26608,-1.49017 -0.56555,-9.04099 0.26565,-11.02803c0.83141,-1.98703 -0.16611,-5.66269 2.06204,-9.27227c2.22815,-3.60958 7.31719,-3.47763 7.31719,-3.47763c0,0 4.78895,-1.55687 5.45382,-2.51735c0.66488,-0.96027 0.33286,-5.133 0.33286,-5.133c-1.29699,-0.96027 -1.42993,-3.77582 -1.42993,-3.77582c0,0 -0.09996,0.49686 -0.59893,0.16562c-0.49897,-0.33104 -0.66508,-3.67587 -0.53215,-3.97387c0.13314,-0.29799 0.69827,-0.19866 0.69827,-0.19866c0,0 -0.79781,-4.37139 0.56575,-6.62317c1.36356,-2.25178 4.58944,-2.58323 5.85304,-2.58323c1.2636,0 4.48948,0.33145 5.85304,2.58323c1.36356,2.25178 0.56575,6.62317 0.56575,6.62317c0,0 0.56533,-0.09933 0.69827,0.19866c0.13314,0.298 -0.03318,3.64283 -0.53215,3.97387c-0.49897,0.33124 -0.59893,-0.16562 -0.59893,-0.16562c0,0 -0.13294,2.81555 -1.42993,3.77582c0,0 -0.33181,4.17273 0.33286,5.133c0.66487,0.96048 5.45382,2.51735 5.45382,2.51735c0,0 5.08904,-0.13195 7.31719,3.47763c2.22815,3.60958 1.23063,7.28524 2.06204,9.27227c0.83141,1.98704 0.53173,9.53786 0.26565,11.02803c-0.26607,1.49038 0.13273,3.74195 0.56534,4.70243c0.43261,0.96047 -0.89819,16.69113 -0.69848,18.84358c0.19972,2.15266 0.89819,7.94835 0.63212,8.445c-0.26608,0.49666 -2.02865,4.93434 -3.85779,5.1995c0,0 -1.33038,0.95985 -1.79596,0.66186c-0.46537,-0.29799 0.09996,-0.96047 0.09996,-0.96047c0,0 -0.36541,0.0667 -0.59851,-0.16542c-0.2329,-0.23149 1.76277,-2.15224 1.76277,-2.15224c0,0 -0.99814,0.43037 -1.33037,0.03304c-0.33244,-0.39753 2.56058,-1.92074 3.05955,-3.04663c0.49897,-1.12589 -0.16632,-1.85466 -0.16632,-1.85466l-0.83141,0.39732c0,0 -0.79823,2.61627 -1.36356,2.6491c-0.56533,0.03367 -0.93095,0.03367 -0.46537,-3.04642c0,0 -0.66488,-2.28483 -0.13314,-3.31159c0.53173,-1.02656 1.13066,-1.2913 1.13066,-2.38415c0,-1.09306 -1.62984,-6.78859 -2.16178,-9.93476c-0.53174,-3.14597 0.46579,-9.27249 -0.06637,-10.46467c-0.53194,-1.19197 -1.16343,-4.00815 -1.19702,-6.02823c-0.03339,-2.02007 -0.56534,-4.70242 -1.06431,-5.3647c-0.49897,-0.66248 0.21954,3.8417 -0.88817,6.72272c-1.10813,2.88101 -0.34308,7.88122 0.18907,10.03388c0.53236,2.15265 2.29451,14.24007 2.46084,18.64451c0.16611,4.40443 -1.09728,20.73066 -0.93096,23.08198c0.16612,2.35111 1.29679,5.6629 1.29679,12.41866c0,6.75554 -1.13067,7.31807 -2.09501,10.13321c-0.96434,2.81514 -1.9289,10.13363 -1.82914,11.49143c0,0 0.58599,0.96027 0.60894,1.52321c0.02317,0.56295 -0.01001,1.25826 0.18949,1.95379c0.1993,0.69552 2.22836,5.59724 1.62964,6.29235c-0.59893,0.69552 -4.12386,0.76181 -5.35449,0.66248c0,0 -0.29926,0.56253 -1.52988,0.36407c-1.23042,-0.19845 -1.06431,-4.50459 -0.69827,-6.75596c0.36604,-2.25136 -0.69868,-2.81389 -0.36604,-4.23819c0.33286,-1.4243 0.96497,-2.05353 1.03133,-2.68256c0.06637,-0.62902 0.56492,-7.94834 -0.29967,-11.49122c-0.86459,-3.5437 -0.73166,-8.94186 0.09996,-11.32602c0.83141,-2.38435 -0.39963,-3.70911 -1.29741,-6.59013c-0.89756,-2.88101 -1.36356,-9.86847 -1.36356,-12.94877c0,-3.07946 -1.0307,-5.23212 -1.52967,-7.02049c-0.49897,-1.78817 -0.4324,-4.3714 -0.4324,-4.3714l-0.39901,-0.17019l-0.39901,0.17019c0,0 0.06657,2.58323 -0.4324,4.3714c-0.49897,1.78837 -1.52988,3.94103 -1.52988,7.02049c0,3.0803 -0.46579,10.06776 -1.36335,12.94877c-0.89777,2.88102 -2.12882,4.20578 -1.29741,6.59013c0.83141,2.38416 0.96455,7.78232 0.09996,11.32602c-0.86459,3.54288 -0.36604,10.8622 -0.29967,11.49122c0.06636,0.62903 0.69847,1.25826 1.03112,2.68256c0.33285,1.4243 -0.73187,1.98683 -0.36583,4.23819c0.36583,2.25137 0.53215,6.55751 -0.69848,6.75596c-1.23041,0.19846 -1.52967,-0.36407 -1.52967,-0.36407c-1.23042,0.09933 -4.75556,0.03304 -5.35449,-0.66248c-0.59872,-0.69511 1.43034,-5.59683 1.62964,-6.29235c0.1995,-0.69553 0.16632,-1.39084 0.18948,-1.95379c0.02317,-0.56294 0.60895,-1.52321 0.60895,-1.52321c0.09976,-1.3578 -0.86459,-8.67629 -1.82914,-11.49143c-0.96434,-2.81514 -2.09501,-3.37767 -2.09501,-10.13321c0,-6.75576 1.13067,-10.06755 1.29679,-12.41866c0.16632,-2.35132 -1.09707,-18.67755 -0.93096,-23.08198c0.16633,-4.40444 1.92869,-16.49186 2.46063,-18.64451c0.53236,-2.15266 1.29741,-7.15287 0.18949,-10.03388c-1.10792,-2.88102 -0.38941,-7.3852 -0.88859,-6.72272c-0.49876,0.66228 -1.03071,3.34463 -1.0641,5.3647c-0.03359,2.02008 -0.66487,4.83626 -1.19702,6.02823c-0.53216,1.19218 0.46537,7.3187 -0.06637,10.46467c-0.53173,3.14617 -2.16178,8.8417 -2.16178,9.93476c0,1.09285 0.59893,1.35759 1.13066,2.38415c0.53174,1.02676 -0.13314,3.31159 -0.13314,3.31159c0.46537,3.08009 0.09996,3.08009 -0.46537,3.04642c-0.56533,-0.03283 -1.36356,-2.6491 -1.36356,-2.6491l-0.83141,-0.39732c0,0 -0.66529,0.72877 -0.16632,1.85466c0.49917,1.12589 3.39199,2.6491 3.05955,3.04663c-0.33243,0.39733 -1.33037,-0.03304 -1.33037,-0.03304c0,0 1.99567,1.92075 1.76277,2.15224c-0.23289,0.23212 -0.59851,0.16542 -0.59851,0.16542c0,0 0.56533,0.66248 0.09975,0.96047c-0.46537,0.29799 -1.79575,-0.66186 -1.79575,-0.66186c-1.82893,-0.26516 -3.59171,-4.70284 -3.85779,-5.1995c-0.26607,-0.49665 0.4324,-6.29234 0.63212,-8.445c0.19971,-2.15245 -1.13109,-17.88311 -0.69848,-18.84358"/>
      <path stroke="#00ABAF" stroke-linecap="round" stroke-width="0.96" id="svg_68" d="m426.58673,616.31994c0.93295,1.72443 3.15942,2.58665 6.67942,2.58665"/>
      <path stroke="#00ABAF" stroke-linecap="round" stroke-width="0.96" id="svg_67" d="m448.58557,616.31994c-0.93294,1.72443 -3.15942,2.58665 -6.67942,2.58665"/>
      <line stroke="#00ABAF" stroke-linecap="round" stroke-width="0.576" id="svg_66" y2="615.63835" x2="437.58615" y1="608.63994" x1="437.58615"/>
      <line stroke="#00ABAF" stroke-linecap="round" stroke-width="0.5" id="svg_65" y2="637.71835" x2="437.58615" y1="623.03994" x1="437.58615"/>
      <line stroke="#00ABAF" stroke-width="0.5" id="svg_64" y2="602.48049" x2="433.26615" y1="601.81502" x1="428.46615"/>
      <line stroke="#00ABAF" stroke-width="0.5" id="svg_63" y2="602.48049" x2="441.90615" y1="601.81502" x1="446.70615"/>
      <line stroke="#00ABAF" stroke-width="0.5" id="svg_62" y2="626.94571" x2="442.13693" y1="626.94571" x1="433.26615"/>
      <line stroke="#00ABAF" stroke-width="0.5" id="svg_61" y2="632.63994" x2="441.17693" y1="632.63994" x1="434.22615"/>
      <path stroke="null" fill="#00ABAF" id="svg_60" d="m425.06126,644.86745c1.98064,0.35296 8.34439,0.73695 12.52489,0.73695c2.787,0 6.9872,-0.24565 12.60058,-0.73695c0.717,5.54586 0.83681,9.95954 0.35942,13.24105c-0.51513,0.12631 -4.42627,0.22144 -11.73343,0.2854c-0.76849,-3.51697 -1.04312,-5.38474 -0.8239,-5.60329c0.32884,-0.32784 -0.9505,-0.71474 -0.81121,0c0.13929,0.71473 -0.45788,5.39597 -1.12344,5.79594c-0.5325,0.47805 -10.65574,-0.39997 -11.38876,-0.19265c-0.73302,0.20733 -0.45256,-12.08074 0.39585,-13.52645z"/>
     </g>
    </g>
   </g>
  </g>
 </g>
</svg>