<?xml version="1.0" encoding="UTF-8"?>
<svg width="16px" height="16px" viewBox="0 0 16 16" version="1.1" xmlns="http://www.w3.org/2000/svg" xmlns:xlink="http://www.w3.org/1999/xlink">
    <title>25196E58-75AA-4558-B957-4DA88048598D</title>
    <g id="aimedis" stroke="none" stroke-width="1" fill="none" fill-rule="evenodd">
        <g id="UI---Doctor---Patients-(Personal-info)" transform="translate(-542.000000, -328.000000)">
            <g id="phone" transform="translate(542.000000, 328.000000)">
                <g id="Frame_-_24px">
                    <rect id="Rectangle" x="0" y="0" width="16" height="16"></rect>
                </g>
                <g id="Filled_Icons" transform="translate(2.333333, 2.333333)" fill="#7F8383" fill-rule="nonzero">
                    <g id="Group">
                        <path d="M7.33333333,11.3333333 L10.6666667,11.3333333 C11.0353333,11.3333333 11.3333333,11.0353333 11.3333333,10.6666667 L11.3333333,8 C11.3333333,7.63133333 11.0353333,7.33333333 10.6666667,7.33333333 L8,7.33333333 C7.63133333,7.33333333 7.33333333,7.63133333 7.33333333,8 L7.33333333,8.66666667 C4.66666667,8.66666667 2.70866667,6.62533333 2.66666667,4 L3.33333333,4 C3.702,4 4,3.702 4,3.33333333 L4,0.666666667 C4,0.298 3.702,0 3.33333333,0 L0.666666667,0 C0.298666667,0 0,0.298 0,0.666666667 L0,4 C0,8.05 3.28333333,11.3333333 7.33333333,11.3333333 Z" id="Path"></path>
                    </g>
                </g>
            </g>
        </g>
    </g>
</svg>