<?xml version="1.0" encoding="UTF-8"?>
<svg width="24px" height="24px" viewBox="0 0 24 24" version="1.1" xmlns="http://www.w3.org/2000/svg" xmlns:xlink="http://www.w3.org/1999/xlink">
    <title>2BBB2074-1C04-42AB-904C-019914A4A9DE</title>
    <g id="aimedis" stroke="none" stroke-width="1" fill="none" fill-rule="evenodd">
        <g id="UI---Patient---Journal-(Graphs)" transform="translate(-1101.000000, -256.000000)">
            <g id="print" transform="translate(1101.000000, 256.000000)">
                <g id="Frame_-_24px">
                    <rect id="Rectangle" x="0" y="0" width="24" height="24"></rect>
                </g>
                <g id="Filled_Icons" transform="translate(2.000000, 0.000000)" fill="#BFC1C1" fill-rule="nonzero">
                    <g id="Group">
                        <polygon id="Path" points="17 6 15 6 15 2 5 2 5 6 3 6 3 0 17 0"></polygon>
                        <path d="M17,8 L15,8 L15,10 L5,10 L5,8 L3,8 C1.346,8 0,9.346 0,11 L0,20 L3,20 L3,24 L17,24 L17,20 L20,20 L20,11 C20,9.346 18.654,8 17,8 Z M15,22 L5,22 L5,18 L15,18 L15,22 Z M15,15 C14.448,15 14,14.553 14,14 C14,13.448 14.448,13 15,13 C15.552,13 16,13.448 16,14 C16,14.553 15.552,15 15,15 Z" id="Shape"></path>
                    </g>
                </g>
            </g>
        </g>
    </g>
</svg>