<svg width="14" height="14" viewBox="0 0 14 14" fill="none" xmlns="http://www.w3.org/2000/svg">
<path fill-rule="evenodd" clip-rule="evenodd" d="M6.99967 1.74998C4.10018 1.74998 1.74967 4.10048 1.74967 6.99998C1.74967 9.89947 4.10018 12.25 6.99967 12.25C9.89917 12.25 12.2497 9.89947 12.2497 6.99998C12.2497 4.10048 9.89917 1.74998 6.99967 1.74998ZM0.583008 6.99998C0.583008 3.45615 3.45585 0.583313 6.99967 0.583313C10.5435 0.583313 13.4163 3.45615 13.4163 6.99998C13.4163 10.5438 10.5435 13.4166 6.99967 13.4166C3.45585 13.4166 0.583008 10.5438 0.583008 6.99998Z" fill="#404646"/>
<path fill-rule="evenodd" clip-rule="evenodd" d="M7.15031 4.68078C6.87876 4.6342 6.59948 4.68523 6.36195 4.82483C6.12441 4.96443 5.94395 5.18359 5.85252 5.4435C5.74561 5.74741 5.41258 5.90711 5.10867 5.8002C4.80476 5.6933 4.64506 5.36026 4.75196 5.05635C4.93482 4.53654 5.29575 4.09821 5.77082 3.81901C6.24589 3.53981 6.80444 3.43775 7.34755 3.5309C7.89065 3.62406 8.38327 3.90643 8.73813 4.32798C9.09293 4.74946 9.28715 5.28287 9.28641 5.83379C9.28615 6.7265 8.62429 7.31603 8.15165 7.63112C7.89753 7.80053 7.64756 7.9251 7.46343 8.00694C7.37053 8.04823 7.2923 8.07956 7.23593 8.10103C7.2077 8.11179 7.18481 8.12012 7.16815 8.12605L7.14789 8.13314L7.14144 8.13535L7.13917 8.13611L7.13827 8.13641C7.1381 8.13647 7.13755 8.13666 6.95907 7.60123L7.13754 8.13666C6.83191 8.23854 6.50155 8.07336 6.39968 7.76773C6.29793 7.46249 6.46254 7.1326 6.76741 7.03026C6.76758 7.0302 6.76788 7.0301 6.7683 7.02996L6.77731 7.0268C6.78628 7.02361 6.80099 7.01827 6.82061 7.0108C6.85994 6.99581 6.91843 6.97246 6.9896 6.94083C7.13359 6.87683 7.32112 6.78265 7.5045 6.6604C7.90677 6.39222 8.11974 6.10692 8.11974 5.83326L8.11974 5.83239C8.12015 5.55687 8.02304 5.2901 7.84561 5.07932C7.66817 4.86854 7.42186 4.72736 7.15031 4.68078ZM6.95308 7.58326L6.7683 7.02996C6.76845 7.02991 6.76861 7.02986 6.95308 7.58326Z" fill="#404646"/>
<path fill-rule="evenodd" clip-rule="evenodd" d="M6.41699 9.91665C6.41699 9.59448 6.67816 9.33331 7.00033 9.33331H7.00616C7.32832 9.33331 7.58949 9.59448 7.58949 9.91665C7.58949 10.2388 7.32832 10.5 7.00616 10.5H7.00033C6.67816 10.5 6.41699 10.2388 6.41699 9.91665Z" fill="#404646"/>
</svg>
