<svg width="22" height="22" viewBox="0 0 22 22" fill="none" xmlns="http://www.w3.org/2000/svg">
<path d="M0 11C0 4.92487 4.92487 0 11 0C17.0751 0 22 4.92487 22 11C22 17.0751 17.0751 22 11 22C4.92487 22 0 17.0751 0 11Z" fill="#00ABAF"/>
<path fill-rule="evenodd" clip-rule="evenodd" d="M16.0791 7.08736C16.307 7.31516 16.307 7.68451 16.0791 7.91232L9.66248 14.329C9.43467 14.5568 9.06533 14.5568 8.83752 14.329L5.92085 11.4123C5.69305 11.1845 5.69305 10.8152 5.92085 10.5874C6.14866 10.3596 6.51801 10.3596 6.74581 10.5874L9.25 13.0915L15.2542 7.08736C15.482 6.85955 15.8513 6.85955 16.0791 7.08736Z" fill="white"/>
</svg>
