<?xml version="1.0" encoding="UTF-8"?>
<svg width="24px" height="24px" viewBox="0 0 24 24" version="1.1" xmlns="http://www.w3.org/2000/svg" xmlns:xlink="http://www.w3.org/1999/xlink">
    <title>A1E8BE97-E6CD-4896-99AE-7D66C05A6191</title>
    <g id="aimedis" stroke="none" stroke-width="1" fill="none" fill-rule="evenodd">
        <g id="UI---Components" transform="translate(-164.000000, -10308.000000)">
            <g id="Group-18" transform="translate(64.000000, 3477.000000)">
                <g id="smiley-frown-2" transform="translate(100.000000, 6831.000000)">
                    <g id="Frame_-_24px">
                        <rect id="Rectangle" x="0" y="0" width="24" height="24"></rect>
                    </g>
                    <g id="Filled_Icons" transform="translate(2.000000, 2.000000)" fill="#EEAA52" fill-rule="nonzero">
                        <path d="M10,0 C4.477,0 0,4.477 0,10 C0,15.522 4.477,20 10,20 C15.523,20 20,15.522 20,10 C20,4.477 15.522,0 10,0 Z M12,5 L14,5 L14,9 L12,9 L12,5 Z M6,5 L8,5 L8,9 L6,9 L6,5 Z M14.441,15.998 C13.445,14.562 11.804,13.652 10,13.652 C8.191,13.652 6.553,14.564 5.557,16.001 L4,14.442 C5.41,12.615 7.604,11.481 10,11.481 C12.391,11.481 14.588,12.614 16,14.439 L14.441,15.998 Z" id="Shape"></path>
                    </g>
                </g>
            </g>
        </g>
    </g>
</svg>