<?xml version="1.0" encoding="UTF-8"?>
<svg width="14px" height="14px" viewBox="0 0 14 14" version="1.1" xmlns="http://www.w3.org/2000/svg" xmlns:xlink="http://www.w3.org/1999/xlink">
    <title>0E242FB8-80BC-43A9-944A-E480477130A8</title>
    <g id="aimedis" stroke="none" stroke-width="1" fill="none" fill-rule="evenodd">
        <g id="UI---Patient---Appointments---Arrange-(Location-allowed)" transform="translate(-866.000000, -343.000000)" fill="#00ABAF" fill-rule="nonzero">
            <g id="Group-23" transform="translate(240.000000, 80.000000)">
                <g id="Group-22" transform="translate(0.000000, 204.000000)">
                    <g id="Group-20" transform="translate(625.000000, 0.000000)">
                        <g id="Group-2" transform="translate(0.000000, 58.000000)">
                            <g id="Filled_Icons" transform="translate(1.333333, 1.333333)">
                                <path d="M6.66666667,0 C2.99066667,0 0,2.99066667 0,6.66666667 C0,10.3433333 2.99066667,13.3333333 6.66666667,13.3333333 C10.3426667,13.3333333 13.3333333,10.3433333 13.3333333,6.66666667 C13.3333333,2.99066667 10.3426667,0 6.66666667,0 Z M10,10 L7.33333333,10 L7.33333333,8 L6,8 L6,10 L3.33333333,10 L3.33333333,3.33333333 L6,3.33333333 L6,5.33333333 L7.33333333,5.33333333 L7.33333333,3.33333333 L10,3.33333333 L10,10 Z" id="Shape-Copy-2"></path>
                            </g>
                        </g>
                    </g>
                </g>
            </g>
        </g>
    </g>
</svg>