<?xml version="1.0" encoding="UTF-8"?>
<svg width="24px" height="24px" viewBox="0 0 24 24" version="1.1" xmlns="http://www.w3.org/2000/svg" xmlns:xlink="http://www.w3.org/1999/xlink">
    <title>1BBAD7DD-8A34-4784-BF4E-045D390FC4B6</title>
    <g id="aimedis" stroke="none" stroke-width="1" fill="none" fill-rule="evenodd">
        <g id="UI---Components" transform="translate(-602.000000, -6293.000000)">
            <g id="Group-18" transform="translate(64.000000, 3477.000000)">
                <g id="sick-certificate-prescription" transform="translate(538.000000, 2816.000000)">
                    <circle id="Oval" fill="#ECCAFF" cx="12" cy="12" r="12"></circle>
                    <g id="health-prescription-1" transform="translate(4.000000, 4.000000)">
                        <g id="Frame_-_24px">
                            <rect id="Rectangle" x="-0.000666666667" y="0" width="16.0006667" height="16.0006667"></rect>
                        </g>
                        <g id="Filled_Icons" transform="translate(2.666667, 1.333333)" fill="#8C00DB">
                            <path d="M10.4713333,2.862 L7.80466667,0.195333333 C7.67933333,0.0706666667 7.51066667,0 7.33333333,0 L0.666666667,0 C0.298,0 0,0.298666667 0,0.666666667 L0,12.6666667 C0,13.0346667 0.298,13.3333333 0.666666667,13.3333333 L10,13.3333333 C10.3686667,13.3333333 10.6666667,13.0346667 10.6666667,12.6666667 L10.6666667,3.33333333 C10.6666667,3.15666667 10.5966667,2.98733333 10.4713333,2.862 Z M3.33333333,4.66666667 L4.66666667,4.66666667 L4.66666667,3.33333333 L6,3.33333333 L6,4.66666667 L7.33333333,4.66666667 L7.33333333,6 L6,6 L6,7.33333333 L4.66666667,7.33333333 L4.66666667,6 L3.33333333,6 L3.33333333,4.66666667 Z M8.66666667,11.3333333 L2,11.3333333 L2,10.6666667 L8.66666667,10.6666667 L8.66666667,11.3333333 Z M8.66666667,9.33333333 L2,9.33333333 L2,8.66666667 L8.66666667,8.66666667 L8.66666667,9.33333333 Z M7.33333333,3.33333333 L7.33333333,0.666666667 L10,3.33333333 L7.33333333,3.33333333 Z" id="Shape"></path>
                        </g>
                    </g>
                </g>
            </g>
        </g>
    </g>
</svg>