<?xml version="1.0" encoding="UTF-8"?>
<svg width="24px" height="24px" viewBox="0 0 24 24" version="1.1" xmlns="http://www.w3.org/2000/svg" xmlns:xlink="http://www.w3.org/1999/xlink">
    <title>DB845F50-F89A-42FA-AC9B-EE90E6C50132</title>
    <g id="aimedis" stroke="none" stroke-width="1" fill="none" fill-rule="evenodd">
        <g id="UI---Components" transform="translate(-88.000000, -6249.000000)">
            <g id="Group-18" transform="translate(64.000000, 3477.000000)">
                <g id="smoking-status" transform="translate(24.000000, 2772.000000)">
                    <circle id="Oval" fill="#B4ECF8" cx="12" cy="12" r="12"></circle>
                    <g id="sign-smoking" transform="translate(4.000000, 4.000000)">
                        <g id="Frame_-_24px">
                            <rect id="Rectangle" x="0.000666666667" y="0.000666666667" width="16" height="16.0006667"></rect>
                        </g>
                        <g id="Filled_Icons" transform="translate(1.333333, 1.333333)" fill="#00B0DB" fill-rule="nonzero">
                            <g id="Group">
                                <rect id="Rectangle" x="3.33333333" y="7.33333333" width="10" height="2"></rect>
                                <rect id="Rectangle" x="0" y="7.33333333" width="2" height="2"></rect>
                                <path d="M5.57333333,3.67933333 C6.324,2.678 6.12133333,1.25733333 5.11933333,0.506666667 C4.11866667,-0.244666667 2.698,-0.0406666667 1.94666667,0.96 C1.40733333,1.67933333 1.36733333,2.612 1.75466667,3.36066667 C1.43866667,3.42 1.142,3.58866667 0.933333333,3.86666667 C0.491333333,4.456 0.610666667,5.292 1.2,5.73333333 C1.78933333,6.17533333 2.62533333,6.056 3.06666667,5.46666667 C3.27466667,5.18933333 3.35466667,4.85733333 3.32266667,4.53666667 C4.15,4.69866667 5.034,4.4 5.57333333,3.67933333 Z" id="Path"></path>
                            </g>
                        </g>
                    </g>
                </g>
            </g>
        </g>
    </g>
</svg>