<svg width="20" height="18" viewBox="0 0 20 18" fill="none" xmlns="http://www.w3.org/2000/svg">
<path fill-rule="evenodd" clip-rule="evenodd" d="M10.0002 0.333374C10.3174 0.333374 10.6071 0.513434 10.7474 0.797854L13.1287 5.6221L18.454 6.40047C18.7678 6.44634 19.0284 6.66634 19.1262 6.96801C19.224 7.26969 19.1421 7.60073 18.915 7.82201L15.0623 11.5745L15.9715 16.8758C16.0252 17.1885 15.8966 17.5045 15.64 17.6909C15.3833 17.8774 15.0431 17.9019 14.7623 17.7543L10.0002 15.2499L5.23806 17.7543C4.9573 17.9019 4.61706 17.8774 4.36041 17.6909C4.10376 17.5045 3.97522 17.1885 4.02885 16.8758L4.93809 11.5745L1.08541 7.82201C0.858228 7.60073 0.776334 7.26969 0.874149 6.96801C0.971963 6.66634 1.23253 6.44634 1.54633 6.40047L6.87164 5.6221L9.25293 0.797854C9.39332 0.513434 9.683 0.333374 10.0002 0.333374ZM10.0002 3.04942L8.17244 6.75223C8.05116 6.99793 7.81684 7.16832 7.54571 7.20795L3.4572 7.80554L6.41496 10.6864C6.61153 10.8779 6.70124 11.1538 6.65486 11.4242L5.957 15.4931L9.61231 13.5708C9.85513 13.4431 10.1452 13.4431 10.3881 13.5708L14.0434 15.4931L13.3455 11.4242C13.2991 11.1538 13.3888 10.8779 13.5854 10.6864L16.5432 7.80554L12.4547 7.20795C12.1835 7.16832 11.9492 6.99793 11.8279 6.75223L10.0002 3.04942Z" fill="#FECA57"/>
</svg>
