<svg width="22" height="23" viewBox="0 0 22 23" fill="none" xmlns="http://www.w3.org/2000/svg">
<path d="M0 11.5C0 5.42487 4.92487 0.5 11 0.5C17.0751 0.5 22 5.42487 22 11.5C22 17.5751 17.0751 22.5 11 22.5C4.92487 22.5 0 17.5751 0 11.5Z" fill="#00ABAF"/>
<path fill-rule="evenodd" clip-rule="evenodd" d="M16.0791 7.58753C16.307 7.81533 16.307 8.18468 16.0791 8.41248L9.66248 14.8292C9.43467 15.057 9.06533 15.057 8.83752 14.8292L5.92085 11.9125C5.69305 11.6847 5.69305 11.3153 5.92085 11.0875C6.14866 10.8597 6.51801 10.8597 6.74581 11.0875L9.25 13.5917L15.2542 7.58753C15.482 7.35972 15.8513 7.35972 16.0791 7.58753Z" fill="white"/>
</svg>
