<?xml version="1.0" encoding="UTF-8"?>
<svg width="24px" height="24px" viewBox="0 0 24 24" version="1.1" xmlns="http://www.w3.org/2000/svg" xmlns:xlink="http://www.w3.org/1999/xlink">
    <title>4358884F-6951-41D5-9FCC-715D59BF754D</title>
    <g id="aimedis" stroke="none" stroke-width="1" fill="none" fill-rule="evenodd">
        <g id="UI---Patient---Journal" transform="translate(-360.000000, -992.000000)">
            <g id="Group-11-Copy-3" transform="translate(232.000000, 964.000000)">
                <g id="condition-diagnosis-family-anamnesis-diary" transform="translate(128.000000, 28.000000)">
                    <circle id="Oval" fill="#CAF5F6" cx="12" cy="12" r="12"></circle>
                    <g id="check-circle-1" transform="translate(4.000000, 4.000000)">
                        <g id="Frame_-_24px">
                            <rect id="Rectangle" x="0" y="0" width="16" height="16"></rect>
                        </g>
                        <g id="Line_Icons" transform="translate(1.361333, 2.138667)" fill="#00ABAF" fill-rule="nonzero">
                            <path d="M6,12.528 C2.692,12.528 0,9.83666667 0,6.528 C0,3.21933333 2.692,0.528 6,0.528 L6,1.86133333 C3.42666667,1.86133333 1.33333333,3.95466667 1.33333333,6.528 C1.33333333,9.10133333 3.42666667,11.1946667 6,11.1946667 C8.57333333,11.1946667 10.6666667,9.10133333 10.6666667,6.528 L12,6.528 C12,9.83666667 9.308,12.528 6,12.528 Z" id="Path"></path>
                            <polygon id="Path" points="6.728 9.10133333 3.41066667 5.784 4.58866667 4.60533333 6.60466667 6.62133333 12.0213333 0 13.3113333 1.056"></polygon>
                        </g>
                    </g>
                </g>
            </g>
        </g>
    </g>
</svg>