<?xml version="1.0" encoding="UTF-8"?>
<svg width="16px" height="16px" viewBox="0 0 16 16" version="1.1" xmlns="http://www.w3.org/2000/svg" xmlns:xlink="http://www.w3.org/1999/xlink">
    <title>AAF9019B-AD61-43D0-89ED-91F1BF65B5BC</title>
    <g id="aimedis" stroke="none" stroke-width="1" fill="none" fill-rule="evenodd">
        <g id="UI---Patient---Appointments---Arrange-(Location-allowed)" transform="translate(-865.000000, -314.000000)">
            <g id="Group-23" transform="translate(240.000000, 80.000000)">
                <g id="Group-22" transform="translate(0.000000, 204.000000)">
                    <g id="Group-20" transform="translate(625.000000, 0.000000)">
                        <g id="video-call-copy-2" transform="translate(0.000000, 30.000000)">
                            <g id="Frame_-_24px">
                                <rect id="Rectangle" x="0" y="0" width="16" height="16"></rect>
                            </g>
                            <g id="Filled_Icons" transform="translate(2.666667, 4.000000)" fill="#00ABAF" fill-rule="nonzero">
                                <path d="M11.0173333,1.43266667 C10.8206667,1.31066667 10.5746667,1.30066667 10.3686667,1.40333333 L8.66666667,2.25466667 L8.66666667,1.33333333 C8.66666667,0.598 8.06866667,0 7.33333333,0 L1.33333333,0 C0.598,0 0,0.598 0,1.33333333 L0,6.66666667 C0,7.40266667 0.598,8 1.33333333,8 L7.33333333,8 C8.06866667,8 8.66666667,7.40266667 8.66666667,6.66666667 L8.66666667,5.74533333 L10.3686667,6.596 C10.4626667,6.64333333 10.5646667,6.66666667 10.6666667,6.66666667 C10.7886667,6.66666667 10.91,6.63266667 11.0173333,6.56733333 C11.2133333,6.44533333 11.3333333,6.23133333 11.3333333,6 L11.3333333,2 C11.3333333,1.76866667 11.2133333,1.55466667 11.0173333,1.43266667 Z" id="Path"></path>
                            </g>
                        </g>
                    </g>
                </g>
            </g>
        </g>
    </g>
</svg>