<?xml version="1.0" encoding="UTF-8"?>
<svg width="16px" height="16px" viewBox="0 0 16 16" version="1.1" xmlns="http://www.w3.org/2000/svg" xmlns:xlink="http://www.w3.org/1999/xlink">
    <title>4C617A4B-1B33-4764-A02A-1C6C679C8C91</title>
    <g id="aimedis" stroke="none" stroke-width="1" fill="none" fill-rule="evenodd">
        <g id="UI---Aimedis-Online-Courses-(My-Courses)" transform="translate(-571.000000, -461.000000)">
            <g id="Group-12-Copy-12" transform="translate(547.000000, 264.000000)">
                <g id="vote-star-filled" transform="translate(24.000000, 197.000000)">
                    <g id="Frame_-_24px">
                        <rect id="Rectangle" x="0" y="0.000666666667" width="16" height="16"></rect>
                    </g>
                    <g id="Filled_Icons" transform="translate(1.333333, 1.333333)" fill="#FECA57" fill-rule="nonzero">
                        <path d="M13.2826667,4.412 C13.18,4.16333333 12.936,4.00066667 12.6666667,4.00066667 L9.07866667,4.00066667 L7.26266667,0.369333333 C7.03666667,-0.082 6.296,-0.082 6.07,0.369333333 L4.25466667,4.00066667 L0.666666667,4.00066667 C0.397333333,4.00066667 0.153333333,4.16333333 0.0506666667,4.412 C-0.052,4.66066667 0.00466666667,4.94866667 0.195333333,5.13866667 L3.25133333,8.19466667 L2.026,12.4846667 C1.94933333,12.7533333 2.048,13.0413333 2.27333333,13.206 C2.5,13.3713333 2.80466667,13.3773333 3.036,13.222 L6.66666667,10.802 L10.2966667,13.222 C10.4086667,13.2966667 10.5373333,13.334 10.6666667,13.334 C10.8046667,13.334 10.9426667,13.2913333 11.06,13.206 C11.2853333,13.0413333 11.384,12.7533333 11.3073333,12.4846667 L10.082,8.19466667 L13.138,5.13866667 C13.3286667,4.94866667 13.3853333,4.66066667 13.2826667,4.412 Z" id="Path"></path>
                    </g>
                </g>
            </g>
        </g>
    </g>
</svg>