<?xml version="1.0" encoding="UTF-8"?>
<svg width="16px" height="16px" viewBox="0 0 16 16" version="1.1" xmlns="http://www.w3.org/2000/svg" xmlns:xlink="http://www.w3.org/1999/xlink">
    <title>20C44109-2560-441E-B3CD-0567B06DEF4A</title>
    <g id="aimedis" stroke="none" stroke-width="1" fill="none" fill-rule="evenodd">
        <g id="UI---Aimedis-Online-Courses-(My-Courses)" transform="translate(-651.000000, -461.000000)">
            <g id="Group-12-Copy-12" transform="translate(547.000000, 264.000000)">
                <g id="Group-4" transform="translate(24.000000, 197.000000)">
                    <g id="vote-star-half" transform="translate(80.000000, 0.000000)">
                        <g id="Frame_-_24px">
                            <rect id="Rectangle" x="0" y="0.000666666667" width="16" height="16"></rect>
                        </g>
                        <g id="Filled_Icons" transform="translate(2.000000, 1.333333)" fill="#FECA57" fill-rule="nonzero">
                            <path d="M6.82066667,0.0186666667 C6.51733333,-0.0533333333 6.20866667,0.0926666667 6.07066667,0.368666667 L4.25466667,4.00066667 L0.666666667,4.00066667 C0.397333333,4.00066667 0.153333333,4.16333333 0.0506666667,4.412 C-0.052,4.66066667 0.00466666667,4.94866667 0.195333333,5.13866667 L3.25133333,8.19466667 L2.026,12.4846667 C1.94933333,12.7533333 2.048,13.0413333 2.27333333,13.206 C2.39066667,13.2913333 2.52866667,13.334 2.66666667,13.334 C2.79533333,13.334 2.92466667,13.2966667 3.03666667,13.222 L7.03666667,10.5553333 C7.222,10.4313333 7.33333333,10.2233333 7.33333333,10.0006667 L7.33333333,0.667333333 C7.33333333,0.358 7.12133333,0.0893333333 6.82066667,0.0186666667 Z" id="Path"></path>
                        </g>
                    </g>
                </g>
            </g>
        </g>
    </g>
</svg>