<?xml version="1.0" encoding="UTF-8"?>
<svg width="24px" height="24px" viewBox="0 0 24 24" version="1.1" xmlns="http://www.w3.org/2000/svg" xmlns:xlink="http://www.w3.org/1999/xlink">
    <title>CC653FD2-FA7F-4C12-8B68-ACCBC0CD3753</title>
    <g id="aimedis" stroke="none" stroke-width="1" fill="none" fill-rule="evenodd">
        <g id="UI---Components" transform="translate(-88.000000, -6208.000000)">
            <g id="Group-18" transform="translate(64.000000, 3477.000000)">
                <g id="weight-bmi" transform="translate(24.000000, 2731.000000)">
                    <circle id="Oval" fill="#B4ECF8" cx="12" cy="12" r="12"></circle>
                    <g id="weight" transform="translate(4.000000, 4.000000)">
                        <g id="Frame_-_24px">
                            <rect id="Rectangle" x="-0.000666666667" y="0" width="16" height="16.0006667"></rect>
                        </g>
                        <g id="Filled_Icons" transform="translate(2.000000, 1.333333)" fill="#00B0DB" fill-rule="nonzero">
                            <path d="M11.958,9.766 L9.958,4.43266667 C9.86,4.17266667 9.61133333,4 9.33333333,4 L8.29533333,4 C8.52533333,3.606 8.66666667,3.15466667 8.66666667,2.66666667 C8.66666667,1.196 7.47,0 6,0 C4.53,0 3.33333333,1.196 3.33333333,2.66666667 C3.33333333,3.15466667 3.47466667,3.606 3.70466667,4 L2.66666667,4 C2.38866667,4 2.14,4.17266667 2.042,4.43266667 L0.042,9.766 C0.0146666667,9.84066667 0,9.92 0,10 L0,12.6666667 C0,13.0346667 0.298,13.3333333 0.666666667,13.3333333 L11.3333333,13.3333333 C11.702,13.3333333 12,13.0346667 12,12.6666667 L12,10 C12,9.92 11.986,9.84066667 11.958,9.766 Z M5.85266667,11.1373333 L4.34466667,11.1373333 L3.38266667,9.76666667 L3.38266667,11.1373333 L2.14733333,11.1373333 L2.14733333,6.196 L3.38266667,6.196 L3.38266667,7.56733333 L4.344,6.196 L5.85266667,6.196 L4.12,8.66666667 L5.85266667,11.1373333 Z M4.66666667,2.66666667 C4.66666667,1.932 5.264,1.33333333 6,1.33333333 C6.736,1.33333333 7.33333333,1.932 7.33333333,2.66666667 C7.33333333,3.40133333 6.736,4 6,4 C5.264,4 4.66666667,3.40133333 4.66666667,2.66666667 Z M9.85266667,7.432 L7.382,7.432 L7.382,9.90133333 L8.618,9.90133333 L8.618,9.284 L8,9.284 L8,8.048 L9.85266667,8.048 L9.85266667,9.90066667 C9.85266667,10.5806667 9.29866667,11.1366667 8.61733333,11.1366667 L7.38133333,11.1366667 C6.70066667,11.1366667 6.14666667,10.5813333 6.14666667,9.90066667 L6.14666667,7.43133333 C6.14666667,6.74733333 6.70066667,6.19466667 7.38133333,6.19466667 L9.852,6.19466667 L9.852,7.432 L9.85266667,7.432 Z" id="Shape"></path>
                        </g>
                    </g>
                </g>
            </g>
        </g>
    </g>
</svg>