<?xml version="1.0" encoding="UTF-8"?>
<svg width="24px" height="24px" viewBox="0 0 24 24" version="1.1" xmlns="http://www.w3.org/2000/svg" xmlns:xlink="http://www.w3.org/1999/xlink">
    <title>68E498A4-764E-441A-BE3E-C55E0A1ED8B3</title>
    <g id="aimedis" stroke="none" stroke-width="1" fill="none" fill-rule="evenodd">
        <g id="UI---Components" transform="translate(-228.000000, -10308.000000)">
            <g id="Group-18" transform="translate(64.000000, 3477.000000)">
                <g id="smiley-sad" transform="translate(164.000000, 6831.000000)">
                    <g id="Frame_-_24px">
                        <rect id="Rectangle" x="0" y="0" width="24" height="24"></rect>
                    </g>
                    <g id="Filled_Icons" transform="translate(2.000000, 2.000000)" fill="#EE5253" fill-rule="nonzero">
                        <path d="M10,0 C4.477,0 0,4.477 0,10 C0,15.522 4.477,20 10,20 C15.523,20 20,15.522 20,10 C20,4.477 15.523,0 10,0 Z M12,5 L16,5 L16,7 L12,7 L12,5 Z M4,5 L8,5 L8,7 L4,7 L4,5 Z M14.441,15.998 C13.445,14.562 11.805,13.652 10,13.652 C8.192,13.652 6.552,14.564 5.557,16.001 L4,14.442 C5.411,12.615 7.605,11.481 10,11.481 C12.391,11.481 14.587,12.614 16,14.439 L14.441,15.998 Z M16,12 C15.171,12 14.5,11.329 14.5,10.5 C14.5,9.672 16,8 16,8 C16,8 17.5,9.672 17.5,10.5 C17.5,11.329 16.828,12 16,12 Z" id="Shape"></path>
                    </g>
                </g>
            </g>
        </g>
    </g>
</svg>