<?xml version="1.0" encoding="UTF-8"?>
<svg width="24px" height="24px" viewBox="0 0 24 24" version="1.1" xmlns="http://www.w3.org/2000/svg" xmlns:xlink="http://www.w3.org/1999/xlink">
    <title>F024DF30-5442-4A88-BF94-65371D9CFB9E</title>
    <g id="Virtual-Hospital" stroke="none" stroke-width="1" fill="none" fill-rule="evenodd">
        <g id="UI---AVH---Tasks-(Open-Task)" transform="translate(-479.000000, -432.000000)">
            <g id="Group-35" transform="translate(423.000000, 80.000000)">
                <g id="Group-30" transform="translate(32.000000, 344.000000)">
                    <g id="Nav-Journal/Inactive" transform="translate(16.000000, 0.000000)">
                        <g id="assign-to" transform="translate(8.000000, 8.000000)">
                            <g id="Frame_-_24px">
                                <rect id="Rectangle" x="0" y="0" width="24" height="24"></rect>
                            </g>
                            <g id="Line_Icons" transform="translate(4.000000, 3.000000)" fill="#BFC1C1" fill-rule="nonzero">
                                <g id="Group">
                                    <path d="M8,10 C10.757,10 13,7.757 13,5 C13,2.243 10.757,0 8,0 C5.243,0 3,2.243 3,5 C3,7.757 5.243,10 8,10 Z M8,2 C9.654,2 11,3.346 11,5 C11,6.654 9.654,8 8,8 C6.346,8 5,6.654 5,5 C5,3.346 6.346,2 8,2 Z" id="Shape"></path>
                                    <polygon id="Path" points="11 15 9 15 9 17 7 17 7 19 9 19 9 21 11 21 11 19 13 19 13 17 11 17"></polygon>
                                    <path d="M8,11 C3.289,11 0,13.467 0,17 L0,21 L6,21 L6,19 L2,19 L2,17 C2,14.645 4.467,13 8,13 C11.533,13 14,14.645 14,17 L14,21 L16,21 L16,17 C16,13.467 12.711,11 8,11 Z" id="Path"></path>
                                </g>
                            </g>
                        </g>
                    </g>
                </g>
            </g>
        </g>
    </g>
</svg>