<?xml version="1.0" encoding="UTF-8"?>
<svg width="16px" height="16px" viewBox="0 0 16 16" version="1.1" xmlns="http://www.w3.org/2000/svg" xmlns:xlink="http://www.w3.org/1999/xlink">
    <title>F632F30E-FA40-43E5-A835-4F25F3C2E352</title>
    <g id="Virtual-Hospital" stroke="none" stroke-width="1" fill="none" fill-rule="evenodd">
        <g id="UI---AVH---Patient-Flow-(Patient---Journal)" transform="translate(-464.000000, -693.000000)">
            <g id="Group-37" transform="translate(232.000000, 134.000000)">
                <g id="Group-30" transform="translate(232.000000, 470.000000)">
                    <g id="Group-13-Copy-2" transform="translate(0.000000, 88.000000)">
                        <g id="content-view-column" transform="translate(0.000000, 1.000000)">
                            <g id="Frame_-_24px">
                                <rect id="Rectangle" x="0" y="0.002" width="16" height="16"></rect>
                            </g>
                            <g id="Line_Icons" transform="translate(1.333333, 2.000000)" fill="#00B0DB" fill-rule="nonzero">
                                <g id="Group">
                                    <path d="M12,12 L10.6666667,12 C9.93066667,12 9.33333333,11.402 9.33333333,10.6666667 L9.33333333,1.33333333 C9.33333333,0.598 9.93066667,0 10.6666667,0 L12,0 C12.736,0 13.3333333,0.598 13.3333333,1.33333333 L13.3333333,10.6666667 C13.3333333,11.402 12.736,12 12,12 Z M10.6666667,1.33333333 L10.6666667,10.6666667 L11.998,10.6666667 L12,1.33333333 L10.6666667,1.33333333 Z" id="Shape"></path>
                                    <path d="M7.33333333,12 L6,12 C5.264,12 4.66666667,11.402 4.66666667,10.6666667 L4.66666667,1.33333333 C4.66666667,0.598 5.264,0 6,0 L7.33333333,0 C8.06933333,0 8.66666667,0.598 8.66666667,1.33333333 L8.66666667,10.6666667 C8.66666667,11.402 8.06933333,12 7.33333333,12 Z M6,1.33333333 L6,10.6666667 L7.33133333,10.6666667 L7.33333333,1.33333333 L6,1.33333333 Z" id="Shape"></path>
                                    <path d="M2.66666667,12 L1.33333333,12 C0.597333333,12 0,11.402 0,10.6666667 L0,1.33333333 C0,0.598 0.597333333,0 1.33333333,0 L2.66666667,0 C3.40266667,0 4,0.598 4,1.33333333 L4,10.6666667 C4,11.402 3.40266667,12 2.66666667,12 Z M1.33333333,1.33333333 L1.33333333,10.6666667 L2.66466667,10.6666667 L2.66666667,1.33333333 L1.33333333,1.33333333 Z" id="Shape"></path>
                                </g>
                            </g>
                        </g>
                    </g>
                </g>
            </g>
        </g>
    </g>
</svg>