<?xml version="1.0" encoding="UTF-8"?>
<svg width="20px" height="20px" viewBox="0 0 20 20" version="1.1" xmlns="http://www.w3.org/2000/svg" xmlns:xlink="http://www.w3.org/1999/xlink">
    <title>93C242E3-9A61-445D-91B6-B4F76441BB37</title>
    <g id="aimedis" stroke="none" stroke-width="1" fill="none" fill-rule="evenodd">
        <g id="Dark-Mode---Screen-Example" transform="translate(-493.000000, -279.000000)">
            <g id="Group-11" transform="translate(232.000000, 249.000000)">
                <g id="emergency-diagnosis" transform="translate(271.000000, 40.000000) scale(-1, 1) translate(-271.000000, -40.000000) translate(261.000000, 30.000000)">
                    <g id="Frame_-_24px">
                        <rect id="Rectangle" x="-0.000833333333" y="0" width="20.0008333" height="20.0008333"></rect>
                    </g>
                    <g id="Filled_Icons" transform="translate(1.666667, 2.500000)" fill="#EE5253" fill-rule="nonzero">
                        <g id="Group">
                            <path d="M10,0 C9.08,0 8.33333333,0.745833333 8.33333333,1.66666667 L11.6666667,1.66666667 C11.6666667,0.745833333 10.92,0 10,0 Z" id="Path"></path>
                            <path d="M5.83333333,11.82 L5.83333333,5.83333333 C5.83333333,5.37333333 5.46083333,5 5,5 L3.33333333,5 C3.11166667,5 2.90083333,5.08833333 2.74416667,5.24416667 L0.244166667,7.74416667 C0.0875,7.90083333 0,8.1125 0,8.33333333 L0,13.3333333 C0,13.7933333 0.3725,14.1666667 0.833333333,14.1666667 L2.5,14.1666667 C2.5,12.7858333 3.62,11.6666667 5,11.6666667 C5.29333333,11.6666667 5.57166667,11.7275 5.83333333,11.82 Z M4.16666667,9.16666667 L2.5,9.16666667 L2.5,7.5 L4.16666667,7.5 L4.16666667,9.16666667 Z" id="Shape"></path>
                            <circle id="Oval" cx="5" cy="14.1666667" r="1.66666667"></circle>
                            <path d="M15,2.5 L8.33333333,2.5 C7.41333333,2.5 6.66666667,3.24833333 6.66666667,4.16666667 L6.66666667,12.315 C7.17416667,12.7725 7.5,13.4291667 7.5,14.1666667 L10,14.1666667 C10,12.7858333 11.12,11.6666667 12.5,11.6666667 C13.8808333,11.6666667 15,12.7858333 15,14.1666667 L15.8333333,14.1666667 C16.2941667,14.1666667 16.6666667,13.7933333 16.6666667,13.3333333 L16.6666667,4.16666667 C16.6666667,3.24833333 15.92,2.5 15,2.5 Z M14.1666667,8.33333333 L12.5,8.33333333 L12.5,10 L10.8333333,10 L10.8333333,8.33333333 L9.16666667,8.33333333 L9.16666667,6.66666667 L10.8333333,6.66666667 L10.8333333,5 L12.5,5 L12.5,6.66666667 L14.1666667,6.66666667 L14.1666667,8.33333333 Z" id="Shape"></path>
                            <circle id="Oval" cx="12.5" cy="14.1666667" r="1.66666667"></circle>
                        </g>
                    </g>
                </g>
            </g>
        </g>
    </g>
</svg>