<?xml version="1.0" encoding="UTF-8"?>
<svg width="24px" height="24px" viewBox="0 0 24 24" version="1.1" xmlns="http://www.w3.org/2000/svg" xmlns:xlink="http://www.w3.org/1999/xlink">
    <title>46AD45C0-8FEA-4065-9291-54708484C6C3</title>
    <g id="Virtual-Hospital" stroke="none" stroke-width="1" fill="none" fill-rule="evenodd">
        <g id="UI---AVH---Statistics" transform="translate(-276.000000, -156.000000)">
            <g id="Group-13" transform="translate(232.000000, 120.000000)">
                <g id="Group-3" transform="translate(32.000000, 24.000000)">
                    <g id="hotel-bed-2" transform="translate(12.000000, 12.000000)">
                        <g id="Frame_-_24px">
                            <rect id="Rectangle" x="0" y="0.001" width="24" height="24.001"></rect>
                        </g>
                        <g id="Filled_Icons" transform="translate(2.000000, 4.000000)" fill="#00ABAF" fill-rule="nonzero">
                            <g id="Group">
                                <path d="M19,5 L18,5 C17.448,5 17,5.448 17,6 L17,7 L3,7 L3,1 C3,0.448 2.552,0 2,0 L1,0 C0.448,0 0,0.448 0,1 L0,14 C0,14.553 0.448,15 1,15 L2,15 C2.552,15 3,14.553 3,14 L3,13 L17,13 L17,14 C17,14.553 17.448,15 18,15 L19,15 C19.552,15 20,14.553 20,14 L20,6 C20,5.448 19.552,5 19,5 Z" id="Path"></path>
                                <path d="M10,5 C10,3.896 9.104,3 8,3 L4,3 L4,6 L10,6 L10,5 Z" id="Path"></path>
                            </g>
                        </g>
                    </g>
                </g>
            </g>
        </g>
    </g>
</svg>