<?xml version="1.0" encoding="UTF-8"?>
<svg width="24px" height="24px" viewBox="0 0 24 24" version="1.1" xmlns="http://www.w3.org/2000/svg" xmlns:xlink="http://www.w3.org/1999/xlink">
    <title>C151B5F4-5044-4BF7-B867-A369FE92CA48</title>
    <g id="Virtual-Hospital" stroke="none" stroke-width="1" fill="none" fill-rule="evenodd">
        <g id="Modals" transform="translate(-813.000000, -8103.000000)">
            <g id="Group-20" transform="translate(105.000000, 7672.000000)">
                <g id="Group-13" transform="translate(676.000000, 294.000000)">
                    <g id="important-notice" transform="translate(32.000000, 137.000000)">
                        <g id="Frame_-_24px">
                            <rect id="Rectangle" x="0" y="0.001" width="24" height="24"></rect>
                        </g>
                        <g id="Filled_Icons" transform="translate(2.000000, 2.000000)" fill="#EE5253" fill-rule="nonzero">
                            <path d="M19.895,18.553 L10.895,0.553 C10.556,-0.124 9.445,-0.124 9.106,0.553 L0.106,18.553 C-0.048,18.863 -0.033,19.23 0.15,19.527 C0.332,19.821 0.653,20 1,20 L19,20 C19.347,20 19.668,19.82 19.851,19.526 C20.033,19.23 20.049,18.864 19.895,18.553 Z M9,8 L11,8 L11,14 L9,14 L9,8 Z M10,17.25 C9.31,17.25 8.75,16.691 8.75,16 C8.75,15.31 9.31,14.75 10,14.75 C10.69,14.75 11.25,15.31 11.25,16 C11.25,16.691 10.69,17.25 10,17.25 Z" id="Shape"></path>
                        </g>
                    </g>
                </g>
            </g>
        </g>
    </g>
</svg>