<?xml version="1.0" encoding="UTF-8"?>
<svg width="24px" height="24px" viewBox="0 0 24 24" version="1.1" xmlns="http://www.w3.org/2000/svg" xmlns:xlink="http://www.w3.org/1999/xlink">
    <title>CC420F36-DAC3-45E0-939B-085A2845307C</title>
    <g id="Virtual-Hospital" stroke="none" stroke-width="1" fill="none" fill-rule="evenodd">
        <g id="UI---AVH---Patient-Flow-(Patient---Documents)" transform="translate(-694.000000, -473.000000)">
            <g id="Table-Line-Copy-3" transform="translate(670.000000, 473.000000)">
                <g id="jpg" transform="translate(24.000000, 0.000000)">
                    <rect id="Rectangle" x="0" y="0" width="24" height="24"></rect>
                    <g id="Group-6" transform="translate(2.000000, 2.000000)" fill-rule="nonzero">
                        <g id="Group-4" transform="translate(4.000000, 0.000000)">
                            <path d="M1.25,0 C0.5625,0 0,0.5625 0,1.25 L0,18.75 C0,19.4375 0.5625,20 1.25,20 L13.75,20 C14.4375,20 15,19.4375 15,18.75 L15,5 L10,0 L1.25,0 Z" id="Path" fill="#E2E5E7"></path>
                            <path d="M11.25,5 L15,5 L10,0 L10,3.75 C10,4.4375 10.5625,5 11.25,5 Z" id="Path" fill="#B0B7BD"></path>
                            <polygon id="Path" fill="#CAD1D8" points="15 8.75 11.25 5 15 5"></polygon>
                            <path d="M11.875,16.875 L0,16.875 L0,17.5 L11.875,17.5 C12.21875,17.5 12.5,17.21875 12.5,16.875 L12.5,16.25 C12.5,16.59375 12.21875,16.875 11.875,16.875 Z" id="Path" fill="#CAD1D8"></path>
                        </g>
                        <path d="M18,17.25 C18,17.8 17.6625,18.25 17.25,18.25 L0.75,18.25 C0.3375,18.25 0,17.8 0,17.25 L0,7.25 C0,6.7 0.3375,6.25 0.75,6.25 L17.25,6.25 C17.6625,6.25 18,6.7 18,7.25 L18,17.25 Z" id="Path" fill="#0883A1"></path>
                        <path d="M4.13582031,14.9166992 C4.45938802,14.9166992 4.75276367,14.8483398 5.01594727,14.7116211 C5.27913086,14.5749023 5.48420898,14.3823568 5.63118164,14.1339844 C5.7781543,13.885612 5.85164063,13.6030599 5.85164063,13.2863281 L5.85164063,13.2863281 L5.85164063,9.87177734 L4.65535156,9.87177734 L4.65535156,13.2863281 C4.65535156,13.5096354 4.61034831,13.6833822 4.5203418,13.8075684 C4.43033529,13.9317546 4.30216146,13.9938477 4.13582031,13.9938477 C3.95125,13.9938477 3.8196582,13.9425781 3.74104492,13.8400391 C3.66243164,13.7375 3.623125,13.5722982 3.623125,13.3444336 L3.623125,13.3444336 L2.42,13.3444336 C2.42,13.8457357 2.57039063,14.2331055 2.87117188,14.506543 C3.17195313,14.7799805 3.5935026,14.9166992 4.13582031,14.9166992 Z M7.80671875,14.8483398 L7.80671875,13.1598633 L8.57234375,13.1598633 C9.17846354,13.1598633 9.65527018,13.0145996 10.0027637,12.7240723 C10.3502572,12.4335449 10.5240039,12.0456055 10.5240039,11.5602539 C10.5240039,11.2321289 10.4436816,10.9387533 10.2830371,10.680127 C10.1223926,10.4215007 9.89566732,10.2221191 9.60286133,10.0819824 C9.31005534,9.9418457 8.97338542,9.87177734 8.59285156,9.87177734 L8.59285156,9.87177734 L6.60701172,9.87177734 L6.60701172,14.8483398 L7.80671875,14.8483398 Z M8.59285156,12.2335937 L7.80671875,12.2335937 L7.80671875,10.7980469 L8.60652344,10.7980469 C8.82299479,10.8003255 8.99389323,10.8709635 9.11921875,11.0099609 C9.24454427,11.1489583 9.30720703,11.334668 9.30720703,11.5670898 C9.30720703,11.7790039 9.24625326,11.9430664 9.1243457,12.0592773 C9.00243815,12.1754883 8.82527344,12.2335937 8.59285156,12.2335937 L8.59285156,12.2335937 Z M13.2583789,14.9166992 C13.682207,14.9166992 14.0718555,14.8540365 14.4273242,14.7287109 C14.782793,14.6033854 15.0528125,14.4381836 15.2373828,14.2331055 L15.2373828,14.2331055 L15.2373828,12.1891602 L13.2036914,12.1891602 L13.2036914,13.0128906 L14.0376758,13.0128906 L14.0376758,13.7853516 C13.8850065,13.924349 13.6525846,13.9938477 13.3404102,13.9938477 C12.9758268,13.9938477 12.7086556,13.8690918 12.5388965,13.6195801 C12.3691374,13.3700684 12.2842578,12.9969401 12.2842578,12.5001953 L12.2842578,12.5001953 L12.2842578,12.1994141 C12.2865365,11.7254557 12.369707,11.3608724 12.5337695,11.1056641 C12.697832,10.8504557 12.9302539,10.7228516 13.2310352,10.7228516 C13.4816862,10.7228516 13.6753711,10.7820964 13.8120898,10.9005859 C13.9488086,11.0190755 14.0376758,11.2173177 14.0786914,11.4953125 L14.0786914,11.4953125 L15.2339648,11.4953125 C15.1769987,10.932487 14.9770475,10.5092285 14.6341113,10.2255371 C14.2911751,9.9418457 13.8098112,9.8 13.1900195,9.8 C12.7661914,9.8 12.3930632,9.89855143 12.0706348,10.0956543 C11.7482064,10.2927572 11.5004036,10.5741699 11.3272266,10.9398926 C11.1540495,11.3056152 11.0674609,11.733431 11.0674609,12.2233398 L11.0674609,12.2233398 L11.0708789,12.6540039 C11.0982227,13.3649414 11.3067188,13.9197917 11.6963672,14.3185547 C12.0860156,14.7173177 12.6066862,14.9166992 13.2583789,14.9166992 Z" id="JPG" fill="#FFFFFF"></path>
                    </g>
                </g>
            </g>
        </g>
    </g>
</svg>