<?xml version="1.0" encoding="UTF-8"?>
<svg width="24px" height="24px" viewBox="0 0 24 24" version="1.1" xmlns="http://www.w3.org/2000/svg" xmlns:xlink="http://www.w3.org/1999/xlink">
    <title>997691D9-3DB8-4071-B0DC-7EF7C1DAD4F5</title>
    <g id="aimedis" stroke="none" stroke-width="1" fill="none" fill-rule="evenodd">
        <g id="UI---Components" transform="translate(-104.000000, -5763.000000)">
            <g id="Group-18" transform="translate(64.000000, 3477.000000)">
                <g id="Nav-Journal/Inactive" transform="translate(31.000000, 2278.000000)">
                    <g id="Group" transform="translate(1.000000, 0.000000)">
                        <g id="nav-journal" transform="translate(8.000000, 8.000000)">
                            <rect id="Rectangle" x="0" y="0.003" width="24" height="24"></rect>
                            <path d="M19,8.001 L5,8.001 C3.896,8.001 3,7.104 3,6.001 L3,4.001 C3,2.899 3.896,2.001 5,2.001 L19,2.001 C20.104,2.001 21,2.899 21,4.001 L21,6.001 C21,7.104 20.104,8.001 19,8.001 Z M5,4.001 L5,6.001 L19,6.001 L19,4.001 L5,4.001 Z" id="Shape" fill="#BFC1C1" fill-rule="nonzero"></path>
                            <g id="Group" transform="translate(3.000000, 9.000000)" fill="#BFC1C1" fill-rule="nonzero">
                                <path d="M16,6.001 L2,6.001 C0.896,6.001 0,5.104 0,4.001 L0,2.001 C0,0.899 0.896,0.001 2,0.001 L16,0.001 C17.104,0.001 18,0.899 18,2.001 L18,4.001 C18,5.104 17.104,6.001 16,6.001 Z M2,2.001 L2,4.001 L16,4.001 L16,2.001 L2,2.001 Z" id="Shape"></path>
                                <path d="M16,13.001 L2,13.001 C0.896,13.001 0,12.104 0,11.001 L0,9.001 C0,7.898 0.896,7.001 2,7.001 L16,7.001 C17.104,7.001 18,7.898 18,9.001 L18,11.001 C18,12.104 17.104,13.001 16,13.001 Z M2,9.001 L2,11.001 L16,11.001 L16,9.001 L2,9.001 Z" id="Shape"></path>
                            </g>
                        </g>
                    </g>
                </g>
            </g>
        </g>
    </g>
</svg>