<?xml version="1.0" encoding="UTF-8"?>
<svg width="24px" height="24px" viewBox="0 0 24 24" version="1.1" xmlns="http://www.w3.org/2000/svg" xmlns:xlink="http://www.w3.org/1999/xlink">
    <title>DD4251A0-CA64-461F-BD8D-1F5ADDAD36F5</title>
    <g id="Virtual-Hospital" stroke="none" stroke-width="1" fill="none" fill-rule="evenodd">
        <g id="UI---AVH---Patient-Flow-(Patient---Documents)" transform="translate(-694.000000, -424.000000)">
            <g id="Table-Line-Copy-2" transform="translate(670.000000, 424.000000)">
                <g id="pdf" transform="translate(24.000000, 0.000000)">
                    <rect id="Rectangle" x="0" y="0" width="24" height="24"></rect>
                    <g id="Group-6" transform="translate(2.000000, 2.000000)" fill-rule="nonzero">
                        <g id="Group-4" transform="translate(4.000000, 0.000000)">
                            <path d="M1.25,0 C0.5625,0 0,0.5625 0,1.25 L0,18.75 C0,19.4375 0.5625,20 1.25,20 L13.75,20 C14.4375,20 15,19.4375 15,18.75 L15,5 L10,0 L1.25,0 Z" id="Path" fill="#E2E5E7"></path>
                            <path d="M11.25,5 L15,5 L10,0 L10,3.75 C10,4.4375 10.5625,5 11.25,5 Z" id="Path" fill="#B0B7BD"></path>
                            <polygon id="Path" fill="#CAD1D8" points="15 8.75 11.25 5 15 5"></polygon>
                            <path d="M11.875,16.875 L0,16.875 L0,17.5 L11.875,17.5 C12.21875,17.5 12.5,17.21875 12.5,16.875 L12.5,16.25 C12.5,16.59375 12.21875,16.875 11.875,16.875 Z" id="Path" fill="#CAD1D8"></path>
                        </g>
                        <path d="M18,17.25 C18,17.8 17.6625,18.25 17.25,18.25 L0.75,18.25 C0.3375,18.25 0,17.8 0,17.25 L0,7.25 C0,6.7 0.3375,6.25 0.75,6.25 L17.25,6.25 C17.6625,6.25 18,6.7 18,7.25 L18,17.25 Z" id="Path" fill="#B02615"></path>
                        <path d="M3.81005859,14.78125 L3.81005859,13.0927734 L4.57568359,13.0927734 C5.18180339,13.0927734 5.65861003,12.9475098 6.00610352,12.6569824 C6.35359701,12.3664551 6.52734375,11.9785156 6.52734375,11.4931641 C6.52734375,11.1650391 6.44702148,10.8716634 6.28637695,10.6130371 C6.12573242,10.3544108 5.89900716,10.1550293 5.60620117,10.0148926 C5.31339518,9.87475586 4.97672526,9.8046875 4.59619141,9.8046875 L4.59619141,9.8046875 L2.61035156,9.8046875 L2.61035156,14.78125 L3.81005859,14.78125 Z M4.59619141,12.1665039 L3.81005859,12.1665039 L3.81005859,10.730957 L4.60986328,10.730957 C4.82633464,10.7332357 4.99723307,10.8038737 5.12255859,10.9428711 C5.24788411,11.0818685 5.31054688,11.2675781 5.31054688,11.5 C5.31054688,11.7119141 5.2495931,11.8759766 5.12768555,11.9921875 C5.00577799,12.1083984 4.82861328,12.1665039 4.59619141,12.1665039 L4.59619141,12.1665039 Z M8.80371094,14.78125 C9.234375,14.7789714 9.6245931,14.6758626 9.97436523,14.4719238 C10.3241374,14.267985 10.5952962,13.9854329 10.7878418,13.6242676 C10.9803874,13.2631022 11.0766602,12.8546549 11.0766602,12.3989258 L11.0766602,12.3989258 L11.0766602,12.1699219 C11.0743815,11.71875 10.9746908,11.3114421 10.7775879,10.947998 C10.580485,10.584554 10.3064779,10.3031413 9.95556641,10.1037598 C9.60465495,9.90437826 9.2093099,9.8046875 8.76953125,9.8046875 L8.76953125,9.8046875 L7.16650391,9.8046875 L7.16650391,14.78125 L8.80371094,14.78125 Z M8.78320312,13.8583984 L8.36621094,13.8583984 L8.36621094,10.730957 L8.76953125,10.730957 C9.12272135,10.730957 9.39160156,10.8528646 9.57617188,11.0966797 C9.76074219,11.3404948 9.85302734,11.7027995 9.85302734,12.1835938 L9.85302734,12.1835938 L9.85302734,12.3989258 C9.85302734,12.8819987 9.76074219,13.2460124 9.57617188,13.4909668 C9.39160156,13.7359212 9.12727865,13.8583984 8.78320312,13.8583984 L8.78320312,13.8583984 Z M12.8916016,14.78125 L12.8916016,12.7988281 L14.8261719,12.7988281 L14.8261719,11.8759766 L12.8916016,11.8759766 L12.8916016,10.730957 L15.0209961,10.730957 L15.0209961,9.8046875 L11.6918945,9.8046875 L11.6918945,14.78125 L12.8916016,14.78125 Z" id="PDF" fill="#FFFFFF"></path>
                    </g>
                </g>
            </g>
        </g>
    </g>
</svg>