<?xml version="1.0" encoding="UTF-8"?>
<svg width="24px" height="24px" viewBox="0 0 24 24" version="1.1" xmlns="http://www.w3.org/2000/svg" xmlns:xlink="http://www.w3.org/1999/xlink">
    <title>5D25437B-D7D6-4D96-BD9C-592E42C9658D</title>
    <g id="aimedis" stroke="none" stroke-width="1" fill="none" fill-rule="evenodd">
        <g id="UI---Patient---My-Profile" transform="translate(-490.000000, -225.000000)">
            <g id="Group-7" transform="translate(232.000000, 48.000000)">
                <g id="Group-5" transform="translate(24.000000, 164.000000)">
                    <g id="qr-code" transform="translate(234.000000, 13.000000)">
                        <g id="Frame_-_24px">
                            <rect id="Rectangle" x="0" y="0" width="24" height="24"></rect>
                        </g>
                        <g id="Line_Icons" transform="translate(2.000000, 2.000000)" fill="#BFC1C1" fill-rule="nonzero">
                            <g id="Group">
                                <path d="M1,8 L7,8 C7.552,8 8,7.553 8,7 L8,1 C8,0.448 7.552,0 7,0 L1,0 C0.448,0 0,0.447 0,1 L0,7 C0,7.552 0.448,8 1,8 Z M2,2 L6,2 L6,6 L2,6 L2,2 Z" id="Shape"></path>
                                <path d="M19,0 L15,0 C14.448,0 14,0.448 14,1 L14,5 C14,5.553 14.448,6 15,6 L19,6 C19.552,6 20,5.553 20,5 L20,1 C20,0.447 19.552,0 19,0 Z M18,4 L16,4 L16,2 L18,2 L18,4 Z" id="Shape"></path>
                                <path d="M5,14 L1,14 C0.448,14 0,14.448 0,15 L0,19 C0,19.553 0.448,20 1,20 L5,20 C5.552,20 6,19.553 6,19 L6,15 C6,14.447 5.552,14 5,14 Z M4,18 L2,18 L2,16 L4,16 L4,18 Z" id="Shape"></path>
                                <rect id="Rectangle" x="9" y="0" width="4" height="2"></rect>
                                <path d="M10,7 L13,7 L13,5 L11,5 L11,3 L9,3 L9,6 C9,6.552 9.448,7 10,7 Z" id="Path"></path>
                                <path d="M14,8 L14,12 C14,12.553 14.448,13 15,13 L18,13 L18,14 L20,14 L20,12 C20,11.448 19.552,11 19,11 L16,11 L16,9 L20,9 L20,7 L15,7 C14.448,7 14,7.447 14,8 Z" id="Path"></path>
                                <path d="M8,13 L8,10 C8,9.448 7.552,9 7,9 L0,9 L0,11 L2,11 L2,13 L4,13 L4,11 L6,11 L6,13 L8,13 Z" id="Path"></path>
                                <rect id="Rectangle" x="9" y="11" width="4" height="2"></rect>
                                <rect id="Rectangle" x="10" y="8" width="3" height="2"></rect>
                                <path d="M13,16 L13,18 L9,18 L9,17 L7,17 L7,19 C7,19.553 7.448,20 8,20 L14,20 C14.552,20 15,19.553 15,19 L15,17 L20,17 L20,15 L14,15 C13.448,15 13,15.447 13,16 Z" id="Path"></path>
                                <rect id="Rectangle" x="10" y="14" width="2" height="3"></rect>
                                <rect id="Rectangle" x="7" y="14" width="2" height="2"></rect>
                                <rect id="Rectangle" x="16" y="18" width="4" height="2"></rect>
                            </g>
                        </g>
                    </g>
                </g>
            </g>
        </g>
    </g>
</svg>