<?xml version="1.0" encoding="UTF-8"?>
<svg width="16px" height="16px" viewBox="0 0 16 16" version="1.1" xmlns="http://www.w3.org/2000/svg" xmlns:xlink="http://www.w3.org/1999/xlink">
    <title>728A94B0-4192-4F37-8C88-F6BC3B87B423</title>
    <g id="Virtual-Hospital" stroke="none" stroke-width="1" fill="none" fill-rule="evenodd">
        <g id="UI---AVH---Rooms-&amp;-Beds-(Rooms)" transform="translate(-484.000000, -521.000000)">
            <g id="Patient-Card-Copy-7" transform="translate(264.000000, 377.000000)">
                <g id="remove-1" transform="translate(220.000000, 144.000000)">
                    <g id="Frame_-_24px">
                        <rect id="Rectangle" x="0" y="0.000666666667" width="16" height="16"></rect>
                    </g>
                    <g id="Filled_Icons" transform="translate(1.333333, 1.333333)" fill="#EE5253" fill-rule="nonzero">
                        <path d="M6.69466667,0 C3.01266667,0 0.028,2.98466667 0.028,6.66666667 C0.028,10.3486667 3.01266667,13.3333333 6.69466667,13.3333333 C10.3766667,13.3333333 13.3613333,10.3486667 13.3613333,6.66666667 C13.3613333,2.98466667 10.376,0 6.69466667,0 Z M9.83266667,8.862 L8.89,9.80466667 L6.69466667,7.61 L4.49933333,9.80466667 L3.55666667,8.862 L5.75133333,6.66666667 L3.556,4.47133333 L4.49866667,3.52933333 L6.694,5.72466667 L8.88933333,3.52933333 L9.832,4.47133333 L7.63733333,6.66666667 L9.83266667,8.862 Z" id="Shape"></path>
                    </g>
                </g>
            </g>
        </g>
    </g>
</svg>