<?xml version="1.0" encoding="UTF-8"?>
<svg width="10px" height="10px" viewBox="0 0 10 10" version="1.1" xmlns="http://www.w3.org/2000/svg" xmlns:xlink="http://www.w3.org/1999/xlink">
    <title>ECCF33A4-C921-499A-8B59-6EDF6294591E</title>
    <g id="Virtual-Hospital" stroke="none" stroke-width="1" fill="none" fill-rule="evenodd">
        <g id="UI---AVH---Billing-(New-invoice)" transform="translate(-660.000000, -263.000000)">
            <g id="Group-8" transform="translate(232.000000, 192.000000)">
                <g id="Input/Dropdown" transform="translate(262.000000, 30.000000)">
                    <g id="Label" transform="translate(4.000000, 26.000000)">
                        <g id="remove-3" transform="translate(162.000000, 15.000000)">
                            <g id="Frame_-_24px">
                                <rect id="Rectangle" x="0" y="0.000416666667" width="10" height="10"></rect>
                            </g>
                            <g id="Filled_Icons" transform="translate(1.250000, 1.250000)" fill="#7F8383" fill-rule="nonzero">
                                <path d="M5.5175,3.75041667 L6.99083333,2.2775 C7.15375,2.11458333 7.15375,1.85125 6.99083333,1.68833333 L5.81208333,0.509583333 C5.64916667,0.346666667 5.38583333,0.346666667 5.22291667,0.509583333 L3.75,1.98291667 L2.27708333,0.509583333 C2.11416667,0.346666667 1.85083333,0.346666667 1.68791667,0.509583333 L0.509166667,1.68833333 C0.34625,1.85125 0.34625,2.11458333 0.509166667,2.2775 L1.9825,3.75041667 L0.509166667,5.22333333 C0.34625,5.38625 0.34625,5.64958333 0.509166667,5.8125 L1.68791667,6.99125 C1.85083333,7.15416667 2.11416667,7.15416667 2.27708333,6.99125 L3.75,5.51791667 L5.22291667,6.99125 C5.38583333,7.15416667 5.64916667,7.15416667 5.81208333,6.99125 L6.99083333,5.8125 C7.15375,5.64958333 7.15375,5.38625 6.99083333,5.22333333 L5.5175,3.75041667 Z" id="Path"></path>
                            </g>
                        </g>
                    </g>
                </g>
            </g>
        </g>
    </g>
</svg>