<?xml version="1.0" encoding="UTF-8"?>
<svg width="16px" height="16px" viewBox="0 0 16 16" version="1.1" xmlns="http://www.w3.org/2000/svg" xmlns:xlink="http://www.w3.org/1999/xlink">
    <title>BD75BD1C-93F9-4F02-8411-D13AE201F7A5</title>
    <g id="Virtual-Hospital" stroke="none" stroke-width="1" fill="none" fill-rule="evenodd">
        <g id="UI---AVH---Patient-Flow-(List-view)" transform="translate(-705.000000, -835.000000)">
            <g id="Group-6-Copy-3" transform="translate(264.000000, 806.000000)">
                <g id="Group-4" transform="translate(16.000000, 22.000000)">
                    <g id="Group-3" transform="translate(301.000000, 7.000000)">
                        <g id="room" transform="translate(124.000000, 0.000000)">
                            <g id="Frame_-_24px">
                                <rect id="Rectangle" x="0" y="0" width="16" height="16.0006667"></rect>
                            </g>
                            <g id="Line_Icons" transform="translate(2.000000, 1.333333)" fill="#7F8383" fill-rule="nonzero">
                                <g id="Group">
                                    <path d="M10,12.666 L10,1.33266667 C10,0.598 9.402,-0.000666666667 8.66666667,-0.000666666667 L3.33333333,-0.000666666667 C2.598,-0.000666666667 2,0.598 2,1.33266667 L2,12.666 L0,12.666 L0,13.9993333 L12,13.9993333 L12,12.666 L10,12.666 Z M3.33333333,12.666 L3.33333333,1.33266667 L8.66666667,1.33266667 L8.66733333,12.666 L3.33333333,12.666 Z" id="Shape"></path>
                                    <rect id="Rectangle" x="5.66666667" y="2.33266667" width="2.33333333" height="5.66666667"></rect>
                                </g>
                            </g>
                        </g>
                    </g>
                </g>
            </g>
        </g>
    </g>
</svg>