<?xml version="1.0" encoding="UTF-8"?>
<svg width="20px" height="20px" viewBox="0 0 20 20" version="1.1" xmlns="http://www.w3.org/2000/svg" xmlns:xlink="http://www.w3.org/1999/xlink">
    <title>42AACD6A-AF27-4BB7-8F63-9110107E9441</title>
    <g id="aimedis" stroke="none" stroke-width="1" fill="none" fill-rule="evenodd">
        <g id="UI---Components" transform="translate(-765.000000, -5894.000000)">
            <g id="search-entries" transform="translate(765.000000, 5894.000000)">
                <g id="Frame_-_24px">
                    <rect id="Rectangle" x="0" y="0" width="20" height="20"></rect>
                </g>
                <g id="Line_Icons" transform="translate(1.666667, 1.666667)" fill="#7F8383" fill-rule="nonzero">
                    <g id="Group">
                        <path d="M16.3808333,15.2441667 L11.9116667,10.775 C12.8308333,9.6075 13.3341667,8.17666667 13.3341667,6.66666667 C13.3341667,4.88583333 12.64,3.21166667 11.3808333,1.95333333 C10.1216667,0.693333333 8.44833333,0 6.6675,0 C4.88666667,0 3.2125,0.693333333 1.95416667,1.95333333 C0.694166667,3.21166667 0.000833333333,4.88583333 0.000833333333,6.66666667 C0.000833333333,8.4475 0.695,10.1216667 1.95416667,11.38 C3.2125,12.64 4.88666667,13.3333333 6.6675,13.3333333 C8.15666667,13.3333333 9.5675,12.8416667 10.7275,11.9466667 L15.2033333,16.4225 L16.3808333,15.2441667 Z M3.1325,10.2016667 C2.1875,9.2575 1.6675,8.0025 1.6675,6.66666667 C1.6675,5.33 2.1875,4.07583333 3.1325,3.13166667 C4.07666667,2.18666667 5.33166667,1.66666667 6.6675,1.66666667 C8.00333333,1.66666667 9.25833333,2.18666667 10.2025,3.1325 C11.1475,4.07583333 11.6675,5.33083333 11.6675,6.66666667 C11.6675,8.0025 11.1475,9.2575 10.2025,10.2016667 C9.25833333,11.1466667 8.00333333,11.6666667 6.6675,11.6666667 C5.33166667,11.6666667 4.07666667,11.1466667 3.1325,10.2016667 Z" id="Shape"></path>
                    </g>
                </g>
            </g>
        </g>
    </g>
</svg>