<?xml version="1.0" encoding="UTF-8"?>
<svg width="16px" height="16px" viewBox="0 0 16 16" version="1.1" xmlns="http://www.w3.org/2000/svg" xmlns:xlink="http://www.w3.org/1999/xlink">
    <title>E98561F3-B98D-4E6A-B411-20580CCD4C4F</title>
    <g id="Virtual-Hospital" stroke="none" stroke-width="1" fill="none" fill-rule="evenodd">
        <g id="Components-AVH" transform="translate(-562.000000, -2606.000000)">
            <g id="Group-32" transform="translate(64.000000, 2423.000000)">
                <g id="Group-11-Copy-10" transform="translate(474.000000, 95.000000)">
                    <g id="share" transform="translate(24.000000, 88.000000)">
                        <g id="Frame_-_24px">
                            <rect id="Rectangle" x="0" y="0.000666666667" width="16" height="16"></rect>
                        </g>
                        <g id="Filled_Icons" transform="translate(1.333333, 1.333333)" fill="#BFC1C1" fill-rule="nonzero">
                            <path d="M10.2666667,7.86666667 C9.54666667,7.86666667 8.90706667,8.19126667 8.46666667,8.69526667 L5.41146667,7.16826667 C5.44686667,7.00686667 5.46666667,6.83946667 5.46666667,6.66666667 C5.46666667,6.49386667 5.44686667,6.32706667 5.41146667,6.16446667 L8.46666667,4.63746667 C8.90706667,5.14146667 9.54666667,5.46666667 10.2666667,5.46666667 C11.5896667,5.46666667 12.6666667,4.38966667 12.6666667,3.06666667 C12.6666667,1.74306667 11.5896667,0.666666667 10.2666667,0.666666667 C8.94366667,0.666666667 7.86666667,1.74306667 7.86666667,3.06666667 C7.86666667,3.23886667 7.88646667,3.40626667 7.92186667,3.56826667 L4.86666667,5.09526667 C4.42626667,4.59186667 3.78666667,4.26666667 3.06666667,4.26666667 C1.74366667,4.26666667 0.666666667,5.34306667 0.666666667,6.66666667 C0.666666667,7.98966667 1.74366667,9.06666667 3.06666667,9.06666667 C3.78666667,9.06666667 4.42626667,8.74086667 4.86666667,8.23686667 L7.92186667,9.76446667 C7.88646667,9.92706667 7.86666667,10.0944667 7.86666667,10.2666667 C7.86666667,11.5896667 8.94366667,12.6666667 10.2666667,12.6666667 C11.5896667,12.6666667 12.6666667,11.5896667 12.6666667,10.2666667 C12.6666667,8.94366667 11.5896667,7.86666667 10.2666667,7.86666667 Z" id="Path"></path>
                        </g>
                    </g>
                </g>
            </g>
        </g>
    </g>
</svg>