<?xml version="1.0" encoding="UTF-8"?>
<svg width="20px" height="20px" viewBox="0 0 20 20" version="1.1" xmlns="http://www.w3.org/2000/svg" xmlns:xlink="http://www.w3.org/1999/xlink">
    <title>00D222F0-3FAF-4001-85F5-FB1A78247358</title>
    <g id="Virtual-Hospital" stroke="none" stroke-width="1" fill="none" fill-rule="evenodd">
        <g id="UI---AVH---Patient-Flow-(List-view)" transform="translate(-1318.000000, -142.000000)">
            <g id="Group-9" transform="translate(232.000000, 120.000000)">
                <g id="Button/Edit-Copy" transform="translate(1080.000000, 16.000000)">
                    <g id="timeline-view-active" transform="translate(6.000000, 6.000000)">
                        <g id="Frame_-_24px">
                            <rect id="Rectangle" x="0" y="0.0025" width="20" height="20"></rect>
                        </g>
                        <g id="Filled_Icons" transform="translate(1.666667, 1.666667)" fill="#00ABAF" fill-rule="nonzero">
                            <g id="Group">
                                <path d="M15,0 L7.5,0 C6.58,0 5.83333333,0.748333333 5.83333333,1.66666667 L5.83333333,3.33333333 C5.83333333,4.25166667 6.58,5 7.5,5 L15,5 C15.92,5 16.6666667,4.2525 16.6666667,3.33333333 L16.6666667,1.66666667 C16.6666667,0.748333333 15.92,0 15,0 Z" id="Path"></path>
                                <path d="M15,5.83333333 L7.5,5.83333333 C6.58,5.83333333 5.83333333,6.58166667 5.83333333,7.5 L5.83333333,9.16666667 C5.83333333,10.085 6.58,10.8333333 7.5,10.8333333 L15,10.8333333 C15.92,10.8333333 16.6666667,10.085 16.6666667,9.16666667 L16.6666667,7.5 C16.6666667,6.58166667 15.92,5.83333333 15,5.83333333 Z" id="Path"></path>
                                <path d="M15,11.6666667 L7.5,11.6666667 C6.58,11.6666667 5.83333333,12.415 5.83333333,13.3333333 L5.83333333,15 C5.83333333,15.9191667 6.58,16.6666667 7.5,16.6666667 L15,16.6666667 C15.92,16.6666667 16.6666667,15.9191667 16.6666667,15 L16.6666667,13.3333333 C16.6666667,12.415 15.92,11.6666667 15,11.6666667 Z" id="Path"></path>
                                <path d="M3.33333333,0 L1.66666667,0 C0.7475,0 0,0.748333333 0,1.66666667 L0,3.33333333 C0,4.25166667 0.7475,5 1.66666667,5 L3.33333333,5 C4.2525,5 5,4.2525 5,3.33333333 L5,1.66666667 C5,0.748333333 4.2525,0 3.33333333,0 Z" id="Path"></path>
                                <path d="M3.33333333,5.83333333 L1.66666667,5.83333333 C0.7475,5.83333333 0,6.58166667 0,7.5 L0,9.16666667 C0,10.085 0.7475,10.8333333 1.66666667,10.8333333 L3.33333333,10.8333333 C4.2525,10.8333333 5,10.085 5,9.16666667 L5,7.5 C5,6.58166667 4.2525,5.83333333 3.33333333,5.83333333 Z" id="Path"></path>
                                <path d="M3.33333333,11.6666667 L1.66666667,11.6666667 C0.7475,11.6666667 0,12.415 0,13.3333333 L0,15 C0,15.9191667 0.7475,16.6666667 1.66666667,16.6666667 L3.33333333,16.6666667 C4.2525,16.6666667 5,15.9191667 5,15 L5,13.3333333 C5,12.415 4.2525,11.6666667 3.33333333,11.6666667 Z" id="Path"></path>
                            </g>
                        </g>
                    </g>
                </g>
            </g>
        </g>
    </g>
</svg>