<?xml version="1.0" encoding="UTF-8"?>
<svg width="16px" height="16px" viewBox="0 0 16 16" version="1.1" xmlns="http://www.w3.org/2000/svg" xmlns:xlink="http://www.w3.org/1999/xlink">
    <title>60AC6192-FFDB-4AAC-9BA1-56FFFFC609B8</title>
    <g id="Virtual-Hospital" stroke="none" stroke-width="1" fill="none" fill-rule="evenodd">
        <g id="UI---AVH---Statistics" transform="translate(-264.000000, -339.000000)">
            <g id="Patient-Card-Copy-17" transform="translate(232.000000, 248.000000)">
                <g id="Group-16" transform="translate(24.000000, 76.000000)">
                    <g id="Group-3" transform="translate(0.000000, 7.000000)">
                        <g id="user-clipboard" transform="translate(8.000000, 8.000000)">
                            <g id="Frame_-_24px">
                                <rect id="Rectangle" x="0" y="0" width="16" height="16"></rect>
                            </g>
                            <g id="Filled_Icons" transform="translate(2.000000, 0.666667)" fill="#00ABAF" fill-rule="nonzero">
                                <path d="M10.6673333,2 L10.0006667,2 L10.0006667,4 L2.00066667,4 L2.00066667,2 L1.334,2 C0.598,2 0.000666666667,2.59733333 0.000666666667,3.33333333 L0.000666666667,12.6666667 C0.000666666667,13.4026667 0.598,14 1.334,14 L10.6673333,14 C11.4033333,14 12.0006667,13.4026667 12.0006667,12.6666667 L12.0006667,3.33333333 C12.0006667,2.59733333 11.4033333,2 10.6673333,2 Z M6.00066667,6 C6.92133333,6 7.66733333,6.746 7.66733333,7.66666667 C7.66733333,8.58733333 6.92133333,9.33333333 6.00066667,9.33333333 C5.08,9.33333333 4.334,8.58733333 4.334,7.66666667 C4.334,6.746 5.08,6 6.00066667,6 Z M3.50066667,12.6666667 C3.50066667,11.1326667 4.46666667,10.1666667 6.00066667,10.1666667 C7.53466667,10.1666667 8.50066667,11.1326667 8.50066667,12.6666667 L3.50066667,12.6666667 Z" id="Shape"></path>
                                <path d="M7.334,1.33333333 C7.334,0.596666667 6.73666667,0 6.00066667,0 C5.26466667,0 4.66733333,0.596666667 4.66733333,1.33333333 L3.334,1.33333333 L3.334,3.33333333 L8.66733333,3.33333333 L8.66733333,1.33333333 L7.334,1.33333333 Z" id="Path"></path>
                            </g>
                        </g>
                    </g>
                </g>
            </g>
        </g>
    </g>
</svg>