<?xml version="1.0" encoding="UTF-8"?>
<svg width="16px" height="16px" viewBox="0 0 16 16" version="1.1" xmlns="http://www.w3.org/2000/svg" xmlns:xlink="http://www.w3.org/1999/xlink">
    <title>7E3A16CD-DB3C-4234-8CC8-DF97BF5B19F5</title>
    <g id="Virtual-Hospital" stroke="none" stroke-width="1" fill="none" fill-rule="evenodd">
        <g id="UI---AVH---Space-Management-Settings-2.2" transform="translate(-922.000000, -470.000000)">
            <g id="Group-28-Copy-15" transform="translate(430.000000, 80.000000)">
                <g id="Group-3" transform="translate(32.000000, 231.000000)">
                    <g id="Group-8" transform="translate(16.000000, 16.000000)">
                        <g id="Button/Delete" transform="translate(436.000000, 135.000000)">
                            <g id="bin" transform="translate(8.000000, 8.000000)">
                                <g id="Frame_-_24px">
                                    <rect id="Rectangle" x="0" y="0" width="16" height="16"></rect>
                                </g>
                                <g id="Filled_Icons" transform="translate(2.000000, 2.000000)" fill="#BFC1C1" fill-rule="nonzero">
                                    <g id="Group">
                                        <polygon id="Path" points="8 1.33266667 8 0 4 0 4 1.33266667 0 1.33266667 0 2.666 12 2.666 12 1.33266667"></polygon>
                                        <path d="M1.33333333,3.33266667 L1.33333333,11.3326667 C1.33333333,12.0673333 1.93133333,12.666 2.66666667,12.666 L9.33333333,12.666 C10.0686667,12.666 10.6666667,12.0673333 10.6666667,11.3326667 L10.6666667,3.33266667 L1.33333333,3.33266667 Z M5.33333333,10 L4,10 L4,6 L5.33333333,6 L5.33333333,10 Z M8,10 L6.66666667,10 L6.66666667,6 L8,6 L8,10 Z" id="Shape"></path>
                                    </g>
                                </g>
                            </g>
                        </g>
                    </g>
                </g>
            </g>
        </g>
    </g>
</svg>