<?xml version="1.0" encoding="UTF-8"?>
<svg width="16px" height="16px" viewBox="0 0 16 16" version="1.1" xmlns="http://www.w3.org/2000/svg" xmlns:xlink="http://www.w3.org/1999/xlink">
    <title>AA47ED03-54AB-4FF3-976F-6D92B57EBF58</title>
    <g id="UI" stroke="none" stroke-width="1" fill="none" fill-rule="evenodd">
        <g id="Register" transform="translate(-1187.000000, -558.000000)">
            <g id="Group-24" transform="translate(1168.000000, 523.000000)">
                <g id="Group" transform="translate(19.000000, 35.000000)">
                    <g id="Icon/Check-Circle">
                        <g>
                            <rect id="Rectangle" x="0" y="0" width="16" height="16"></rect>
                            <path d="M8.028,14.6666667 C4.352,14.6666667 1.36133333,11.676 1.36133333,8 C1.36133333,4.324 4.352,1.33333333 8.028,1.33333333 C11.704,1.33333333 14.6946667,4.324 14.6946667,8 C14.6946667,11.676 11.704,14.6666667 8.028,14.6666667 Z M8.028,2.66666667 C5.08733333,2.66666667 2.69466667,5.05933333 2.69466667,8 C2.69466667,10.9406667 5.08733333,13.3333333 8.028,13.3333333 C10.9686667,13.3333333 13.3613333,10.9406667 13.3613333,8 C13.3613333,5.05933333 10.9686667,2.66666667 8.028,2.66666667 Z" id="Shape" fill="#33CC00" fill-rule="nonzero"></path>
                            <polygon id="Path" fill="#33CC00" fill-rule="nonzero" points="7.46733333 11.2853333 4.772 8.59 5.95 7.41133333 7.25466667 8.71533333 10.016 4.84933333 11.3726667 5.818"></polygon>
                        </g>
                    </g>
                </g>
            </g>
        </g>
    </g>
</svg>