<svg xmlns="http://www.w3.org/2000/svg" viewBox="0 0 328.41 450"><defs><style>.cls-1{isolation:isolate;}.cls-2{fill:#f9d68f;}.cls-3,.cls-6,.cls-8{opacity:0.2;}.cls-3,.cls-6{mix-blend-mode:multiply;}.cls-4,.cls-6{fill:#dd9e2f;}.cls-5{fill:#fff;}.cls-7{fill:#855914;}</style></defs><title>FEMALE BODY</title><g class="cls-1"><g id="Ebene_2" data-name="Ebene 2"><g id="Layer_1" data-name="Layer 1"><g id="woman_back" data-name="woman back"><path id="body" class="cls-2" d="M328.41,218.39a36,36,0,0,1-.84-5.19c-1.66-18.93,0-32.86-1.22-41-.57-3.77-3.26-12.38-4.42-15.62s-2.1-16.7-2.15-23c-.05-7-1.43-21.39-2.31-25.11-1.36-25.11-12.67-26.13-17.75-27.4C295.31,80,281.81,75.21,278,72c0,0-2.83-3.81-2.4-18.55A12.82,12.82,0,0,0,279,49.84c1.14-2.57,2.94-7.43,2.94-7.43l2-2.23.92-10.57-1.94-1s-1.48-12.95-3.07-15.27c-3.51-5.14-14.91-5.65-15.6-5.67h0c-.69,0-12.08.53-15.59,5.67-1.59,2.32-3.07,15.27-3.07,15.27l-1.94,1,.92,10.57,2,2.23s1.8,4.86,2.94,7.43a12.84,12.84,0,0,0,3.36,3.61c.43,14.74-2.4,18.55-2.4,18.55-3.8,3.22-17.3,8-21.71,9.13-5.08,1.27-16.39,2.29-17.75,27.4-.88,3.71-2.26,18.12-2.31,25.11,0,6.29-1,19.67-2.15,23s-3.85,11.85-4.42,15.62c-1.23,8.12.44,22-1.22,41a36,36,0,0,1-.84,5.19c0,.6.71,4,.75,4.27-.19,5.24-.45,12.09-.45,12.09.31,2.43,4.58,13.85,5.46,14.6,4.62,4,7.43,9.48,9.39,9.92,1.39-2-3.16-9.05-3.86-9.89a24.9,24.9,0,0,1-1.92-6.16s.57-3.08,1.11-5.38c1.09,2.1,3,5.68,3.27,7.2.54,3.19,1.72,6.65,4.42,6.65-.37-3-.49-6.85-.78-7.8-1.13-3.71-.9-7.07-1.05-9.27-.18-2.66-6.3-11.71-6.51-15.59a29.45,29.45,0,0,1,.78-5.75c.64-3,1.88-6.73,2.65-9.65,1.8-6.86,4.45-19.18,5.06-21.6,2.41-9.48,1.18-17.93,2.2-22.89.83-4,5.89-27.11,7.71-36.69,3.15,8.48,5.55,14.26,5.58,14.35,1.64,7.05,2,16.14,3,22.46,1.07,6.81-1.23,14.74-3.66,21-4.9,12.55-5.91,20.42-9,32.44L224,213c-1.83,7-2.2,15.65-2.19,25.84,0,7.85,1.63,13.77,2.67,21.7,1,7.71,10.71,40,11.32,46.32a112.05,112.05,0,0,1-.12,20.39,201.72,201.72,0,0,0-.87,22.29c.45,13.45,4.36,26.35,7.89,39.46,7,25.79,5.48,32.47,5.59,33.16-.2,2.76-1.35,7-1.32,7.71s1.11,5,1,5.78c-2,5.24-4.19,8.53-6.32,10.7a9.73,9.73,0,0,0-.45,2.86c.56.33,1,.61,1.42.82l.82,0h41.46l.82,0c.41-.22.86-.49,1.42-.82a9.6,9.6,0,0,0-.45-2.86c-2.14-2.17-4.33-5.46-6.32-10.7-.11-.82,1-5.16,1-5.78s-1.12-4.95-1.32-7.71c.11-.69-1.36-7.38,5.59-33.16,3.53-13.11,7.45-26,7.89-39.46a202.67,202.67,0,0,0-.87-22.29,112.06,112.06,0,0,1-.12-20.39c.61-6.33,10.3-38.6,11.32-46.32,1-7.94,2.67-13.85,2.67-21.7,0-10.19-.36-18.84-2.19-25.84l-.08-.32c-3.13-12-4.14-19.89-9-32.44-2.43-6.22-4.73-14.15-3.66-21,1-6.32,1.37-15.41,3-22.46,0-.09,2.71-4.56,5.58-14.35,1.81,9.58,6.88,32.69,7.71,36.69,1,5-.21,13.42,2.2,22.89.62,2.43,3.26,14.75,5.06,21.6.77,2.91,2,6.64,2.65,9.65a29.45,29.45,0,0,1,.78,5.75c-.21,3.89-6.33,12.93-6.51,15.59-.15,2.2.08,5.55-1.05,9.27-.29,1-.41,4.85-.78,7.8,2.7,0,3.88-3.45,4.42-6.65.26-1.51,2.18-5.1,3.27-7.2.54,2.3,1.11,5.38,1.11,5.38a24.82,24.82,0,0,1-1.92,6.16c-.7.84-5.25,7.88-3.86,9.89,2-.44,4.78-6,9.39-9.92.88-.75,5.15-12.18,5.46-14.6,0,0-.26-6.85-.45-12.09C327.7,222.36,328.41,219,328.41,218.39Zm-61.5,137c.29,15,2.42,30.76,1.51,49.23-.33,6.71-1.34,15.14-1.59,16.45-.36,1.87-1.06,2.89-1.11,4a26.81,26.81,0,0,0,1.11,4c-.33,1.57-2.48,13.69-2.62,14.44-.13-.76-2.29-12.88-2.62-14.44a26.57,26.57,0,0,0,1.11-4c-.05-1.07-.75-2.09-1.11-4-.25-1.31-1.26-9.74-1.59-16.45-.9-18.47,1.23-34.22,1.51-49.23.25-13.24-3.39-17.13-3.1-30.22.05-2.4,1.58-12,1.36-15-.79-11-1.68-28.12-1.24-31.58.77-5.9,2-14.73,2.08-21.85.13-8.91-.17-16.18,0-18.39a18.39,18.39,0,0,0,3.58-.86s3.47.94,3.58.86c.19,2.21-.12,9.48,0,18.39.1,7.11,1.31,15.94,2.08,21.85.45,3.46-.45,20.6-1.24,31.58-.22,3,1.31,12.65,1.36,15C270.3,338.24,266.66,342.13,266.91,355.37Z"/><g id="shadows_on_body" data-name="shadows on body" class="cls-3"><path id="legs" class="cls-4" d="M304.38,213l0-.18c-13.6,8.66-66.14,9.45-80.36.46a81.74,81.74,0,0,0-2,17.23c.13-.7,1.78-10.45,1.74-10.08,5.36,10.56,15.62,16.7,22.5,20.13,10.63,5.29,10,14.37,9.49,25.82-.92,19.13-1.11,35.58-.27,54.86,0,0,0-.05,0,0a22.27,22.27,0,0,1-1,2.63c-1.17.1-3.27-6.51-4.44-8.32.93,5.91,5.21,15.65,6.57,25.05,1.66,11.49,4.85,18.53,1,44.33-.91,3.44-10.56,1.26-14.94-4.29-3.22-4.08-5.16-20.93-5.29-34-.14-15.24,6.76-36.6,5.22-34.45a29.44,29.44,0,0,1-3.19,4.12c-1.57-11.48-7.18-28.3-11.63-41.65,3.22,12.32,7.66,28.08,8.07,32.29a112.05,112.05,0,0,1-.12,20.39,201.72,201.72,0,0,0-.87,22.29c.45,13.45,4.36,26.35,7.89,39.46,7,25.79,5.48,32.47,5.59,33.16-.2,2.76-1.35,7-1.32,7.71s1.11,5,1,5.78c-2,5.24-4.19,8.53-6.32,10.7a9.73,9.73,0,0,0-.45,2.86c.56.33,1,.61,1.42.82l.82,0h41.46l.82,0c.41-.22.86-.49,1.42-.82a9.6,9.6,0,0,0-.45-2.86c-2.14-2.17-4.33-5.46-6.32-10.7-.11-.82,1-5.16,1-5.78s-1.12-4.95-1.32-7.71c.11-.69-1.36-7.38,5.59-33.16,3.53-13.11,7.45-26,7.89-39.46a202.67,202.67,0,0,0-.87-22.29,112.06,112.06,0,0,1-.12-20.39c.4-4.22,4.85-20,8.07-32.3-4.45,13.35-10.06,30.17-11.63,41.66a29.44,29.44,0,0,1-3.19-4.12c-1.54-2.15,5.37,19.21,5.22,34.45-.12,13.09-1.48,28.59-4.7,32.67-4.38,5.55-13.61,9.45-14.66,5.33-6-23.5-1.48-32.52.18-44,1.36-9.41,5.64-19.15,6.57-25.05-1.17,1.81-3.27,8.42-4.44,8.32a22.27,22.27,0,0,1-1-2.63s0,0,0,0c.84-19.28.65-35.73-.27-54.86-.55-11.45-1.14-20.52,9.49-25.82,6.88-3.43,17.14-9.56,22.5-20.13,0-.37,1.61,9.41,1.74,10.09h0A80.86,80.86,0,0,0,304.38,213ZM259.9,448.59h-8.8c-3.82-1.37-.27-7.29.75-9.7,1.5-3.55,2.22-8.65-2.26-12a30.6,30.6,0,0,0,.52-6.21,213.85,213.85,0,0,0-3.45-22.81c.43-2,11.58,8.28,11.9,11.83,0,0-.42,4.49,2.4,13.69.2.66-3.79,4.2-1.19,14.62C260.52,441,264,447.51,259.9,448.59Zm9.7-38.91c.32-3.55,11.47-13.86,11.9-11.83A213.53,213.53,0,0,0,278,420.66a30.5,30.5,0,0,0,.52,6.21c-4.47,3.37-3.75,8.47-2.26,12,1,2.41,4.57,8.33.75,9.7h-8.8c-4.12-1.09-.62-7.61.13-10.59,2.6-10.42-1.39-14-1.19-14.62C270,414.17,269.59,409.68,269.59,409.68Zm-2.68-54.31c.29,15,2.42,30.76,1.51,49.23-.33,6.71-1.34,15.14-1.59,16.45-.36,1.87-1.06,2.89-1.11,4a26.81,26.81,0,0,0,1.11,4c-.33,1.57-2.48,13.69-2.62,14.44-.13-.76-2.29-12.88-2.62-14.44a26.57,26.57,0,0,0,1.11-4c-.05-1.07-.75-2.09-1.11-4-.25-1.31-1.26-9.74-1.59-16.45-.9-18.47,1.23-34.22,1.51-49.23.25-13.24-3.39-17.13-3.1-30.22.05-2.4,1.58-12,1.36-15-.79-11-1.68-28.12-1.24-31.58.77-5.9,2-14.73,2.08-21.85.13-8.91-.17-16.18,0-18.39a18.39,18.39,0,0,0,3.58-.86s3.47.94,3.58.86c.19,2.21-.12,9.48,0,18.39.1,7.11,1.31,15.94,2.08,21.85.45,3.46-.45,20.6-1.24,31.58-.22,3,1.31,12.65,1.36,15C270.3,338.24,266.66,342.13,266.91,355.37Z"/><g id="arms"><path class="cls-4" d="M313.73,259.08a3.63,3.63,0,0,0,.45-.3h0c0-.07,0-.12,0-.13-2-1.73,5.93-9.85,6.35-12.5,2.23-3.16,1.87-16.67.17-15.3-.86.45-3.13,3.22-3.94,3-1.68-.48,1.62-10.16,4.19-14.15,1.15-1.77-7.56-39.83-7.78-41.73-.18-1.6,0-13.16-.16-18.75-.09-2.39-4.38-18.51-6.54-28.87-1.12-5.39-.6-13-1.64-18.3a52.66,52.66,0,0,0-3.78-12c-1.55,30.76-8,34.76-9.39,37.78-.68,1.45-2.73,28.6-1.89,32.48,9.13,28.18,6.35,37.1-2,37.78,0,0,9.89,1.94,15.81,1.72-2.61-10.5-3.83-18.09-8.33-29.64-2.43-6.22-4.73-14.15-3.66-21,1-6.32,1.37-15.41,3-22.46,0-.09,2.71-4.56,5.58-14.35,1.81,9.58,6.88,32.69,7.71,36.69,1,5-.21,13.42,2.2,22.89.62,2.43,3.26,14.75,5.06,21.6.77,2.91,2,6.64,2.65,9.65a29.45,29.45,0,0,1,.78,5.75c-.21,3.89-6.33,12.93-6.51,15.59-.15,2.2.08,5.55-1.05,9.27-.29,1-.41,4.85-.78,7.8,2.7,0,3.88-3.45,4.42-6.65.26-1.51,2.18-5.1,3.27-7.2.54,2.3,1.11,5.38,1.11,5.38a24.82,24.82,0,0,1-1.92,6.16c-.7.84-5.25,7.88-3.86,9.89a1.65,1.65,0,0,0,.43-.17Z"/><path class="cls-4" d="M240.63,208.12c-8.35-.68-11.12-9.6-2-37.78.84-3.88-1.21-31-1.89-32.48-1.42-3-7.84-7-9.39-37.78a52.66,52.66,0,0,0-3.78,12c-1,5.32-.52,12.91-1.64,18.3-2.16,10.36-6.45,26.48-6.54,28.87-.21,5.58,0,17.15-.16,18.75-.22,1.91-8.93,40-7.78,41.73,2.58,4,5.87,13.67,4.19,14.15-.8.23-3.07-2.55-3.94-3-1.71-1.37-2.07,12.14.17,15.3.42,2.65,8.4,10.77,6.35,12.5,0,0,0,.07,0,.13a2.39,2.39,0,0,0,.91.5c1.39-2-3.16-9.05-3.86-9.89a24.9,24.9,0,0,1-1.92-6.16s.57-3.08,1.11-5.38c1.09,2.1,3,5.68,3.27,7.2.54,3.19,1.72,6.65,4.42,6.65-.37-3-.49-6.85-.78-7.8-1.13-3.71-.9-7.07-1.05-9.27-.18-2.66-6.3-11.71-6.51-15.59a29.45,29.45,0,0,1,.78-5.75c.64-3,1.88-6.73,2.65-9.65,1.8-6.86,4.45-19.18,5.06-21.6,2.41-9.48,1.18-17.93,2.2-22.89.83-4,5.89-27.11,7.71-36.69,3.15,8.48,5.55,14.26,5.58,14.35,1.64,7.05,2,16.14,3,22.46,1.07,6.81-1.23,14.74-3.66,21-4.51,11.55-5.73,19.15-8.33,29.64C230.74,210.06,240.63,208.12,240.63,208.12Z"/></g><g id="back"><path class="cls-4" d="M265.52,121c-2.74,8.22-2.63,55.13-.24,63C267.38,176.12,267.66,129.09,265.52,121Z"/><path class="cls-4" d="M282.15,203.4c-.69-2.22-4.3-4.95-4.3-4.95-2.14,0,.9,6.44-2.62,9.89C278.08,208.51,283.1,206.5,282.15,203.4Z"/><path class="cls-4" d="M247.72,203.4c.69-2.22,4.3-4.94,4.3-4.94,2.14,0-.9,6.44,2.62,9.88C251.78,208.51,246.76,206.5,247.72,203.4Z"/><path class="cls-4" d="M286.16,86.2l-.7.06c0,.73-3.92,4.9-4.1,5.63-.27,1.14-1.88,15.07-1,20.14.47,2.72,10.46,9.38,10.46,9.38s-6.92-7.74-7.11-9.54C282.51,100,282.43,89.75,286.16,86.2Z"/><path class="cls-4" d="M243.7,86.2l.7.06c0,.73,3.92,4.9,4.1,5.63.27,1.14,1.88,15.07,1,20.14-.47,2.72-10.46,9.38-10.46,9.38s6.92-7.74,7.11-9.54C247.35,100,247.43,89.75,243.7,86.2Z"/></g></g><g id="underwear"><g id="panties"><path id="panties-2" data-name="panties" class="cls-5" d="M302.3,204.46c-7.54,2.13-68.64,2.13-76.18,0a83.88,83.88,0,0,0-2.94,12.3c2.34,7.43,21.71,27.81,41,21,19.33,6.85,38.7-13.53,41-21A83.89,83.89,0,0,0,302.3,204.46Z"/><path class="cls-6" d="M302.3,204.46a27.46,27.46,0,0,1-4.22.62c1.8,9.17-.07,19.45-5.9,22.76-14.13,8-21.51,2.21-28,2.21s-13.86,5.82-28-2.21c-6-3.38-8.08-13.12-6.07-22.44l.12-.32a27.14,27.14,0,0,1-4.16-.61,83.88,83.88,0,0,0-2.94,12.3c2.34,7.43,21.71,27.81,41,21,19.33,6.85,38.7-13.53,41-21A83.89,83.89,0,0,0,302.3,204.46Z"/></g><path id="top" class="cls-5" d="M300.19,122.43s-16.76,7.09-36,7.09-36-7.09-36-7.09c1.5,7.93,6,18.38,6.08,18.75,2.24,0,28.32-.11,29.9-.11s27.66.11,29.9.11C294.21,140.81,299.51,129.57,300.19,122.43Z"/></g><path id="hair" class="cls-7" d="M264.21,0h0c-14,0-23.31,11.8-23.17,25.83.11,10.92,6,22.58,19.85,29.58-4.74,8.28-7.28,18.38-6,28.06,1.61,12.33,14.49,18.92,10.12,27.48,11.22-8.34,13.56-20,10.4-29.75-3.24-10-12.07-14.06-7.86-25.78,13.74-6.91,19.61-18.41,19.84-29.22C287.67,12,278.28,0,264.21,0Z"/></g><g id="woman_front" data-name="woman front"><path id="hair-2" data-name="hair" class="cls-7" d="M64.21,0h0C49.36,0,39.41,13.53,39.56,29.46,39.68,41.85,45.9,55.09,60.67,63c-5,9.39-7.74,21.13-6.4,32.12,1.72,14,15.42,21.47,10.77,31.19C77,116.87,79.46,103.68,76.1,92.56,72.65,81.17,63.26,76.33,67.74,63c14.75-7.92,21-21.14,21.11-33.51C89,13.56,79.07,0,64.21,0Z"/><path id="body-2" data-name="body" class="cls-2" d="M128.41,218.39a36,36,0,0,1-.84-5.19c-1.66-18.93,0-32.86-1.22-41-.57-3.77-3.26-12.38-4.42-15.62s-2.1-16.7-2.15-23c-.05-7-1.43-21.39-2.31-25.11-1.36-25.11-12.67-26.13-17.75-27.4C95.31,80,81.81,75.21,78,72c0,0-2.83-3.81-2.4-18.55A12.83,12.83,0,0,0,79,49.84c1.14-2.57,2.94-7.43,2.94-7.43l2-2.23.92-10.57-1.94-1v-.1s0,.05,0,.08L81,35.93V24.76c-6.39-12.44-15.78-12.29-16.75-12.1h-.05c-1-.19-10.35-.34-16.75,12.1V35.93l-2-7.27-1.91,1,.92,10.57,2,2.23s1.8,4.86,2.94,7.43a12.85,12.85,0,0,0,3.36,3.61C53.23,68.18,50.4,72,50.4,72c-3.8,3.22-17.3,8-21.71,9.13-5.08,1.27-16.39,2.29-17.75,27.4-.88,3.71-2.26,18.12-2.31,25.11,0,6.29-1,19.67-2.15,23s-3.85,11.85-4.42,15.62c-1.23,8.12.44,22-1.22,41A36.07,36.07,0,0,1,0,218.39c0,.6.71,4,.75,4.27C.56,227.9.3,234.75.3,234.75c.31,2.43,4.58,13.85,5.46,14.6,4.61,4,7.43,9.48,9.39,9.92,1.39-2-3.16-9.05-3.85-9.89a24.87,24.87,0,0,1-1.92-6.16s.57-3.08,1.11-5.38c1.09,2.1,3,5.68,3.27,7.2.54,3.19,1.72,6.65,4.42,6.65-.37-3-.49-6.85-.78-7.8-1.13-3.71-.9-7.07-1.05-9.27C16.17,231.94,10,222.9,9.83,219a29.41,29.41,0,0,1,.77-5.75c.64-3,1.88-6.73,2.65-9.65,1.8-6.86,4.44-19.18,5.06-21.6,2.4-9.48,1.18-17.93,2.2-22.89.83-4,5.89-27.11,7.71-36.69-2,10,5.55,14.26,5.58,14.35,1.64,7.05,2,16.14,3,22.46,1.07,6.81-1.23,14.74-3.66,21-4.9,12.55-5.91,20.42-9,32.44L24,213c-1.83,7-2.2,15.65-2.19,25.84,0,7.85,1.63,13.77,2.68,21.7,1,7.71,10.71,40,11.32,46.32a112,112,0,0,1-.12,20.39,202.21,202.21,0,0,0-.87,22.29c.44,13.45,4.36,26.35,7.89,39.46,7,25.79,5.48,32.47,5.59,33.16-.2,2.76-1.35,7-1.32,7.71s1.11,5,1,5.78c-2,5.24-4.18,8.53-6.32,10.7a9.68,9.68,0,0,0-.45,2.86c.56.33,1,.61,1.42.82l.82,0H84.94l.82,0c.41-.22.86-.49,1.42-.82a9.63,9.63,0,0,0-.45-2.86c-2.14-2.17-4.33-5.46-6.32-10.7-.11-.82,1-5.16,1-5.78s-1.12-4.95-1.32-7.71c.1-.69-1.36-7.38,5.59-33.16,3.53-13.11,7.45-26,7.89-39.46a202.67,202.67,0,0,0-.87-22.29,112.06,112.06,0,0,1-.12-20.39c.61-6.33,10.3-38.6,11.32-46.32,1-7.94,2.67-13.85,2.67-21.7,0-10.19-.36-18.84-2.19-25.84l-.08-.32c-3.13-12-4.15-19.89-9-32.44-2.43-6.22-4.73-14.15-3.66-21,1-6.32,1.38-15.41,3-22.46,0-.09,7.59-4.3,5.58-14.35,1.81,9.58,6.88,32.69,7.71,36.69,1,5-.21,13.42,2.2,22.89.62,2.43,3.26,14.75,5.06,21.6.77,2.91,2,6.64,2.65,9.65a29.36,29.36,0,0,1,.77,5.75c-.21,3.89-6.33,12.93-6.51,15.59-.15,2.2.08,5.55-1.05,9.27-.29,1-.41,4.85-.78,7.8,2.7,0,3.88-3.45,4.42-6.65.26-1.51,2.18-5.1,3.27-7.2.54,2.3,1.11,5.38,1.11,5.38a24.86,24.86,0,0,1-1.92,6.16c-.7.84-5.25,7.88-3.86,9.89,2-.44,4.78-6,9.39-9.92.88-.75,5.15-12.18,5.46-14.6,0,0-.26-6.85-.45-12.09C127.7,222.36,128.41,219,128.41,218.39Zm-61.5,137c.29,15,2.42,30.76,1.51,49.23-.33,6.71-1.34,15.14-1.59,16.45-.36,1.87-1.06,2.89-1.11,4a26.81,26.81,0,0,0,1.1,4c-.33,1.57-2.48,13.69-2.62,14.44-.13-.76-2.29-12.88-2.62-14.44a26.67,26.67,0,0,0,1.1-4c0-1.07-.75-2.09-1.11-4-.25-1.31-1.26-9.74-1.59-16.45-.9-18.47,1.23-34.22,1.51-49.23.25-13.24-3.39-17.13-3.1-30.22.05-2.4,1.58-12,1.36-15-.79-11-1.68-28.12-1.24-31.58.76-5.9,2-14.73,2.08-21.85.13-8.91-.17-16.18,0-18.39.1.08,1.57.25,1.74.32l0-.07a3.22,3.22,0,0,0,1.87-.1,3.21,3.21,0,0,0,1.86.1l0,.07c.17-.07,1.64-.24,1.74-.32.19,2.21-.11,9.48,0,18.39.1,7.11,1.31,15.94,2.08,21.85.45,3.46-.45,20.6-1.24,31.58-.22,3,1.31,12.65,1.36,15C70.3,338.24,66.66,342.13,66.91,355.37Z"/><g id="shadows_on_body-2" data-name="shadows on body" class="cls-3"><g id="legs-2" data-name="legs"><path class="cls-4" d="M65.54,447.25a13.54,13.54,0,0,0-1.32-3.75v0c-.13-.76-2.29-12.88-2.62-14.44a31,31,0,0,0,1.09-3.86.24.24,0,0,1,0-.16c0-1.07-.75-2.09-1.11-4-.25-1.31-1.26-9.74-1.59-16.45-.9-18.47,1.23-34.22,1.51-49.23.25-13.24-3.39-17.13-3.1-30.22.05-2.4,1.58-12,1.36-15-.79-11-1.68-28.12-1.24-31.58.76-5.9,2-14.73,2.08-21.85.13-8.91-.17-16.18,0-18.39.1.08,1.55.25,1.74.32l0-.07.61.06h0a2.13,2.13,0,0,0,1.24-.16h0v-4c-15.05-16.56-39.87-17.72-41-17.65v0C32.85,220.34,55,233.46,56,238.13c2.15,9.88.86,25.73.86,25.73-1.05,2.21-4.83-6.71-5.27-6.1-.1.65,3.16,14.77,4.32,22.21,1.87,12.07,1.84,27.94.59,30.29a8.46,8.46,0,0,1-2.08,2.34c1,1.75,1.2,7.83.84,9.74-.91,4.93-5.78,4-7.14,3.7-.44,1.18,5.45,7.36,8.77,22.82,2.64,8,1,70.66.7,70.82-3.59,1.71-15-34.31-17.69-48.58-1.56-8.37-2.91-18.49-2.86-25.93,0-5.56.3-24.58,4.55-21.6.68.48-1.95-2.25-2.5-7.71-.35-3.41-.28-6-.36-6.31-1.21-4.55-5.69-22.27-6.76-25-4.51-11.69-8.12-28.26-9.92-40.49v0c.49,5.48,1.63,10.37,2.43,16.44,1,7.71,10.71,40,11.32,46.32a112,112,0,0,1-.12,20.39,202.21,202.21,0,0,0-.87,22.29c.44,13.45,4.36,26.35,7.89,39.46,7,25.79,5.48,32.47,5.59,33.16-.2,2.76-1.35,7-1.32,7.71s.91,4.15,1,5.44h0c.88-5.09,1.54-10.94,4.57-11.36.47.52,4.12,5.82,5.28,7.63.9,2.2,3.16,12.33,3.16,12.33-.33.24-2,1.77-2,1.77s-.66,1.9-1.29,2.19l-2.77-1c-.8.33-2.37,1.19-2.37,1.19l-2.17-1-2.5,1.14c-.07,0-2.21-1.27-2.21-1.27l-1.77,1-1.13-1.08s1-2.84,1-3a3.35,3.35,0,0,1-.22.29,21.31,21.31,0,0,1-1.89,2.24,9.68,9.68,0,0,0-.45,2.86c.56.33,1,.61,1.42.82l.82,0H65.25A23,23,0,0,0,65.54,447.25Z"/><path class="cls-4" d="M85.76,450c.41-.22.86-.49,1.42-.82a9.63,9.63,0,0,0-.45-2.86A21.2,21.2,0,0,1,84.83,444a3.11,3.11,0,0,1-.21-.27c0,.2,1,3,1,3L84.5,447.9l-1.77-1s-2.14,1.28-2.21,1.27L78,447l-2.17,1s-1.58-.86-2.37-1.19l-2.77,1c-.63-.29-1.29-2.19-1.29-2.19s-1.68-1.53-2-1.77c0,0,2.26-10.13,3.16-12.33,1.16-1.8,4.81-7.1,5.28-7.62,3,.42,3.7,6.27,4.57,11.36h0c.06-.93.54-3,.81-4.37v0l.06-.28,0-.08,0-.2,0-.09,0-.15V430a1.25,1.25,0,0,0,0-.15c0-.69-1.12-4.95-1.32-7.71.1-.69-1.36-7.38,5.59-33.16,3.53-13.11,7.45-26,7.89-39.46a202.67,202.67,0,0,0-.87-22.29,112.06,112.06,0,0,1-.12-20.39c.61-6.33,10.3-38.6,11.32-46.32.8-6.08,1.93-11,2.43-16.46h0c-1.8,12.23-5.41,28.8-9.92,40.49-1.07,2.76-5.54,20.48-6.76,25-.07.28,0,2.91-.36,6.31-.55,5.46-3.18,8.19-2.5,7.71,4.25-3,4.52,16,4.55,21.6.05,7.44-1.3,17.56-2.86,25.93-2.66,14.27-14.1,50.3-17.69,48.58-.34-.16-1.94-62.8.7-70.82,3.32-15.45,9.22-21.63,8.77-22.82-1.37.25-6.23,1.23-7.14-3.7-.35-1.91-.2-8,.84-9.74a8.46,8.46,0,0,1-2.08-2.34C70.63,307.9,70.6,292,72.47,280c1.15-7.43,4.42-21.56,4.32-22.21-.43-.61-4.21,8.31-5.27,6.1,0,0-1.29-15.85.86-25.73,1-4.67,23.18-17.79,32.81-21.34v0h0c-1.13-.07-25.94,1.08-41,17.65v4h0a3.21,3.21,0,0,0,1.86.1l0,.07c.17-.07,1.64-.24,1.74-.32.19,2.21-.11,9.48,0,18.39.1,7.11,1.31,15.94,2.08,21.85.45,3.46-.45,20.6-1.24,31.58-.22,3,1.31,12.65,1.36,15,.29,13.09-3.35,17-3.1,30.22.29,15,2.42,30.76,1.51,49.23-.33,6.71-1.34,15.14-1.59,16.45-.36,1.87-1.06,2.89-1.11,4a26.81,26.81,0,0,0,1.1,4c-.33,1.57-2.48,13.69-2.62,14.44v0c-.61,1.92-1.26,4.34-1.81,6.5H84.94Z"/></g><g id="belly"><path class="cls-4" d="M45.8,206.8c-.4-.59-3.49-4.93-3.49-4.93a70.73,70.73,0,0,0,.47,7.2l-10.94.26L62,211.73A46.11,46.11,0,0,1,45.8,206.8Z"/><path class="cls-4" d="M82.62,206.8c.4-.59,3.49-4.93,3.49-4.93a70.57,70.57,0,0,1-.46,7.2l10.94.26L66.4,211.73A46.13,46.13,0,0,0,82.62,206.8Z"/><path class="cls-4" d="M64.25,183.84a6.5,6.5,0,0,0,0-7.83v-.12l0,.06,0-.06V176a6.5,6.5,0,0,0,0,7.83V184l0-.07,0,.07Z"/></g><g id="arms-2" data-name="arms"><path class="cls-4" d="M15.15,259.27c1.39-2-3.16-9.05-3.85-9.89a24.87,24.87,0,0,1-1.92-6.16s.57-3.08,1.11-5.38c1.09,2.1,3,5.68,3.27,7.2.54,3.19,1.72,6.65,4.42,6.65-.37-3-.49-6.85-.78-7.8-1.13-3.71-.9-7.07-1.05-9.27C16.17,231.94,10,222.9,9.83,219a29.41,29.41,0,0,1,.77-5.75c.64-3,1.88-6.73,2.65-9.65,1.8-6.86,4.44-19.18,5.06-21.6,2.4-9.48,1.18-17.93,2.2-22.89.71-3.43,4.54-20.91,6.76-31.87.23-3.28.15-5.41.11-8.7,5.05-11.19,2.21-11.66.42-13.89C26,122,19.26,150.9,18.12,153.4a42.09,42.09,0,0,1-3.87,6.15l1.92,10.14c-1.7,7.82-8.11,44.93-8.31,46.6l3,15.3-3,7.19-2-.51-1.3,1-1.25-.53L2.47,240,.3,234.75c.31,2.43,4.58,13.85,5.46,14.6C10.37,253.32,13.19,258.83,15.15,259.27Z"/><path class="cls-4" d="M113.26,259.27c-1.39-2,3.16-9.05,3.86-9.89a24.86,24.86,0,0,0,1.92-6.16s-.57-3.08-1.11-5.38c-1.09,2.1-3,5.68-3.27,7.2-.54,3.19-1.72,6.65-4.42,6.65.37-3,.49-6.85.78-7.8,1.13-3.71.9-7.07,1.05-9.27.18-2.66,6.3-11.71,6.51-15.59a29.36,29.36,0,0,0-.77-5.75c-.64-3-1.88-6.73-2.65-9.65-1.8-6.86-4.44-19.18-5.06-21.6-2.41-9.48-1.18-17.93-2.2-22.89-.71-3.43-4.53-20.91-6.75-31.87-.23-3.28-.16-5.41-.11-8.7-5-11.19-2.21-11.66-.42-13.89,1.77,17.34,8.55,46.23,9.68,48.73a42,42,0,0,0,3.87,6.15l-1.92,10.14c1.7,7.82,8.12,44.93,8.32,46.6l-3,15.3,3,7.19,2-.51,1.3,1,1.25-.53.79,1.25,2.17-5.26c-.31,2.43-4.58,13.85-5.46,14.6C118,253.32,115.22,258.83,113.26,259.27Z"/></g><polygon id="cleavage" class="cls-4" points="64.34 105.6 61.22 117.38 67.25 117.38 64.34 105.6"/><g id="neck"><path class="cls-4" d="M29.62,80.86h0c7.17.28,29,4.89,29,4.89S41.16,80.22,40.2,79.5l13.14-5.44c-.13-1.2-.3-18.56-.53-20.46h0C53.21,68.21,50.4,72,50.4,72c-3.56,3-15.64,7.42-20.78,8.87Z"/><path class="cls-4" d="M78,72S75.2,68.21,75.61,53.6h0c-.23,1.9-.4,19.27-.53,20.46L88.21,79.5c-1,.72-18.47,6.25-18.47,6.25s21.88-4.6,29-4.89h0C93.65,79.41,81.57,75,78,72Z"/><path class="cls-4" d="M52.8,53.44q0,.7,0,1.37c2.83,3.24,6.51,7.38,7.35,7.87a9.36,9.36,0,0,0,4,.87h0a9.36,9.36,0,0,0,4-.87c.84-.5,4.53-4.63,7.35-7.87h0q0-.67,0-1.37h0a54.47,54.47,0,0,1-6.27,4.41c-1.24.68-5,.48-5.14.47s-3.9.2-5.14-.47a54.51,54.51,0,0,1-6.27-4.42h0Z"/></g><g id="face"><polygon id="nose" class="cls-4" points="64.23 44.55 67.34 42.93 64.23 42.93 64.19 42.93 61.08 42.93 64.19 44.55 64.19 44.57 64.21 44.56 64.23 44.57 64.23 44.55"/><path class="cls-4" d="M64.19,12.66h0c-1-.19-10.35-.34-16.75,12.1V35.93l-2-7.27-1.91,1,.92,10.57,2,2.23s1.8,4.86,2.94,7.43A13.43,13.43,0,0,0,53,53.6,10.6,10.6,0,0,1,50,48.86c-.32-1.3.16-10.35-.29-11.08C47.43,34,48.06,33,48.06,33l1.38-1.33,7.9.6,2.94,1.35-.51-3.13A25.5,25.5,0,0,0,56.63,28c-.75-.19-7.19-1-7.19-1a14.11,14.11,0,0,1-.75-2.34C54.67,12.72,63.59,12.65,64.19,12.66Z"/><path class="cls-4" d="M82.89,28.64v-.1s0,.05,0,.08L81,35.93V24.76c-6.39-12.44-15.78-12.29-16.75-12.1h0c.7,0,9.54.14,15.48,12A14.11,14.11,0,0,1,79,27s-6.44.81-7.19,1a25.38,25.38,0,0,0-3.14,2.52l-.51,3.13,2.94-1.35,7.9-.6L80.35,33s.63,1-1.69,4.76c-.45.73,0,9.78-.29,11.08a10.61,10.61,0,0,1-2.95,4.73A13.41,13.41,0,0,0,79,49.84c1.14-2.57,2.94-7.43,2.94-7.43l2-2.23.92-10.57Z"/></g></g><g id="underwear-2" data-name="underwear"><path id="panties-3" data-name="panties" class="cls-5" d="M102.3,204.46c-7.54,2.13-24.74,5.67-38.09,5.85-13.36-.18-30.55-3.72-38.09-5.85a84.14,84.14,0,0,0-2.94,12.3c.68.68,26.71,9.31,37.14,21.17a6.73,6.73,0,0,0,3.9.8,6.72,6.72,0,0,0,3.89-.8c10.44-11.86,36.46-20.49,37.14-21.17A84,84,0,0,0,102.3,204.46Z"/><g id="top-2" data-name="top"><path id="top-3" data-name="top" class="cls-5" d="M101.67,119.42s-3.82-8.31-20.36-7.92c-5.08.12-16.75,2.68-17.1,2.76-.36-.08-12-2.64-17.1-2.76-16.54-.39-20.36,7.92-20.36,7.92-1.09,8.22,2,13.93,7.06,17.35,0,0,.4,4,.5,4.4,2.24,0,28.32-.11,29.9-.11s27.66.11,29.9.11c.11-.36.5-4.4.5-4.4C99.66,133.36,102.75,127.65,101.67,119.42Z"/><g id="shadow" class="cls-8"><path class="cls-4" d="M32.56,135.84l.19.15.21.17c.35.27.62.46.75.54l.09.07s.4,4,.5,4.4h.34c1,6.15,1.38,13,2.17,18.06a25,25,0,0,1,.2,5.59h0c.47-6.09-1-19.49.55-20.2,6-2.74,14.4-6.52,14.36-9.64-2.2-.07-20.65,1.53-23.47-17.82a10.89,10.89,0,0,0-1.72,2.26,20.24,20.24,0,0,0,.44,8.26A15.78,15.78,0,0,0,32.56,135.84Z"/><path class="cls-4" d="M95.86,135.84l-.19.15-.21.17c-.35.27-.62.46-.75.54l-.09.07s-.4,4-.5,4.4h-.34c-1,6.15-1.38,13-2.18,18.06a25.07,25.07,0,0,0-.2,5.59h0c-.46-6.09,1-19.49-.55-20.2-6-2.74-14.4-6.52-14.36-9.64,2.2-.07,20.65,1.53,23.47-17.82a10.92,10.92,0,0,1,1.72,2.26,20.27,20.27,0,0,1-.44,8.26A15.77,15.77,0,0,1,95.86,135.84Z"/></g></g></g></g></g></g></g></svg>