<?xml version="1.0" encoding="UTF-8"?>
<svg width="16px" height="16px" viewBox="0 0 16 16" version="1.1" xmlns="http://www.w3.org/2000/svg" xmlns:xlink="http://www.w3.org/1999/xlink">
    <title>B0C955E2-4BC2-4D0A-806D-719EAA5D0C07</title>
    <g id="Virtual-Hospital" stroke="none" stroke-width="1" fill="none" fill-rule="evenodd">
        <g id="UI---AVH---Space-Management-Settings-3.1" transform="translate(-866.000000, -368.000000)">
            <g id="Group-28-Copy-15" transform="translate(430.000000, 80.000000)">
                <g id="Group-3" transform="translate(32.000000, 231.000000)">
                    <g id="Group-8" transform="translate(16.000000, 16.000000)">
                        <g id="Button/Edit" transform="translate(380.000000, 33.000000)">
                            <g id="pencil-1" transform="translate(8.000000, 8.000000)">
                                <g id="Frame_-_24px">
                                    <rect id="Rectangle" x="0" y="0" width="16" height="16"></rect>
                                </g>
                                <g id="Filled_Icons" transform="translate(1.333333, 1.333333)" fill="#BFC1C1" fill-rule="nonzero">
                                    <g id="Group">
                                        <polygon id="Rectangle" transform="translate(6.372628, 6.959939) rotate(-45.008103) translate(-6.372628, -6.959939) " points="2.33299983 4.27663144 10.4122558 4.27663144 10.4122558 9.64324669 2.33299983 9.64324669"></polygon>
                                        <path d="M12.0693333,5.06 L12.5493333,4.58066667 C13.5953333,3.53466667 13.5953333,1.832 12.5493333,0.785333333 C11.5033333,-0.260666667 9.8,-0.260666667 8.754,0.785333333 L8.27466667,1.26533333 L12.0693333,5.06 Z" id="Path"></path>
                                        <path d="M4.26666667,12.4533333 L0.829333333,13.312 C0.602,13.368 0.361333333,13.302 0.196,13.1366667 C0.0306666667,12.9713333 -0.036,12.7306667 0.0206666667,12.504 L0.88,9.06666667 L4.26666667,12.4533333 Z" id="Path"></path>
                                    </g>
                                </g>
                            </g>
                        </g>
                    </g>
                </g>
            </g>
        </g>
    </g>
</svg>