<svg height='100px' width='100px'  fill="#00abaf" xmlns="http://www.w3.org/2000/svg" xmlns:xlink="http://www.w3.org/1999/xlink" version="1.1" x="0px" y="0px" viewBox="0 0 168.292 195" enable-background="new 0 0 168.292 195" xml:space="preserve"><path d="M158.583,79.838V53.443c0-0.019-0.006-0.037-0.008-0.056c-0.002-0.184-0.02-0.366-0.053-0.545  c-0.008-0.034-0.02-0.063-0.027-0.095c-0.033-0.145-0.078-0.285-0.131-0.423c-0.021-0.057-0.047-0.11-0.07-0.165  c-0.055-0.117-0.115-0.229-0.185-0.338c-0.028-0.045-0.053-0.092-0.084-0.135c-0.099-0.142-0.207-0.278-0.332-0.404L117.79,10.909  c-0.002-0.003-0.004-0.005-0.008-0.007c-0.014-0.014-0.029-0.022-0.043-0.037c-0.115-0.113-0.24-0.214-0.369-0.305  c-0.047-0.033-0.097-0.062-0.146-0.092c-0.106-0.066-0.216-0.125-0.328-0.179c-0.056-0.024-0.108-0.051-0.167-0.073  c-0.148-0.061-0.303-0.107-0.458-0.144c-0.024-0.005-0.047-0.013-0.071-0.018c-0.174-0.034-0.352-0.049-0.529-0.053  c-0.023-0.001-0.045-0.007-0.068-0.007H27.739c-1.699,0-3.076,1.377-3.076,3.076v66.767H15v68.253h9.663v30.998  c0,1.698,1.376,3.075,3.076,3.075h127.769c1.697,0,3.074-1.377,3.074-3.075v-30.998h9.338V79.838H158.583z M118.676,20.559  l29.464,29.81h-29.464V20.559z M152.43,176.013H30.814v-27.924H152.43V176.013z M31.179,98.78h8.401l2.832,5.905  c0.96,1.968,1.68,3.552,2.448,5.376h0.096c0.768-2.064,1.392-3.504,2.208-5.376l2.736-5.905h8.353l-9.121,15.794l9.601,16.562  h-8.449l-2.928-5.856c-1.2-2.257-1.968-3.937-2.88-5.809H44.38c-0.672,1.872-1.488,3.552-2.496,5.809l-2.688,5.856h-8.353  l9.361-16.37L31.179,98.78z M85.276,124.991v6.145H65.067V98.78h7.344v26.211H85.276z M100.058,117.551  c-5.376-1.873-8.881-4.849-8.881-9.554c0-5.521,4.608-9.744,12.241-9.744c3.648,0,6.337,0.768,8.257,1.632l-1.632,5.904  c-1.296-0.624-3.601-1.536-6.769-1.536c-3.169,0-4.705,1.44-4.705,3.12c0,2.064,1.824,2.977,6.001,4.561  c5.713,2.112,8.4,5.089,8.4,9.649c0,5.424-4.176,10.032-13.057,10.032c-3.696,0-7.345-0.96-9.169-1.968l1.488-6.049  c1.968,1.009,4.992,2.017,8.112,2.017c3.36,0,5.137-1.393,5.137-3.505C105.483,120.095,103.947,118.942,100.058,117.551z   M152.43,79.838H30.814V16.146h81.711v37.297c0,1.699,1.376,3.076,3.075,3.076h36.829V79.838z"></path></svg>